M48
;DRILL file {KiCad 4.0.1-stable} date 2018年09月23日 日曜日 04:01:04
;FORMAT={-:-/ absolute / inch / decimal}
FMAT,2
INCH,TZ
T1C0.016
T2C0.020
T3C0.024
T4C0.026
T5C0.028
T6C0.031
T7C0.039
T8C0.039
T9C0.053
T10C0.079
%
G90
G05
M72
T1
X0.2925Y-1.055
X0.4125Y-0.6375
X0.4125Y-1.36
X0.4725Y-0.54
X0.4725Y-1.2475
X0.48Y-2.015
X0.49Y-1.49
X0.5125Y-1.1
X0.5125Y-1.6725
X0.5325Y-1.145
X0.55Y-1.005
X0.57Y-1.49
X0.5775Y-1.845
X0.5825Y-0.8025
X0.5825Y-1.5525
X0.595Y-1.77
X0.63Y-2.18
X0.66Y-1.73
X0.6875Y-0.8025
X0.6875Y-1.5525
X0.73Y-1.685
X0.7675Y-1.495
X0.77Y-0.67
X0.77Y-0.995
X0.8175Y-1.0825
X0.8175Y-1.7975
X0.8175Y-2.1725
X0.8175Y-2.7275
X0.8225Y-1.5675
X0.845Y-1.9325
X0.8475Y-1.7725
X0.855Y-0.4175
X0.86Y-2.435
X0.86Y-2.5375
X0.8625Y-0.9
X0.8625Y-1.89
X0.8725Y-1.5725
X0.8725Y-1.7075
X0.8775Y-1.1
X0.9525Y-0.2075
X0.955Y-1.975
X0.965Y-0.58
X0.9675Y-1.9325
X0.97Y-2.1525
X1.015Y-0.2875
X1.015Y-1.6025
X1.1Y-2.365
X1.1Y-2.4625
X1.1275Y-2.5875
X1.1575Y-1.8025
X1.1825Y-0.625
X1.1825Y-0.895
X1.185Y-2.9625
X1.1975Y-1.6125
X1.1975Y-1.895
X1.2075Y-2.535
X1.225Y-2.32
X1.2325Y-1.645
X1.25Y-0.8375
X1.2525Y-2.225
X1.26Y-2.845
X1.265Y-2.12
X1.275Y-1.6675
X1.275Y-1.8175
X1.2875Y-1.035
X1.2875Y-1.4925
X1.315Y-2.6775
X1.345Y-1.105
X1.35Y-2.0525
X1.3675Y-1.3475
X1.38Y-2.2175
X1.38Y-2.2925
X1.38Y-2.6125
X1.405Y-1.8025
X1.4075Y-0.745
X1.4075Y-1.1775
X1.435Y-2.115
X1.44Y-1.27
X1.45Y-1.01
X1.4525Y-2.8075
X1.4625Y-1.34
X1.4625Y-1.675
X1.4825Y-0.4775
X1.4875Y-2.5625
X1.4925Y-1.595
X1.5175Y-1.99
X1.545Y-2.055
X1.5525Y-1.84
X1.565Y-1.875
X1.5775Y-2.1075
X1.585Y-0.6325
X1.5875Y-0.8825
X1.5925Y-1.8975
X1.6075Y-2.2825
X1.615Y-1.9275
X1.64Y-1.955
X1.675Y-1.18
X1.675Y-2.46
X1.705Y-1.1975
X1.72Y-1.585
X1.7325Y-1.9
X1.7525Y-1.61
X1.78Y-1.37
X1.7875Y-1.22
X1.79Y-1.825
X1.8025Y-1.155
X1.805Y-0.735
X1.815Y-1.96
X1.8175Y-0.43
X1.82Y-0.885
X1.825Y-1.125
X1.8425Y-1.095
X1.85Y-1.8625
X1.855Y-1.76
X1.8575Y-1.065
X1.88Y-1.1775
X1.885Y-1.3125
X1.9075Y-1.225
X1.91Y-0.7375
X1.915Y-1.385
X1.92Y-1.08
X1.925Y-1.86
X1.9325Y-2.4825
X1.9325Y-2.6725
X1.9675Y-0.21
X1.9675Y-0.6475
X2.005Y-1.2
X2.0075Y-1.3125
X2.0175Y-1.68
X2.0225Y-0.9625
X2.05Y-1.675
X2.07Y-1.8675
X2.0775Y-1.7475
X2.08Y-2.6325
X2.0825Y-2.5175
X2.085Y-1.0825
X2.09Y-1.2
X2.09Y-2.4425
X2.115Y-2.0425
X2.135Y-1.3125
X2.15Y-0.98
X2.15Y-1.585
X2.1725Y-1.6175
X2.1975Y-1.2675
X2.245Y-2.0125
X2.2475Y-2.4425
X2.2725Y-1.2375
X2.28Y-1.4975
X2.3275Y-1.6525
X2.35Y-2.335
X2.3575Y-0.5225
X2.395Y-1.47
X2.4075Y-0.7975
X2.41Y-2.6325
X2.425Y-2.5525
X2.4275Y-1.6525
X2.4275Y-2.155
X2.4275Y-2.4825
X2.44Y-0.605
X2.44Y-2.6
X2.4525Y-1.59
X2.465Y-1.21
X2.4775Y-2.335
X2.48Y-0.905
X2.485Y-2.3825
X2.4925Y-1.56
X2.495Y-1.525
X2.51Y-2.0125
X2.525Y-1.1525
X2.5275Y-0.925
X2.565Y-1.795
X2.5675Y-1.56
X2.5675Y-1.995
X2.5675Y-2.23
X2.57Y-1.525
X2.58Y-1.3725
X2.585Y-2.3925
X2.59Y-1.155
X2.5925Y-2.33
X2.595Y-1.0325
X2.625Y-2.1525
X2.66Y-1.47
X2.6825Y-1.5925
X2.695Y-1.4175
X2.73Y-1.795
X2.73Y-1.93
X2.7525Y-1.55
X2.76Y-1.2375
X2.765Y-1.8875
X2.785Y-1.59
X2.795Y-2.0725
X2.815Y-1.4975
X2.84Y-1.375
X2.84Y-1.82
X2.845Y-0.8775
X2.8675Y-1.3975
X2.8675Y-1.59
X2.91Y-0.9175
X2.9425Y-1.5125
X2.945Y-1.6875
X2.9625Y-1.59
X2.9675Y-1.365
X2.9675Y-1.8175
X2.9825Y-1.6175
X3.0025Y-2.5725
X3.02Y-1.6925
X3.02Y-2.3075
X3.0325Y-1.53
X3.065Y-1.59
X3.07Y-1.8125
X3.0725Y-2.2775
X3.085Y-1.125
X3.1Y-2.0025
X3.1025Y-1.4325
X3.125Y-2.28
X3.135Y-1.5425
X3.145Y-1.4725
X3.1575Y-2.34
X3.1725Y-1.69
X3.1775Y-0.9575
X3.1975Y-2.6025
X3.2Y-0.84
X3.2Y-1.9575
X3.205Y-1.34
X3.205Y-2.0775
X3.2075Y-1.535
X3.2125Y-2.71
X3.235Y-1.305
X3.25Y-1.385
X3.255Y-1.815
X3.255Y-1.955
X3.275Y-1.4775
X3.2775Y-2.33
X3.3325Y-1.14
X3.3575Y-1.275
X3.37Y-2.17
X3.38Y-0.8425
X3.4075Y-1.2075
X3.4075Y-1.4325
X3.4175Y-2.025
X3.425Y-1.505
X3.4325Y-0.8475
X3.4375Y-1.59
X3.44Y-1.8575
X3.4425Y-2.7875
X3.4475Y-0.6275
X3.465Y-0.9925
X3.4825Y-2.245
X3.4825Y-2.8525
X3.5075Y-0.72
X3.5075Y-1.2425
X3.5175Y-2.025
X3.52Y-2.435
X3.5425Y-1.4
X3.5475Y-1.0975
X3.55Y-1.36
X3.5525Y-2.5525
X3.575Y-0.735
X3.615Y-1.0225
X3.615Y-1.25
X3.63Y-1.505
X3.64Y-0.9
X3.65Y-1.065
X3.69Y-1.3275
X3.695Y-1.4775
X3.71Y-1.77
X3.72Y-1.4
X3.73Y-1.36
X3.735Y-0.74
X3.735Y-1.505
X3.7475Y-1.6725
X3.77Y-1.585
X3.8275Y-0.62
X3.83Y-0.9375
X3.8375Y-2.2125
X3.845Y-2.74
X3.9025Y-2.3825
X3.9025Y-2.79
T2
X3.8209Y-1.4193
X3.8209Y-1.4783
X3.8209Y-1.5374
X3.8209Y-1.5965
X3.8209Y-1.6555
X3.8209Y-1.7146
T3
X0.2327Y-1.0151
X0.2327Y-2.1345
X0.2893Y-0.9585
X0.2893Y-2.1911
X0.3458Y-0.902
X0.3458Y-2.2476
X1.3742Y-0.294
X1.3742Y-0.374
X1.3742Y-0.454
X1.3742Y-2.6956
X1.3742Y-2.7756
X1.3742Y-2.8556
T4
X1.736Y-2.3616
X1.786Y-2.3616
X1.836Y-2.3616
X1.886Y-2.3616
T5
X2.0563Y-0.0732
X2.0563Y-0.1732
X2.0563Y-0.2732
T6
X1.9685Y-0.7067
X2.0472Y-0.7067
T7
X2.1285Y-1.7117
X2.1304Y-1.4124
X2.2285Y-1.7117
X2.2304Y-1.4124
X2.3285Y-1.7117
X2.3304Y-1.4124
X2.4285Y-1.7117
X2.4304Y-1.4124
X2.5285Y-1.7117
X2.5304Y-1.4124
X3.6358Y-0.2728
X3.6358Y-0.3728
X3.6358Y-0.4728
X3.6358Y-0.5728
X3.6358Y-0.6728
X3.6358Y-2.4776
X3.6358Y-2.5776
X3.6358Y-2.6776
X3.6358Y-2.7776
X3.6358Y-2.8776
X3.7358Y-0.2728
X3.7358Y-0.3728
X3.7358Y-0.4728
X3.7358Y-0.5728
X3.7358Y-0.6728
X3.7358Y-2.4776
X3.7358Y-2.5776
X3.7358Y-2.6776
X3.7358Y-2.7776
X3.7358Y-2.8776
T8
X0.1575Y-1.2598
X0.1575Y-1.8898
X0.2282Y-1.1891
X0.2282Y-1.9605
X1.2598Y-0.1362
X1.2598Y-0.2362
X1.2598Y-2.9134
X1.2598Y-3.0134
T9
X1.7498Y-2.9734
X2.0098Y-2.9734
X3.5808Y-1.9479
X3.8408Y-1.9479
T10
X2.6142Y-0.6693
X2.6142Y-2.4803
X3.2835Y-0.6693
X3.2835Y-2.4803
T0
M30
