G04 #@! TF.GenerationSoftware,KiCad,Pcbnew,(5.1.2-1)-1*
G04 #@! TF.CreationDate,2019-06-05T01:13:59+09:00*
G04 #@! TF.ProjectId,MicroMouse,4d696372-6f4d-46f7-9573-652e6b696361,rev?*
G04 #@! TF.SameCoordinates,Original*
G04 #@! TF.FileFunction,Soldermask,Top*
G04 #@! TF.FilePolarity,Negative*
%FSLAX46Y46*%
G04 Gerber Fmt 4.6, Leading zero omitted, Abs format (unit mm)*
G04 Created by KiCad (PCBNEW (5.1.2-1)-1) date 2019-06-05 01:13:59*
%MOMM*%
%LPD*%
G04 APERTURE LIST*
%ADD10C,0.250000*%
%ADD11C,0.100000*%
%ADD12R,1.750000X0.450000*%
%ADD13O,1.727200X2.032000*%
%ADD14C,2.000000*%
%ADD15C,1.900000*%
%ADD16R,2.000000X1.900000*%
%ADD17R,1.900000X2.000000*%
%ADD18R,0.900000X1.200000*%
%ADD19R,1.200000X0.900000*%
%ADD20C,0.900000*%
%ADD21R,1.700000X2.500000*%
%ADD22R,0.600000X1.550000*%
%ADD23C,2.400000*%
%ADD24R,3.300000X1.700000*%
%ADD25R,1.200000X1.700000*%
%ADD26R,0.800100X1.800860*%
%ADD27C,1.727200*%
%ADD28C,1.727200*%
%ADD29R,1.600200X3.599180*%
%ADD30O,1.500000X2.500000*%
%ADD31O,2.032000X1.727200*%
%ADD32R,2.032000X1.727200*%
%ADD33C,2.500000*%
%ADD34C,0.600000*%
G04 APERTURE END LIST*
D10*
X123377088Y-93192812D03*
D11*
G36*
X122758370Y-93988307D02*
G01*
X122581593Y-93811530D01*
X123995806Y-92397317D01*
X124172583Y-92574094D01*
X122758370Y-93988307D01*
X122758370Y-93988307D01*
G37*
D10*
X123730641Y-93546365D03*
D11*
G36*
X123111923Y-94341860D02*
G01*
X122935146Y-94165083D01*
X124349359Y-92750870D01*
X124526136Y-92927647D01*
X123111923Y-94341860D01*
X123111923Y-94341860D01*
G37*
D10*
X124084194Y-93899918D03*
D11*
G36*
X123465476Y-94695413D02*
G01*
X123288699Y-94518636D01*
X124702912Y-93104423D01*
X124879689Y-93281200D01*
X123465476Y-94695413D01*
X123465476Y-94695413D01*
G37*
D10*
X124437748Y-94253472D03*
D11*
G36*
X123819030Y-95048967D02*
G01*
X123642253Y-94872190D01*
X125056466Y-93457977D01*
X125233243Y-93634754D01*
X123819030Y-95048967D01*
X123819030Y-95048967D01*
G37*
D10*
X124791301Y-94607025D03*
D11*
G36*
X124172583Y-95402520D02*
G01*
X123995806Y-95225743D01*
X125410019Y-93811530D01*
X125586796Y-93988307D01*
X124172583Y-95402520D01*
X124172583Y-95402520D01*
G37*
D10*
X125144854Y-94960579D03*
D11*
G36*
X124526136Y-95756074D02*
G01*
X124349359Y-95579297D01*
X125763572Y-94165084D01*
X125940349Y-94341861D01*
X124526136Y-95756074D01*
X124526136Y-95756074D01*
G37*
D10*
X125498408Y-95314132D03*
D11*
G36*
X124879690Y-96109627D02*
G01*
X124702913Y-95932850D01*
X126117126Y-94518637D01*
X126293903Y-94695414D01*
X124879690Y-96109627D01*
X124879690Y-96109627D01*
G37*
D10*
X125851961Y-95667685D03*
D11*
G36*
X125233243Y-96463180D02*
G01*
X125056466Y-96286403D01*
X126470679Y-94872190D01*
X126647456Y-95048967D01*
X125233243Y-96463180D01*
X125233243Y-96463180D01*
G37*
D10*
X126205515Y-96021239D03*
D11*
G36*
X125586797Y-96816734D02*
G01*
X125410020Y-96639957D01*
X126824233Y-95225744D01*
X127001010Y-95402521D01*
X125586797Y-96816734D01*
X125586797Y-96816734D01*
G37*
D10*
X126559068Y-96374792D03*
D11*
G36*
X125940350Y-97170287D02*
G01*
X125763573Y-96993510D01*
X127177786Y-95579297D01*
X127354563Y-95756074D01*
X125940350Y-97170287D01*
X125940350Y-97170287D01*
G37*
D10*
X126912621Y-96728346D03*
D11*
G36*
X126293903Y-97523841D02*
G01*
X126117126Y-97347064D01*
X127531339Y-95932851D01*
X127708116Y-96109628D01*
X126293903Y-97523841D01*
X126293903Y-97523841D01*
G37*
D10*
X127266175Y-97081899D03*
D11*
G36*
X126647457Y-97877394D02*
G01*
X126470680Y-97700617D01*
X127884893Y-96286404D01*
X128061670Y-96463181D01*
X126647457Y-97877394D01*
X126647457Y-97877394D01*
G37*
D10*
X127619728Y-97435452D03*
D11*
G36*
X127001010Y-98230947D02*
G01*
X126824233Y-98054170D01*
X128238446Y-96639957D01*
X128415223Y-96816734D01*
X127001010Y-98230947D01*
X127001010Y-98230947D01*
G37*
D10*
X127973282Y-97789006D03*
D11*
G36*
X127354564Y-98584501D02*
G01*
X127177787Y-98407724D01*
X128592000Y-96993511D01*
X128768777Y-97170288D01*
X127354564Y-98584501D01*
X127354564Y-98584501D01*
G37*
D10*
X128326835Y-98142559D03*
D11*
G36*
X127708117Y-98938054D02*
G01*
X127531340Y-98761277D01*
X128945553Y-97347064D01*
X129122330Y-97523841D01*
X127708117Y-98938054D01*
X127708117Y-98938054D01*
G37*
D10*
X128680388Y-98496112D03*
D11*
G36*
X128061670Y-99291607D02*
G01*
X127884893Y-99114830D01*
X129299106Y-97700617D01*
X129475883Y-97877394D01*
X128061670Y-99291607D01*
X128061670Y-99291607D01*
G37*
D10*
X132145212Y-98496112D03*
D11*
G36*
X132940707Y-99114830D02*
G01*
X132763930Y-99291607D01*
X131349717Y-97877394D01*
X131526494Y-97700617D01*
X132940707Y-99114830D01*
X132940707Y-99114830D01*
G37*
D10*
X132498765Y-98142559D03*
D11*
G36*
X133294260Y-98761277D02*
G01*
X133117483Y-98938054D01*
X131703270Y-97523841D01*
X131880047Y-97347064D01*
X133294260Y-98761277D01*
X133294260Y-98761277D01*
G37*
D10*
X132852318Y-97789006D03*
D11*
G36*
X133647813Y-98407724D02*
G01*
X133471036Y-98584501D01*
X132056823Y-97170288D01*
X132233600Y-96993511D01*
X133647813Y-98407724D01*
X133647813Y-98407724D01*
G37*
D10*
X133205872Y-97435452D03*
D11*
G36*
X134001367Y-98054170D02*
G01*
X133824590Y-98230947D01*
X132410377Y-96816734D01*
X132587154Y-96639957D01*
X134001367Y-98054170D01*
X134001367Y-98054170D01*
G37*
D10*
X133559425Y-97081899D03*
D11*
G36*
X134354920Y-97700617D02*
G01*
X134178143Y-97877394D01*
X132763930Y-96463181D01*
X132940707Y-96286404D01*
X134354920Y-97700617D01*
X134354920Y-97700617D01*
G37*
D10*
X133912979Y-96728346D03*
D11*
G36*
X134708474Y-97347064D02*
G01*
X134531697Y-97523841D01*
X133117484Y-96109628D01*
X133294261Y-95932851D01*
X134708474Y-97347064D01*
X134708474Y-97347064D01*
G37*
D10*
X134266532Y-96374792D03*
D11*
G36*
X135062027Y-96993510D02*
G01*
X134885250Y-97170287D01*
X133471037Y-95756074D01*
X133647814Y-95579297D01*
X135062027Y-96993510D01*
X135062027Y-96993510D01*
G37*
D10*
X134620085Y-96021239D03*
D11*
G36*
X135415580Y-96639957D02*
G01*
X135238803Y-96816734D01*
X133824590Y-95402521D01*
X134001367Y-95225744D01*
X135415580Y-96639957D01*
X135415580Y-96639957D01*
G37*
D10*
X134973639Y-95667685D03*
D11*
G36*
X135769134Y-96286403D02*
G01*
X135592357Y-96463180D01*
X134178144Y-95048967D01*
X134354921Y-94872190D01*
X135769134Y-96286403D01*
X135769134Y-96286403D01*
G37*
D10*
X135327192Y-95314132D03*
D11*
G36*
X136122687Y-95932850D02*
G01*
X135945910Y-96109627D01*
X134531697Y-94695414D01*
X134708474Y-94518637D01*
X136122687Y-95932850D01*
X136122687Y-95932850D01*
G37*
D10*
X135680746Y-94960579D03*
D11*
G36*
X136476241Y-95579297D02*
G01*
X136299464Y-95756074D01*
X134885251Y-94341861D01*
X135062028Y-94165084D01*
X136476241Y-95579297D01*
X136476241Y-95579297D01*
G37*
D10*
X136034299Y-94607025D03*
D11*
G36*
X136829794Y-95225743D02*
G01*
X136653017Y-95402520D01*
X135238804Y-93988307D01*
X135415581Y-93811530D01*
X136829794Y-95225743D01*
X136829794Y-95225743D01*
G37*
D10*
X136387852Y-94253472D03*
D11*
G36*
X137183347Y-94872190D02*
G01*
X137006570Y-95048967D01*
X135592357Y-93634754D01*
X135769134Y-93457977D01*
X137183347Y-94872190D01*
X137183347Y-94872190D01*
G37*
D10*
X136741406Y-93899918D03*
D11*
G36*
X137536901Y-94518636D02*
G01*
X137360124Y-94695413D01*
X135945911Y-93281200D01*
X136122688Y-93104423D01*
X137536901Y-94518636D01*
X137536901Y-94518636D01*
G37*
D10*
X137094959Y-93546365D03*
D11*
G36*
X137890454Y-94165083D02*
G01*
X137713677Y-94341860D01*
X136299464Y-92927647D01*
X136476241Y-92750870D01*
X137890454Y-94165083D01*
X137890454Y-94165083D01*
G37*
D10*
X137448512Y-93192812D03*
D11*
G36*
X138244007Y-93811530D02*
G01*
X138067230Y-93988307D01*
X136653017Y-92574094D01*
X136829794Y-92397317D01*
X138244007Y-93811530D01*
X138244007Y-93811530D01*
G37*
D10*
X137448512Y-89727988D03*
D11*
G36*
X136829794Y-90523483D02*
G01*
X136653017Y-90346706D01*
X138067230Y-88932493D01*
X138244007Y-89109270D01*
X136829794Y-90523483D01*
X136829794Y-90523483D01*
G37*
D10*
X137094959Y-89374435D03*
D11*
G36*
X136476241Y-90169930D02*
G01*
X136299464Y-89993153D01*
X137713677Y-88578940D01*
X137890454Y-88755717D01*
X136476241Y-90169930D01*
X136476241Y-90169930D01*
G37*
D10*
X136741406Y-89020882D03*
D11*
G36*
X136122688Y-89816377D02*
G01*
X135945911Y-89639600D01*
X137360124Y-88225387D01*
X137536901Y-88402164D01*
X136122688Y-89816377D01*
X136122688Y-89816377D01*
G37*
D10*
X136387852Y-88667328D03*
D11*
G36*
X135769134Y-89462823D02*
G01*
X135592357Y-89286046D01*
X137006570Y-87871833D01*
X137183347Y-88048610D01*
X135769134Y-89462823D01*
X135769134Y-89462823D01*
G37*
D10*
X136034299Y-88313775D03*
D11*
G36*
X135415581Y-89109270D02*
G01*
X135238804Y-88932493D01*
X136653017Y-87518280D01*
X136829794Y-87695057D01*
X135415581Y-89109270D01*
X135415581Y-89109270D01*
G37*
D10*
X135680746Y-87960221D03*
D11*
G36*
X135062028Y-88755716D02*
G01*
X134885251Y-88578939D01*
X136299464Y-87164726D01*
X136476241Y-87341503D01*
X135062028Y-88755716D01*
X135062028Y-88755716D01*
G37*
D10*
X135327192Y-87606668D03*
D11*
G36*
X134708474Y-88402163D02*
G01*
X134531697Y-88225386D01*
X135945910Y-86811173D01*
X136122687Y-86987950D01*
X134708474Y-88402163D01*
X134708474Y-88402163D01*
G37*
D10*
X134973639Y-87253115D03*
D11*
G36*
X134354921Y-88048610D02*
G01*
X134178144Y-87871833D01*
X135592357Y-86457620D01*
X135769134Y-86634397D01*
X134354921Y-88048610D01*
X134354921Y-88048610D01*
G37*
D10*
X134620085Y-86899561D03*
D11*
G36*
X134001367Y-87695056D02*
G01*
X133824590Y-87518279D01*
X135238803Y-86104066D01*
X135415580Y-86280843D01*
X134001367Y-87695056D01*
X134001367Y-87695056D01*
G37*
D10*
X134266532Y-86546008D03*
D11*
G36*
X133647814Y-87341503D02*
G01*
X133471037Y-87164726D01*
X134885250Y-85750513D01*
X135062027Y-85927290D01*
X133647814Y-87341503D01*
X133647814Y-87341503D01*
G37*
D10*
X133912979Y-86192454D03*
D11*
G36*
X133294261Y-86987949D02*
G01*
X133117484Y-86811172D01*
X134531697Y-85396959D01*
X134708474Y-85573736D01*
X133294261Y-86987949D01*
X133294261Y-86987949D01*
G37*
D10*
X133559425Y-85838901D03*
D11*
G36*
X132940707Y-86634396D02*
G01*
X132763930Y-86457619D01*
X134178143Y-85043406D01*
X134354920Y-85220183D01*
X132940707Y-86634396D01*
X132940707Y-86634396D01*
G37*
D10*
X133205872Y-85485348D03*
D11*
G36*
X132587154Y-86280843D02*
G01*
X132410377Y-86104066D01*
X133824590Y-84689853D01*
X134001367Y-84866630D01*
X132587154Y-86280843D01*
X132587154Y-86280843D01*
G37*
D10*
X132852318Y-85131794D03*
D11*
G36*
X132233600Y-85927289D02*
G01*
X132056823Y-85750512D01*
X133471036Y-84336299D01*
X133647813Y-84513076D01*
X132233600Y-85927289D01*
X132233600Y-85927289D01*
G37*
D10*
X132498765Y-84778241D03*
D11*
G36*
X131880047Y-85573736D02*
G01*
X131703270Y-85396959D01*
X133117483Y-83982746D01*
X133294260Y-84159523D01*
X131880047Y-85573736D01*
X131880047Y-85573736D01*
G37*
D10*
X132145212Y-84424688D03*
D11*
G36*
X131526494Y-85220183D02*
G01*
X131349717Y-85043406D01*
X132763930Y-83629193D01*
X132940707Y-83805970D01*
X131526494Y-85220183D01*
X131526494Y-85220183D01*
G37*
D10*
X128680388Y-84424688D03*
D11*
G36*
X129475883Y-85043406D02*
G01*
X129299106Y-85220183D01*
X127884893Y-83805970D01*
X128061670Y-83629193D01*
X129475883Y-85043406D01*
X129475883Y-85043406D01*
G37*
D10*
X128326835Y-84778241D03*
D11*
G36*
X129122330Y-85396959D02*
G01*
X128945553Y-85573736D01*
X127531340Y-84159523D01*
X127708117Y-83982746D01*
X129122330Y-85396959D01*
X129122330Y-85396959D01*
G37*
D10*
X127973282Y-85131794D03*
D11*
G36*
X128768777Y-85750512D02*
G01*
X128592000Y-85927289D01*
X127177787Y-84513076D01*
X127354564Y-84336299D01*
X128768777Y-85750512D01*
X128768777Y-85750512D01*
G37*
D10*
X127619728Y-85485348D03*
D11*
G36*
X128415223Y-86104066D02*
G01*
X128238446Y-86280843D01*
X126824233Y-84866630D01*
X127001010Y-84689853D01*
X128415223Y-86104066D01*
X128415223Y-86104066D01*
G37*
D10*
X127266175Y-85838901D03*
D11*
G36*
X128061670Y-86457619D02*
G01*
X127884893Y-86634396D01*
X126470680Y-85220183D01*
X126647457Y-85043406D01*
X128061670Y-86457619D01*
X128061670Y-86457619D01*
G37*
D10*
X126912621Y-86192454D03*
D11*
G36*
X127708116Y-86811172D02*
G01*
X127531339Y-86987949D01*
X126117126Y-85573736D01*
X126293903Y-85396959D01*
X127708116Y-86811172D01*
X127708116Y-86811172D01*
G37*
D10*
X126559068Y-86546008D03*
D11*
G36*
X127354563Y-87164726D02*
G01*
X127177786Y-87341503D01*
X125763573Y-85927290D01*
X125940350Y-85750513D01*
X127354563Y-87164726D01*
X127354563Y-87164726D01*
G37*
D10*
X126205515Y-86899561D03*
D11*
G36*
X127001010Y-87518279D02*
G01*
X126824233Y-87695056D01*
X125410020Y-86280843D01*
X125586797Y-86104066D01*
X127001010Y-87518279D01*
X127001010Y-87518279D01*
G37*
D10*
X125851961Y-87253115D03*
D11*
G36*
X126647456Y-87871833D02*
G01*
X126470679Y-88048610D01*
X125056466Y-86634397D01*
X125233243Y-86457620D01*
X126647456Y-87871833D01*
X126647456Y-87871833D01*
G37*
D10*
X125498408Y-87606668D03*
D11*
G36*
X126293903Y-88225386D02*
G01*
X126117126Y-88402163D01*
X124702913Y-86987950D01*
X124879690Y-86811173D01*
X126293903Y-88225386D01*
X126293903Y-88225386D01*
G37*
D10*
X125144854Y-87960221D03*
D11*
G36*
X125940349Y-88578939D02*
G01*
X125763572Y-88755716D01*
X124349359Y-87341503D01*
X124526136Y-87164726D01*
X125940349Y-88578939D01*
X125940349Y-88578939D01*
G37*
D10*
X124791301Y-88313775D03*
D11*
G36*
X125586796Y-88932493D02*
G01*
X125410019Y-89109270D01*
X123995806Y-87695057D01*
X124172583Y-87518280D01*
X125586796Y-88932493D01*
X125586796Y-88932493D01*
G37*
D10*
X124437748Y-88667328D03*
D11*
G36*
X125233243Y-89286046D02*
G01*
X125056466Y-89462823D01*
X123642253Y-88048610D01*
X123819030Y-87871833D01*
X125233243Y-89286046D01*
X125233243Y-89286046D01*
G37*
D10*
X124084194Y-89020882D03*
D11*
G36*
X124879689Y-89639600D02*
G01*
X124702912Y-89816377D01*
X123288699Y-88402164D01*
X123465476Y-88225387D01*
X124879689Y-89639600D01*
X124879689Y-89639600D01*
G37*
D10*
X123730641Y-89374435D03*
D11*
G36*
X124526136Y-89993153D02*
G01*
X124349359Y-90169930D01*
X122935146Y-88755717D01*
X123111923Y-88578940D01*
X124526136Y-89993153D01*
X124526136Y-89993153D01*
G37*
D10*
X123377088Y-89727988D03*
D11*
G36*
X124172583Y-90346706D02*
G01*
X123995806Y-90523483D01*
X122581593Y-89109270D01*
X122758370Y-88932493D01*
X124172583Y-90346706D01*
X124172583Y-90346706D01*
G37*
D12*
X178812800Y-95035400D03*
X178812800Y-94385400D03*
X178812800Y-93735400D03*
X178812800Y-93085400D03*
X178812800Y-92435400D03*
X178812800Y-91785400D03*
X178812800Y-91135400D03*
X178812800Y-90485400D03*
X178812800Y-89835400D03*
X178812800Y-89185400D03*
X178812800Y-88535400D03*
X178812800Y-87885400D03*
X186012800Y-87885400D03*
X186012800Y-88535400D03*
X186012800Y-89185400D03*
X186012800Y-89835400D03*
X186012800Y-90485400D03*
X186012800Y-91135400D03*
X186012800Y-91785400D03*
X186012800Y-92435400D03*
X186012800Y-93085400D03*
X186012800Y-93735400D03*
X186012800Y-94385400D03*
X186012800Y-95035400D03*
D13*
X164222800Y-86380400D03*
X161682800Y-86380400D03*
X159142800Y-86380400D03*
X156602800Y-86380400D03*
X164222800Y-96540400D03*
X161682800Y-96540400D03*
X159142800Y-96540400D03*
X156602800Y-96540400D03*
D14*
X198682800Y-67540400D03*
X198682800Y-65000400D03*
X198682800Y-62460400D03*
X198682800Y-59920400D03*
X198682800Y-57380400D03*
X196142800Y-67540400D03*
X196142800Y-65000400D03*
X196142800Y-62460400D03*
X196142800Y-59920400D03*
X196142800Y-57380400D03*
X198682800Y-125540400D03*
X198682800Y-123000400D03*
X198682800Y-120460400D03*
X198682800Y-117920400D03*
X198682800Y-115380400D03*
X196142800Y-125540400D03*
X196142800Y-123000400D03*
X196142800Y-120460400D03*
X196142800Y-117920400D03*
X196142800Y-115380400D03*
D15*
X141412800Y-116190400D03*
D16*
X141412800Y-118730400D03*
D15*
X141412800Y-66730400D03*
D16*
X141412800Y-64190400D03*
D17*
X108142800Y-94460400D03*
D15*
X110682800Y-94460400D03*
X108142800Y-88460400D03*
D17*
X110682800Y-88460400D03*
D18*
X135412800Y-74560400D03*
X135412800Y-72360400D03*
D19*
X156512800Y-73460400D03*
X154312800Y-73460400D03*
X142512800Y-91460400D03*
X140312800Y-91460400D03*
X118312800Y-90460400D03*
X120512800Y-90460400D03*
D18*
X130412800Y-102560400D03*
X130412800Y-100360400D03*
D19*
X118312800Y-92460400D03*
X120512800Y-92460400D03*
X140312800Y-93460400D03*
X142512800Y-93460400D03*
D18*
X135412800Y-118560400D03*
X135412800Y-116360400D03*
X176412800Y-83360400D03*
X176412800Y-85560400D03*
X173412800Y-83360400D03*
X173412800Y-85560400D03*
X163412800Y-81360400D03*
X163412800Y-83560400D03*
D19*
X107512800Y-91460400D03*
X105312800Y-91460400D03*
D20*
X116190617Y-64682583D03*
D11*
G36*
X116084551Y-65425045D02*
G01*
X115448155Y-64788649D01*
X116296683Y-63940121D01*
X116933079Y-64576517D01*
X116084551Y-65425045D01*
X116084551Y-65425045D01*
G37*
D20*
X114634983Y-66238217D03*
D11*
G36*
X114528917Y-66980679D02*
G01*
X113892521Y-66344283D01*
X114741049Y-65495755D01*
X115377445Y-66132151D01*
X114528917Y-66980679D01*
X114528917Y-66980679D01*
G37*
D19*
X131312800Y-127460400D03*
X133512800Y-127460400D03*
D18*
X186412800Y-56560400D03*
X186412800Y-54360400D03*
X189412800Y-56560400D03*
X189412800Y-54360400D03*
D19*
X154512800Y-63460400D03*
X152312800Y-63460400D03*
X115512800Y-91460400D03*
X113312800Y-91460400D03*
D20*
X116634983Y-68238217D03*
D11*
G36*
X116741049Y-67495755D02*
G01*
X117377445Y-68132151D01*
X116528917Y-68980679D01*
X115892521Y-68344283D01*
X116741049Y-67495755D01*
X116741049Y-67495755D01*
G37*
D20*
X118190617Y-66682583D03*
D11*
G36*
X118296683Y-65940121D02*
G01*
X118933079Y-66576517D01*
X118084551Y-67425045D01*
X117448155Y-66788649D01*
X118296683Y-65940121D01*
X118296683Y-65940121D01*
G37*
D19*
X133512800Y-125460400D03*
X131312800Y-125460400D03*
D18*
X186412800Y-59360400D03*
X186412800Y-61560400D03*
X189412800Y-61560400D03*
X189412800Y-59360400D03*
D19*
X129312800Y-61460400D03*
X131512800Y-61460400D03*
X131512800Y-63460400D03*
X129312800Y-63460400D03*
X129312800Y-105460400D03*
X131512800Y-105460400D03*
X131512800Y-107460400D03*
X129312800Y-107460400D03*
X134312800Y-62460400D03*
X136512800Y-62460400D03*
X134312800Y-106460400D03*
X136512800Y-106460400D03*
D18*
X131412800Y-77560400D03*
X131412800Y-75360400D03*
X131412800Y-121560400D03*
X131412800Y-119360400D03*
X127412800Y-75360400D03*
X127412800Y-77560400D03*
X129412800Y-77560400D03*
X129412800Y-75360400D03*
X127412800Y-119360400D03*
X127412800Y-121560400D03*
X129412800Y-121560400D03*
X129412800Y-119360400D03*
D19*
X191512800Y-110460400D03*
X189312800Y-110460400D03*
X191512800Y-113460400D03*
X189312800Y-113460400D03*
X186312800Y-106460400D03*
X188512800Y-106460400D03*
D20*
X120634983Y-83682583D03*
D11*
G36*
X121377445Y-83788649D02*
G01*
X120741049Y-84425045D01*
X119892521Y-83576517D01*
X120528917Y-82940121D01*
X121377445Y-83788649D01*
X121377445Y-83788649D01*
G37*
D20*
X122190617Y-85238217D03*
D11*
G36*
X122933079Y-85344283D02*
G01*
X122296683Y-85980679D01*
X121448155Y-85132151D01*
X122084551Y-84495755D01*
X122933079Y-85344283D01*
X122933079Y-85344283D01*
G37*
D21*
X189662800Y-129060400D03*
X189662800Y-124860400D03*
X186162800Y-129060400D03*
D22*
X132317800Y-72160400D03*
X131047800Y-72160400D03*
X129777800Y-72160400D03*
X128507800Y-72160400D03*
X128507800Y-66760400D03*
X129777800Y-66760400D03*
X131047800Y-66760400D03*
X132317800Y-66760400D03*
X132317800Y-116160400D03*
X131047800Y-116160400D03*
X129777800Y-116160400D03*
X128507800Y-116160400D03*
X128507800Y-110760400D03*
X129777800Y-110760400D03*
X131047800Y-110760400D03*
X132317800Y-110760400D03*
D23*
X193162800Y-100460400D03*
X199662800Y-100460400D03*
X193162800Y-106460400D03*
X199662800Y-106460400D03*
D24*
X155412800Y-82760400D03*
D25*
X153112800Y-76460400D03*
X155412800Y-76460400D03*
X157712800Y-76460400D03*
D24*
X145412800Y-82760400D03*
D25*
X143112800Y-76460400D03*
X145412800Y-76460400D03*
X147712800Y-76460400D03*
D13*
X153412800Y-59960400D03*
X153412800Y-57460400D03*
X153412800Y-54960400D03*
D26*
X150412800Y-70961540D03*
X149462800Y-67959260D03*
X151362800Y-67959260D03*
X190412800Y-120961540D03*
X189462800Y-117959260D03*
X191362800Y-117959260D03*
D27*
X110911388Y-107019334D03*
D11*
G36*
X109884481Y-107869936D02*
G01*
X110237335Y-105868807D01*
X111938295Y-106168732D01*
X111585441Y-108169861D01*
X109884481Y-107869936D01*
X109884481Y-107869936D01*
G37*
D27*
X113412800Y-107460400D03*
D28*
X113439264Y-107310315D02*
X113386336Y-107610485D01*
D27*
X115914212Y-107901466D03*
D28*
X115940676Y-107751381D02*
X115887748Y-108051551D01*
D27*
X122191424Y-110930065D03*
D11*
G36*
X121104022Y-110158301D02*
G01*
X123128290Y-109981201D01*
X123278826Y-111701829D01*
X121254558Y-111878929D01*
X121104022Y-110158301D01*
X121104022Y-110158301D01*
G37*
D27*
X122412800Y-113460400D03*
D28*
X122564620Y-113447117D02*
X122260980Y-113473683D01*
D27*
X122634176Y-115990735D03*
D28*
X122785996Y-115977452D02*
X122482356Y-116004018D01*
D27*
X122191424Y-71990735D03*
D28*
X122343244Y-72004018D02*
X122039604Y-71977452D01*
D27*
X122412800Y-69460400D03*
D28*
X122564620Y-69473683D02*
X122260980Y-69447117D01*
D27*
X122634176Y-66930065D03*
D11*
G36*
X121697310Y-65981201D02*
G01*
X123721578Y-66158301D01*
X123571042Y-67878929D01*
X121546774Y-67701829D01*
X121697310Y-65981201D01*
X121697310Y-65981201D01*
G37*
D27*
X115914212Y-75019334D03*
D11*
G36*
X116588265Y-73868807D02*
G01*
X116941119Y-75869936D01*
X115240159Y-76169861D01*
X114887305Y-74168732D01*
X116588265Y-73868807D01*
X116588265Y-73868807D01*
G37*
D27*
X113412800Y-75460400D03*
D28*
X113439264Y-75610485D02*
X113386336Y-75310315D01*
D27*
X110911388Y-75901466D03*
D28*
X110937852Y-76051551D02*
X110884924Y-75751381D01*
D19*
X147512800Y-73460400D03*
X145312800Y-73460400D03*
X163512800Y-77460400D03*
X161312800Y-77460400D03*
D18*
X145412800Y-87560400D03*
X145412800Y-85360400D03*
X130412800Y-80360400D03*
X130412800Y-82560400D03*
D20*
X122634983Y-100238217D03*
D11*
G36*
X122741049Y-99495755D02*
G01*
X123377445Y-100132151D01*
X122528917Y-100980679D01*
X121892521Y-100344283D01*
X122741049Y-99495755D01*
X122741049Y-99495755D01*
G37*
D20*
X124190617Y-98682583D03*
D11*
G36*
X124296683Y-97940121D02*
G01*
X124933079Y-98576517D01*
X124084551Y-99425045D01*
X123448155Y-98788649D01*
X124296683Y-97940121D01*
X124296683Y-97940121D01*
G37*
D18*
X133412800Y-82560400D03*
X133412800Y-80360400D03*
D19*
X172312800Y-91460400D03*
X174512800Y-91460400D03*
D29*
X168412800Y-76709580D03*
X168412800Y-82211220D03*
D30*
X155912800Y-68460400D03*
X158412800Y-68460400D03*
D20*
X114634983Y-116682583D03*
D11*
G36*
X115377445Y-116788649D02*
G01*
X114741049Y-117425045D01*
X113892521Y-116576517D01*
X114528917Y-115940121D01*
X115377445Y-116788649D01*
X115377445Y-116788649D01*
G37*
D20*
X116190617Y-118238217D03*
D11*
G36*
X116933079Y-118344283D02*
G01*
X116296683Y-118980679D01*
X115448155Y-118132151D01*
X116084551Y-117495755D01*
X116933079Y-118344283D01*
X116933079Y-118344283D01*
G37*
D19*
X133512800Y-55460400D03*
X131312800Y-55460400D03*
D20*
X118190617Y-116238217D03*
D11*
G36*
X117448155Y-116132151D02*
G01*
X118084551Y-115495755D01*
X118933079Y-116344283D01*
X118296683Y-116980679D01*
X117448155Y-116132151D01*
X117448155Y-116132151D01*
G37*
D20*
X116634983Y-114682583D03*
D11*
G36*
X115892521Y-114576517D02*
G01*
X116528917Y-113940121D01*
X117377445Y-114788649D01*
X116741049Y-115425045D01*
X115892521Y-114576517D01*
X115892521Y-114576517D01*
G37*
D19*
X131312800Y-57460400D03*
X133512800Y-57460400D03*
X186312800Y-100460400D03*
X188512800Y-100460400D03*
D18*
X140412800Y-72360400D03*
X140412800Y-74560400D03*
X138412800Y-74560400D03*
X138412800Y-72360400D03*
D31*
X199412800Y-89380400D03*
X199412800Y-91920400D03*
D32*
X199412800Y-94460400D03*
D31*
X199412800Y-84080400D03*
X199412800Y-81540400D03*
X199412800Y-79000400D03*
D32*
X199412800Y-76460400D03*
D33*
X185412800Y-68460400D03*
X168412800Y-68460400D03*
X185412800Y-114460400D03*
X168412800Y-114460400D03*
D34*
X165455600Y-82194400D03*
X154152600Y-80924400D03*
X138785600Y-72034400D03*
X196189600Y-130454400D03*
X195173600Y-130454400D03*
X195173600Y-129438400D03*
X194157600Y-130454400D03*
X197205600Y-127406400D03*
X195173600Y-127406400D03*
X196189600Y-127406400D03*
X194157600Y-127406400D03*
X198221600Y-127406400D03*
X199237600Y-127406400D03*
X196189600Y-128422400D03*
X197205600Y-128422400D03*
X198221600Y-128422400D03*
X200253600Y-127406400D03*
X201269600Y-127406400D03*
X200253600Y-128422400D03*
X201269600Y-128422400D03*
X196189600Y-129438400D03*
X197205600Y-129438400D03*
X198221600Y-129438400D03*
X199237600Y-129438400D03*
X200253600Y-129438400D03*
X201269600Y-129438400D03*
X194157600Y-128422400D03*
X195173600Y-128422400D03*
X199237600Y-128422400D03*
X194157600Y-129438400D03*
X197205600Y-130454400D03*
X198221600Y-130454400D03*
X199237600Y-130454400D03*
X200253600Y-130454400D03*
X201269600Y-130454400D03*
X159105600Y-75082400D03*
X160121600Y-75082400D03*
X160121600Y-76098400D03*
X159105600Y-76098400D03*
X163169600Y-75082400D03*
X164185600Y-75082400D03*
X164185600Y-76098400D03*
X163169600Y-76098400D03*
X190601600Y-69494400D03*
X191617600Y-69494400D03*
X191617600Y-72034400D03*
X194157600Y-72034400D03*
X195173600Y-72034400D03*
X195173600Y-71018400D03*
X194157600Y-71018400D03*
X190601600Y-68478400D03*
X191617600Y-68478400D03*
X191617600Y-73050400D03*
X191617600Y-74066400D03*
X191617600Y-75082400D03*
X191617600Y-76098400D03*
X191617600Y-77114400D03*
X191617600Y-78130400D03*
X127609600Y-102006400D03*
X128625600Y-102006400D03*
X127609600Y-103022400D03*
X128625600Y-103022400D03*
X127609600Y-104038400D03*
X128625600Y-104038400D03*
X129641600Y-104038400D03*
X130657600Y-104038400D03*
X114401600Y-96926400D03*
X115417600Y-96926400D03*
X116433600Y-96926400D03*
X117449600Y-96926400D03*
X115417600Y-97942400D03*
X116433600Y-97942400D03*
X117449600Y-97942400D03*
X114401600Y-101498400D03*
X114401600Y-102514400D03*
X114401600Y-103530400D03*
X115417600Y-103530400D03*
X118465600Y-96926400D03*
X118465600Y-97942400D03*
X118465600Y-98958400D03*
X114401600Y-82194400D03*
X115417600Y-82194400D03*
X116433600Y-82194400D03*
X114401600Y-83210400D03*
X115417600Y-83210400D03*
X116433600Y-83210400D03*
X116433600Y-84226400D03*
X115417600Y-84226400D03*
X114401600Y-84226400D03*
X114401600Y-85242400D03*
X115417600Y-85242400D03*
X116433600Y-85242400D03*
X116433600Y-86258400D03*
X115417600Y-86258400D03*
X114401600Y-86258400D03*
X115417600Y-87274400D03*
X116433600Y-87274400D03*
X148945600Y-76606400D03*
X149961600Y-76606400D03*
X149961600Y-77622400D03*
X148945600Y-77622400D03*
X150469600Y-72542400D03*
X151485600Y-72542400D03*
X151485600Y-73558400D03*
X150469600Y-73558400D03*
X149453600Y-72542400D03*
X151485600Y-74574400D03*
X132689600Y-74066400D03*
X133705600Y-74066400D03*
X133705600Y-75082400D03*
X132689600Y-75082400D03*
X132689600Y-76098400D03*
X133705600Y-76098400D03*
X133705600Y-77114400D03*
X132689600Y-77114400D03*
X136753600Y-72034400D03*
X136753600Y-73050400D03*
X136753600Y-74066400D03*
X136753600Y-75082400D03*
X137769600Y-72034400D03*
X137769600Y-73050400D03*
X138785600Y-73050400D03*
X146913600Y-85242400D03*
X147929600Y-85242400D03*
X148945600Y-85242400D03*
X148945600Y-86258400D03*
X147929600Y-86258400D03*
X146913600Y-86258400D03*
X149961600Y-86258400D03*
X149961600Y-85242400D03*
X150977600Y-85242400D03*
X150977600Y-86258400D03*
X143865600Y-86766400D03*
X142849600Y-86766400D03*
X141833600Y-86766400D03*
X140817600Y-86766400D03*
X139801600Y-86766400D03*
X139801600Y-85750400D03*
X140817600Y-85750400D03*
X141833600Y-85750400D03*
X146913600Y-84226400D03*
X147929600Y-84226400D03*
X148945600Y-84226400D03*
X149961600Y-84226400D03*
X143865600Y-91338400D03*
X144881600Y-91338400D03*
X143865600Y-92354400D03*
X144881600Y-92354400D03*
X143865600Y-93370400D03*
X144881600Y-93370400D03*
X145897600Y-91338400D03*
X145897600Y-92354400D03*
X145897600Y-93370400D03*
X146913600Y-93370400D03*
X146913600Y-92354400D03*
X146913600Y-91338400D03*
X143865600Y-94386400D03*
X143865600Y-95402400D03*
X142849600Y-95402400D03*
X141833600Y-95402400D03*
X144881600Y-95402400D03*
X144881600Y-94386400D03*
X145897600Y-94386400D03*
X145897600Y-95402400D03*
X146913600Y-95402400D03*
X146913600Y-94386400D03*
X140817600Y-95402400D03*
X184302400Y-93370400D03*
X187553600Y-108610400D03*
X187553600Y-109626400D03*
X187553600Y-110642400D03*
X187553600Y-111658400D03*
X188569600Y-111658400D03*
X189585600Y-111658400D03*
X190601600Y-111658400D03*
X188569600Y-112674400D03*
X189585600Y-112674400D03*
X132689600Y-120294400D03*
X133705600Y-120294400D03*
X134721600Y-120294400D03*
X135737600Y-120294400D03*
X136753600Y-120294400D03*
X132689600Y-121310400D03*
X133705600Y-121310400D03*
X134721600Y-121310400D03*
X135737600Y-121310400D03*
X136753600Y-121310400D03*
X137769600Y-121310400D03*
X132689600Y-122326400D03*
X133705600Y-122326400D03*
X134721600Y-122326400D03*
X135737600Y-122326400D03*
X136753600Y-122326400D03*
X137769600Y-122326400D03*
X132689600Y-119278400D03*
X133705600Y-119278400D03*
X132689600Y-118262400D03*
X133705600Y-118262400D03*
X137769600Y-123342400D03*
X136753600Y-123342400D03*
X135737600Y-123342400D03*
X134721600Y-123342400D03*
X133705600Y-123342400D03*
X132689600Y-123342400D03*
X131673600Y-123342400D03*
X130657600Y-123342400D03*
X129641600Y-123342400D03*
X125069600Y-91846400D03*
X125577600Y-91338400D03*
X126085600Y-90830400D03*
X126593600Y-90322400D03*
X127101600Y-89814400D03*
X127609600Y-89306400D03*
X128117600Y-88798400D03*
X128625600Y-88290400D03*
X128625600Y-89306400D03*
X128117600Y-89814400D03*
X127609600Y-90322400D03*
X127101600Y-90830400D03*
X126593600Y-91338400D03*
X126085600Y-91846400D03*
X125577600Y-92354400D03*
X126085600Y-92862400D03*
X126593600Y-92354400D03*
X127101600Y-91846400D03*
X127609600Y-91338400D03*
X128117600Y-90830400D03*
X128625600Y-90322400D03*
X126593600Y-93370400D03*
X127101600Y-92862400D03*
X127609600Y-92354400D03*
X128117600Y-91846400D03*
X128625600Y-91338400D03*
X131165600Y-92354400D03*
X131673600Y-91846400D03*
X132181600Y-91338400D03*
X132689600Y-90830400D03*
X130657600Y-93878400D03*
X131165600Y-93370400D03*
X131673600Y-92862400D03*
X132181600Y-92354400D03*
X132689600Y-91846400D03*
X133197600Y-91338400D03*
X131165600Y-94386400D03*
X131673600Y-93878400D03*
X132181600Y-93370400D03*
X132689600Y-92862400D03*
X133197600Y-92354400D03*
X133705600Y-91846400D03*
X131673600Y-94894400D03*
X132181600Y-94386400D03*
X132689600Y-93878400D03*
X133197600Y-93370400D03*
X133705600Y-92862400D03*
X134213600Y-92354400D03*
X133705600Y-90830400D03*
X134213600Y-91338400D03*
X134721600Y-91846400D03*
X135229600Y-91338400D03*
X132181600Y-95402400D03*
X132689600Y-94894400D03*
X133197600Y-94386400D03*
X133705600Y-93878400D03*
X134213600Y-93370400D03*
X134721600Y-92862400D03*
X135229600Y-92354400D03*
X135737600Y-91846400D03*
X128117600Y-87782400D03*
X127609600Y-88290400D03*
X127101600Y-88798400D03*
X126593600Y-89306400D03*
X126085600Y-89814400D03*
X125577600Y-90322400D03*
X125069600Y-90830400D03*
X124561600Y-91338400D03*
X125526800Y-97942400D03*
X131673600Y-95910400D03*
X131165600Y-96418400D03*
X131165600Y-95402400D03*
X130657600Y-94894400D03*
X130149600Y-94386400D03*
X129641600Y-94894400D03*
X130149600Y-95402400D03*
X130657600Y-95910400D03*
X114401600Y-81178400D03*
X115417600Y-81178400D03*
X116433600Y-81178400D03*
X116433600Y-80162400D03*
X115417600Y-80162400D03*
X114401600Y-80162400D03*
X147929600Y-91338400D03*
X147929600Y-92354400D03*
X147929600Y-93370400D03*
X147929600Y-94386400D03*
X147929600Y-95402400D03*
X148945600Y-95402400D03*
X148945600Y-94386400D03*
X148945600Y-93370400D03*
X148945600Y-92354400D03*
X148945600Y-91338400D03*
X149961600Y-91338400D03*
X149961600Y-92354400D03*
X149961600Y-93370400D03*
X149961600Y-94386400D03*
X149961600Y-95402400D03*
X150977600Y-95402400D03*
X150977600Y-94386400D03*
X150977600Y-93370400D03*
X150977600Y-92354400D03*
X150977600Y-91338400D03*
X151993600Y-91338400D03*
X151993600Y-92354400D03*
X151993600Y-93370400D03*
X151993600Y-94386400D03*
X151993600Y-95402400D03*
X198221600Y-87274400D03*
X199237600Y-87274400D03*
X200253600Y-87274400D03*
X201269600Y-87274400D03*
X201269600Y-88290400D03*
X201269600Y-89306400D03*
X201269600Y-90322400D03*
X201269600Y-91338400D03*
X201269600Y-92354400D03*
X201269600Y-93370400D03*
X201269600Y-94386400D03*
X201269600Y-95402400D03*
X201269600Y-96418400D03*
X200253600Y-96418400D03*
X199237600Y-96418400D03*
X198221600Y-96418400D03*
X198221600Y-97434400D03*
X199237600Y-97434400D03*
X200253600Y-97434400D03*
X201269600Y-97434400D03*
X199237600Y-98450400D03*
X200253600Y-98450400D03*
X201269600Y-98450400D03*
X153009600Y-91338400D03*
X153009600Y-92354400D03*
X153009600Y-93370400D03*
X153009600Y-94386400D03*
X153009600Y-95402400D03*
X154025600Y-95402400D03*
X154025600Y-94386400D03*
X154025600Y-93370400D03*
X154025600Y-92354400D03*
X154025600Y-91338400D03*
X155041600Y-91338400D03*
X155041600Y-92354400D03*
X155041600Y-93370400D03*
X155041600Y-94386400D03*
X155041600Y-95402400D03*
X156057600Y-94386400D03*
X157073600Y-94386400D03*
X157073600Y-93370400D03*
X156057600Y-93370400D03*
X156057600Y-92354400D03*
X157073600Y-92354400D03*
X157073600Y-91338400D03*
X156057600Y-91338400D03*
X158089600Y-91338400D03*
X158089600Y-92354400D03*
X158089600Y-93370400D03*
X158089600Y-94386400D03*
X159105600Y-94386400D03*
X159105600Y-93370400D03*
X159105600Y-92354400D03*
X159105600Y-91338400D03*
X160121600Y-91338400D03*
X160121600Y-92354400D03*
X160121600Y-93370400D03*
X160121600Y-94386400D03*
X161137600Y-94386400D03*
X161137600Y-93370400D03*
X161137600Y-92354400D03*
X161137600Y-91338400D03*
X162153600Y-91338400D03*
X162153600Y-92354400D03*
X162153600Y-93370400D03*
X162153600Y-94386400D03*
X163169600Y-94386400D03*
X163169600Y-93370400D03*
X163169600Y-92354400D03*
X163169600Y-91338400D03*
X164185600Y-91338400D03*
X164185600Y-92354400D03*
X164185600Y-93370400D03*
X164185600Y-94386400D03*
X165201600Y-94386400D03*
X165201600Y-93370400D03*
X165201600Y-92354400D03*
X165201600Y-91338400D03*
X166217600Y-91338400D03*
X166217600Y-92354400D03*
X166217600Y-93370400D03*
X166217600Y-94386400D03*
X167233600Y-91338400D03*
X167233600Y-92354400D03*
X167233600Y-93370400D03*
X167233600Y-94386400D03*
X166217600Y-95402400D03*
X167233600Y-95402400D03*
X166217600Y-96418400D03*
X167233600Y-96418400D03*
X167233600Y-97434400D03*
X166217600Y-97434400D03*
X166217600Y-98450400D03*
X167233600Y-98450400D03*
X165201600Y-98450400D03*
X164185600Y-98450400D03*
X163169600Y-98450400D03*
X162153600Y-98450400D03*
X161137600Y-98450400D03*
X160121600Y-98450400D03*
X159105600Y-98450400D03*
X158089600Y-98450400D03*
X157073600Y-98450400D03*
X156057600Y-98450400D03*
X155041600Y-98450400D03*
X154025600Y-98450400D03*
X155041600Y-97434400D03*
X154025600Y-97434400D03*
X153009600Y-97434400D03*
X153009600Y-98450400D03*
X151993600Y-97434400D03*
X151993600Y-98450400D03*
X150977600Y-97434400D03*
X150977600Y-98450400D03*
X149961600Y-98450400D03*
X149961600Y-97434400D03*
X148945600Y-97434400D03*
X148945600Y-98450400D03*
X147929600Y-97434400D03*
X146913600Y-97434400D03*
X145897600Y-97434400D03*
X144881600Y-97434400D03*
X143865600Y-97434400D03*
X142849600Y-97434400D03*
X142849600Y-98450400D03*
X143865600Y-98450400D03*
X144881600Y-98450400D03*
X145897600Y-98450400D03*
X146913600Y-98450400D03*
X147929600Y-98450400D03*
X168249600Y-92354400D03*
X168249600Y-93370400D03*
X168249600Y-94386400D03*
X168249600Y-95402400D03*
X168249600Y-96418400D03*
X168249600Y-97434400D03*
X168249600Y-98450400D03*
X193141600Y-127406400D03*
X193141600Y-128422400D03*
X193141600Y-129438400D03*
X193141600Y-130454400D03*
X192125600Y-130454400D03*
X192125600Y-129438400D03*
X192125600Y-128422400D03*
X192125600Y-127406400D03*
X191109600Y-127406400D03*
X191109600Y-128422400D03*
X191109600Y-129438400D03*
X191109600Y-130454400D03*
X169265600Y-93370400D03*
X169265600Y-94386400D03*
X169265600Y-95402400D03*
X169265600Y-96418400D03*
X169265600Y-97434400D03*
X169265600Y-98450400D03*
X170281600Y-98450400D03*
X170281600Y-97434400D03*
X170281600Y-96418400D03*
X170281600Y-95402400D03*
X170281600Y-94386400D03*
X171297600Y-95402400D03*
X171297600Y-96418400D03*
X171297600Y-97434400D03*
X171297600Y-98450400D03*
X172313600Y-96418400D03*
X172313600Y-97434400D03*
X172313600Y-98450400D03*
X173329600Y-97434400D03*
X173329600Y-98450400D03*
X176885600Y-90830400D03*
X176885600Y-89814400D03*
X175869600Y-89814400D03*
X175869600Y-88798400D03*
X165201600Y-75082400D03*
X165201600Y-76098400D03*
X166217600Y-75082400D03*
X166217600Y-76098400D03*
X165201600Y-77114400D03*
X166217600Y-77114400D03*
X165201600Y-78130400D03*
X166217600Y-78130400D03*
X166217600Y-79146400D03*
X165201600Y-79146400D03*
X164185600Y-79146400D03*
X163169600Y-79146400D03*
X163169600Y-80162400D03*
X164185600Y-80162400D03*
X165201600Y-80162400D03*
X166217600Y-80162400D03*
X170281600Y-75082400D03*
X171297600Y-75082400D03*
X172313600Y-75082400D03*
X172313600Y-76098400D03*
X170281600Y-76098400D03*
X171297600Y-76098400D03*
X170281600Y-77114400D03*
X171297600Y-77114400D03*
X172313600Y-77114400D03*
X172313600Y-78130400D03*
X171297600Y-78130400D03*
X170281600Y-78130400D03*
X170281600Y-79146400D03*
X171297600Y-79146400D03*
X172313600Y-79146400D03*
X170281600Y-80162400D03*
X171297600Y-80162400D03*
X172313600Y-80162400D03*
X170281600Y-81178400D03*
X171297600Y-81178400D03*
X106781600Y-86766400D03*
X105765600Y-86766400D03*
X104749600Y-86766400D03*
X104749600Y-85750400D03*
X105765600Y-85750400D03*
X106781600Y-85750400D03*
X104749600Y-84734400D03*
X105765600Y-84734400D03*
X106781600Y-84734400D03*
X106781600Y-83718400D03*
X104749600Y-83718400D03*
X105765600Y-83718400D03*
X105765600Y-82702400D03*
X105765600Y-81686400D03*
X106781600Y-81686400D03*
X106781600Y-82702400D03*
X105765600Y-80670400D03*
X106781600Y-80670400D03*
X104749600Y-87782400D03*
X105765600Y-87782400D03*
X105765600Y-88798400D03*
X104749600Y-88798400D03*
X104749600Y-89814400D03*
X105765600Y-89814400D03*
X104749600Y-92862400D03*
X105765600Y-92862400D03*
X104749600Y-93878400D03*
X105765600Y-93878400D03*
X105765600Y-94894400D03*
X104749600Y-94894400D03*
X104749600Y-95910400D03*
X105765600Y-95910400D03*
X104749600Y-96926400D03*
X105765600Y-96926400D03*
X106781600Y-96926400D03*
X107797600Y-96926400D03*
X108813600Y-96926400D03*
X104749600Y-97942400D03*
X105765600Y-97942400D03*
X106781600Y-97942400D03*
X107797600Y-97942400D03*
X108813600Y-97942400D03*
X104749600Y-98958400D03*
X105765600Y-98958400D03*
X106781600Y-98958400D03*
X107797600Y-98958400D03*
X108813600Y-98958400D03*
X109829600Y-98958400D03*
X110845600Y-98958400D03*
X105765600Y-99974400D03*
X106781600Y-99974400D03*
X107797600Y-99974400D03*
X104749600Y-99974400D03*
X108813600Y-99974400D03*
X109829600Y-99974400D03*
X110845600Y-99974400D03*
X105765600Y-100990400D03*
X104749600Y-100990400D03*
X106781600Y-100990400D03*
X107797600Y-100990400D03*
X108813600Y-100990400D03*
X109829600Y-100990400D03*
X110845600Y-100990400D03*
X111861600Y-100990400D03*
X111861600Y-99974400D03*
X105765600Y-102006400D03*
X106781600Y-102006400D03*
X107797600Y-102006400D03*
X108813600Y-102006400D03*
X109829600Y-102006400D03*
X110845600Y-102006400D03*
X111861600Y-102006400D03*
X105765600Y-103022400D03*
X106781600Y-103022400D03*
X107797600Y-103022400D03*
X108813600Y-103022400D03*
X109829600Y-103022400D03*
X110845600Y-103022400D03*
X111861600Y-103022400D03*
X112877600Y-100990400D03*
X112877600Y-102006400D03*
X112877600Y-103022400D03*
X105765600Y-104038400D03*
X106781600Y-104038400D03*
X107797600Y-104038400D03*
X108813600Y-104038400D03*
X109829600Y-104038400D03*
X110845600Y-104038400D03*
X111861600Y-104038400D03*
X112877600Y-104038400D03*
X106781600Y-105054400D03*
X107797600Y-105054400D03*
X108813600Y-105054400D03*
X109829600Y-105054400D03*
X110845600Y-105054400D03*
X111861600Y-105054400D03*
X112877600Y-105054400D03*
X114401600Y-104546400D03*
X115417600Y-104546400D03*
X116433600Y-104546400D03*
X114401600Y-105562400D03*
X115417600Y-105562400D03*
X116433600Y-105562400D03*
X117449600Y-105562400D03*
X105765600Y-79654400D03*
X106781600Y-79654400D03*
X109321600Y-81178400D03*
X109321600Y-82194400D03*
X109321600Y-83210400D03*
X109321600Y-84226400D03*
X109321600Y-85242400D03*
X109321600Y-86258400D03*
X111861600Y-81178400D03*
X111861600Y-82194400D03*
X111861600Y-83210400D03*
X111861600Y-84226400D03*
X111861600Y-85242400D03*
X111861600Y-86258400D03*
X125069600Y-67462400D03*
X126085600Y-67462400D03*
X127101600Y-67462400D03*
X127101600Y-66446400D03*
X126085600Y-66446400D03*
X125069600Y-66446400D03*
X125069600Y-65430400D03*
X126085600Y-65430400D03*
X127101600Y-65430400D03*
X127101600Y-64414400D03*
X126085600Y-64414400D03*
X125069600Y-64414400D03*
X124053600Y-64414400D03*
X124053600Y-65430400D03*
X123037600Y-65430400D03*
X123037600Y-64414400D03*
X127101600Y-63398400D03*
X126085600Y-63398400D03*
X125069600Y-63398400D03*
X124053600Y-63398400D03*
X123037600Y-63398400D03*
X122021600Y-63398400D03*
X122021600Y-64414400D03*
X122021600Y-62382400D03*
X123037600Y-62382400D03*
X124053600Y-62382400D03*
X125069600Y-62382400D03*
X126085600Y-62382400D03*
X127101600Y-62382400D03*
X122021600Y-61366400D03*
X123037600Y-61366400D03*
X124053600Y-61366400D03*
X125069600Y-61366400D03*
X126085600Y-61366400D03*
X127101600Y-61366400D03*
X122021600Y-60350400D03*
X123037600Y-60350400D03*
X124053600Y-60350400D03*
X125069600Y-60350400D03*
X126085600Y-60350400D03*
X127101600Y-60350400D03*
X122021600Y-59334400D03*
X123037600Y-59334400D03*
X124053600Y-59334400D03*
X125069600Y-59334400D03*
X126085600Y-59334400D03*
X127101600Y-59334400D03*
X128117600Y-59334400D03*
X129133600Y-59334400D03*
X130149600Y-59334400D03*
X123037600Y-58318400D03*
X124053600Y-58318400D03*
X125069600Y-58318400D03*
X126085600Y-58318400D03*
X127101600Y-58318400D03*
X128117600Y-58318400D03*
X129133600Y-58318400D03*
X130149600Y-58318400D03*
X124053600Y-57302400D03*
X125069600Y-57302400D03*
X126085600Y-57302400D03*
X127101600Y-57302400D03*
X128117600Y-57302400D03*
X129133600Y-57302400D03*
X126085600Y-56286400D03*
X127101600Y-56286400D03*
X128117600Y-56286400D03*
X129133600Y-56286400D03*
X121005600Y-60350400D03*
X119989600Y-60350400D03*
X121005600Y-61366400D03*
X119989600Y-61366400D03*
X118973600Y-61366400D03*
X117957600Y-62382400D03*
X117957600Y-61366400D03*
X118973600Y-62382400D03*
X116941600Y-62382400D03*
X119989600Y-62382400D03*
X121005600Y-62382400D03*
X121005600Y-63398400D03*
X119989600Y-63398400D03*
X118973600Y-63398400D03*
X117957600Y-63398400D03*
X116941600Y-63398400D03*
X117957600Y-64414400D03*
X118973600Y-64414400D03*
X119989600Y-64414400D03*
X121005600Y-64414400D03*
X119989600Y-65430400D03*
X121005600Y-65430400D03*
X121005600Y-66446400D03*
X119989600Y-66446400D03*
X119989600Y-67462400D03*
X111861600Y-67462400D03*
X112877600Y-67462400D03*
X113893600Y-67462400D03*
X113893600Y-68478400D03*
X112877600Y-68478400D03*
X111861600Y-68478400D03*
X111861600Y-69494400D03*
X112877600Y-69494400D03*
X113893600Y-69494400D03*
X109829600Y-70510400D03*
X110845600Y-70510400D03*
X111861600Y-70510400D03*
X111861600Y-71526400D03*
X110845600Y-71526400D03*
X109829600Y-71526400D03*
X109829600Y-72542400D03*
X110845600Y-72542400D03*
X111861600Y-72542400D03*
X111861600Y-73558400D03*
X110845600Y-73558400D03*
X109829600Y-73558400D03*
X106781600Y-78638400D03*
X107797600Y-78638400D03*
X108813600Y-77622400D03*
X107797600Y-77622400D03*
X106781600Y-77622400D03*
X106781600Y-76606400D03*
X107797600Y-76606400D03*
X108813600Y-76606400D03*
X107797600Y-75590400D03*
X108813600Y-75590400D03*
X107797600Y-74574400D03*
X108813600Y-74574400D03*
X177901600Y-82194400D03*
X178917600Y-82194400D03*
X179933600Y-82194400D03*
X180949600Y-82194400D03*
X181965600Y-82194400D03*
X182981600Y-82194400D03*
X183997600Y-82194400D03*
X185013600Y-82194400D03*
X186029600Y-82194400D03*
X186029600Y-83210400D03*
X185013600Y-83210400D03*
X183997600Y-83210400D03*
X182981600Y-83210400D03*
X181965600Y-83210400D03*
X180949600Y-83210400D03*
X179933600Y-83210400D03*
X178917600Y-83210400D03*
X177901600Y-83210400D03*
X177901600Y-84226400D03*
X178917600Y-84226400D03*
X179933600Y-84226400D03*
X180949600Y-84226400D03*
X181965600Y-84226400D03*
X182981600Y-84226400D03*
X183997600Y-84226400D03*
X185013600Y-84226400D03*
X186029600Y-84226400D03*
X186029600Y-85242400D03*
X185013600Y-85242400D03*
X183997600Y-85242400D03*
X182981600Y-85242400D03*
X181965600Y-85242400D03*
X180949600Y-85242400D03*
X179933600Y-85242400D03*
X178917600Y-85242400D03*
X177901600Y-85242400D03*
X177901600Y-86258400D03*
X178917600Y-86258400D03*
X179933600Y-86258400D03*
X180949600Y-86258400D03*
X181965600Y-86258400D03*
X182981600Y-86258400D03*
X183997600Y-86258400D03*
X185013600Y-86258400D03*
X186029600Y-86258400D03*
X191109600Y-82194400D03*
X191109600Y-83210400D03*
X175869600Y-79146400D03*
X176885600Y-79146400D03*
X177901600Y-79146400D03*
X178917600Y-79146400D03*
X179933600Y-79146400D03*
X180949600Y-79146400D03*
X181965600Y-79146400D03*
X182981600Y-79146400D03*
X183997600Y-79146400D03*
X185013600Y-79146400D03*
X186029600Y-79146400D03*
X186029600Y-78130400D03*
X185013600Y-78130400D03*
X183997600Y-78130400D03*
X182981600Y-78130400D03*
X181965600Y-78130400D03*
X180949600Y-78130400D03*
X179933600Y-78130400D03*
X178917600Y-78130400D03*
X175869600Y-78130400D03*
X176885600Y-78130400D03*
X177901600Y-78130400D03*
X175869600Y-77114400D03*
X176885600Y-77114400D03*
X177901600Y-77114400D03*
X178917600Y-77114400D03*
X179933600Y-77114400D03*
X180949600Y-77114400D03*
X181965600Y-77114400D03*
X182981600Y-77114400D03*
X183997600Y-77114400D03*
X185013600Y-77114400D03*
X186029600Y-77114400D03*
X186029600Y-76098400D03*
X185013600Y-76098400D03*
X183997600Y-76098400D03*
X175869600Y-76098400D03*
X176885600Y-76098400D03*
X177901600Y-76098400D03*
X178917600Y-76098400D03*
X179933600Y-76098400D03*
X180949600Y-76098400D03*
X181965600Y-76098400D03*
X182981600Y-76098400D03*
X176885600Y-75082400D03*
X177901600Y-75082400D03*
X178917600Y-75082400D03*
X179933600Y-75082400D03*
X180949600Y-75082400D03*
X181965600Y-75082400D03*
X182981600Y-75082400D03*
X183997600Y-75082400D03*
X185013600Y-75082400D03*
X186029600Y-75082400D03*
X177901600Y-74066400D03*
X178917600Y-74066400D03*
X179933600Y-74066400D03*
X180949600Y-74066400D03*
X181965600Y-74066400D03*
X182981600Y-74066400D03*
X183997600Y-74066400D03*
X185013600Y-74066400D03*
X186029600Y-74066400D03*
X119481600Y-97942400D03*
X119481600Y-98958400D03*
X120497600Y-97942400D03*
X120497600Y-98958400D03*
X119481600Y-99974400D03*
X120497600Y-99974400D03*
X121513600Y-97942400D03*
X121513600Y-98958400D03*
X120497600Y-100990400D03*
X114401600Y-95910400D03*
X115417600Y-95910400D03*
X121513600Y-102006400D03*
X122529600Y-102006400D03*
X123545600Y-102006400D03*
X123545600Y-103022400D03*
X122529600Y-103022400D03*
X170789600Y-90322400D03*
X170789600Y-89306400D03*
X169773600Y-89306400D03*
X169773600Y-88290400D03*
X168757600Y-88290400D03*
X165709600Y-87782400D03*
X166725600Y-87782400D03*
X167741600Y-87782400D03*
X180441600Y-88798400D03*
X181457600Y-88798400D03*
X182473600Y-89814400D03*
X182473600Y-90830400D03*
X190093600Y-114706400D03*
X190093600Y-115722400D03*
X190093600Y-116738400D03*
X140309600Y-108102400D03*
X141325600Y-108102400D03*
X142341600Y-108102400D03*
X143357600Y-108102400D03*
X144373600Y-108102400D03*
X145389600Y-108102400D03*
X146405600Y-108102400D03*
X147421600Y-108102400D03*
X148437600Y-108102400D03*
X149453600Y-108102400D03*
X150469600Y-108102400D03*
X151485600Y-108102400D03*
X140309600Y-109118400D03*
X141325600Y-109118400D03*
X142341600Y-109118400D03*
X143357600Y-109118400D03*
X144373600Y-109118400D03*
X145389600Y-109118400D03*
X146405600Y-109118400D03*
X147421600Y-109118400D03*
X148437600Y-109118400D03*
X149453600Y-109118400D03*
X150469600Y-109118400D03*
X151485600Y-109118400D03*
X140309600Y-110134400D03*
X141325600Y-110134400D03*
X142341600Y-110134400D03*
X143357600Y-110134400D03*
X144373600Y-110134400D03*
X145389600Y-110134400D03*
X146405600Y-110134400D03*
X147421600Y-110134400D03*
X148437600Y-110134400D03*
X149453600Y-110134400D03*
X150469600Y-110134400D03*
X151485600Y-110134400D03*
X140309600Y-111150400D03*
X141325600Y-111150400D03*
X142341600Y-111150400D03*
X143357600Y-111150400D03*
X144373600Y-111150400D03*
X145389600Y-111150400D03*
X146405600Y-111150400D03*
X147421600Y-111150400D03*
X148437600Y-111150400D03*
X149453600Y-111150400D03*
X150469600Y-111150400D03*
X151485600Y-111150400D03*
X140309600Y-112166400D03*
X141325600Y-112166400D03*
X142341600Y-112166400D03*
X143357600Y-112166400D03*
X144373600Y-112166400D03*
X145389600Y-112166400D03*
X146405600Y-112166400D03*
X147421600Y-112166400D03*
X148437600Y-112166400D03*
X149453600Y-112166400D03*
X150469600Y-112166400D03*
X140309600Y-113182400D03*
X141325600Y-113182400D03*
X142341600Y-113182400D03*
X143357600Y-113182400D03*
X144373600Y-113182400D03*
X145389600Y-113182400D03*
X146405600Y-113182400D03*
X147421600Y-113182400D03*
X148437600Y-113182400D03*
X149453600Y-113182400D03*
X141325600Y-114198400D03*
X142341600Y-114198400D03*
X143357600Y-114198400D03*
X144373600Y-114198400D03*
X145389600Y-114198400D03*
X152501600Y-108102400D03*
X152501600Y-109118400D03*
X152501600Y-110134400D03*
X153517600Y-108102400D03*
X153517600Y-109118400D03*
X146405600Y-114198400D03*
X147421600Y-114198400D03*
X148437600Y-114198400D03*
X143357600Y-115214400D03*
X144373600Y-115214400D03*
X145389600Y-115214400D03*
X146405600Y-115214400D03*
X147421600Y-115214400D03*
X143357600Y-116230400D03*
X144373600Y-116230400D03*
X145389600Y-116230400D03*
X146405600Y-116230400D03*
X143357600Y-117246400D03*
X144373600Y-117246400D03*
X145389600Y-117246400D03*
X143357600Y-118262400D03*
X144373600Y-118262400D03*
X143357600Y-119278400D03*
X154533600Y-108102400D03*
X116941600Y-119278400D03*
X117957600Y-119278400D03*
X118973600Y-119278400D03*
X119989600Y-119278400D03*
X117957600Y-120294400D03*
X118973600Y-120294400D03*
X119989600Y-120294400D03*
X118973600Y-121310400D03*
X119989600Y-121310400D03*
X121005600Y-119278400D03*
X122021600Y-119278400D03*
X121005600Y-120294400D03*
X122021600Y-120294400D03*
X121005600Y-121310400D03*
X122021600Y-121310400D03*
X123037600Y-119278400D03*
X123037600Y-120294400D03*
X123037600Y-121310400D03*
X124053600Y-121310400D03*
X124053600Y-119278400D03*
X124053600Y-120294400D03*
X119989600Y-122326400D03*
X121005600Y-122326400D03*
X122021600Y-122326400D03*
X123037600Y-122326400D03*
X124053600Y-122326400D03*
X121005600Y-123342400D03*
X122021600Y-123342400D03*
X123037600Y-123342400D03*
X124053600Y-123342400D03*
X123037600Y-124358400D03*
X124053600Y-124358400D03*
X125069600Y-123342400D03*
X126085600Y-123342400D03*
X127101600Y-123342400D03*
X125069600Y-124358400D03*
X126085600Y-124358400D03*
X127101600Y-124358400D03*
X122021600Y-124358400D03*
X116941600Y-120294400D03*
X117957600Y-121310400D03*
X106781600Y-106070400D03*
X107797600Y-106070400D03*
X108813600Y-106070400D03*
X108813600Y-107086400D03*
X107797600Y-107086400D03*
X107797600Y-108102400D03*
X108813600Y-108102400D03*
X108305600Y-109118400D03*
X109321600Y-109118400D03*
X110337600Y-109118400D03*
X111353600Y-109118400D03*
X109321600Y-110134400D03*
X110337600Y-110134400D03*
X111353600Y-110134400D03*
X109321600Y-111150400D03*
X110337600Y-111150400D03*
X111353600Y-111150400D03*
X110337600Y-112166400D03*
X111353600Y-112166400D03*
X112369600Y-112166400D03*
X110337600Y-113182400D03*
X111353600Y-113182400D03*
X112369600Y-113182400D03*
X111353600Y-114198400D03*
X112369600Y-114198400D03*
X113385600Y-114198400D03*
X112369600Y-115214400D03*
X113385600Y-115214400D03*
X114401600Y-115214400D03*
X114401600Y-114198400D03*
X113385600Y-113182400D03*
X176885600Y-104038400D03*
X177901600Y-104038400D03*
X178917600Y-104038400D03*
X179933600Y-104038400D03*
X180949600Y-104038400D03*
X181965600Y-104038400D03*
X181965600Y-103022400D03*
X182981600Y-103022400D03*
X182981600Y-104038400D03*
X183997600Y-104038400D03*
X183997600Y-103022400D03*
X185013600Y-103022400D03*
X185013600Y-104038400D03*
X182981600Y-102006400D03*
X183997600Y-102006400D03*
X185013600Y-102006400D03*
X183997600Y-100990400D03*
X185013600Y-100990400D03*
X183997600Y-99974400D03*
X183997600Y-98958400D03*
X183997600Y-97942400D03*
X183997600Y-97942400D03*
X193649600Y-108610400D03*
X193649600Y-109626400D03*
X193649600Y-110642400D03*
X189077600Y-114706400D03*
X189077600Y-115722400D03*
X189077600Y-116738400D03*
X189077600Y-119786400D03*
X189077600Y-120802400D03*
X189077600Y-121818400D03*
X189077600Y-122834400D03*
X191617600Y-124358400D03*
X192633600Y-124358400D03*
X192633600Y-123342400D03*
X191617600Y-123342400D03*
X191617600Y-122326400D03*
X192633600Y-122326400D03*
X133705600Y-103530400D03*
X134721600Y-103530400D03*
X135737600Y-103530400D03*
X136753600Y-103530400D03*
X137769600Y-103530400D03*
X133705600Y-104546400D03*
X134721600Y-104546400D03*
X135737600Y-104546400D03*
X136753600Y-104546400D03*
X137769600Y-104546400D03*
X134721600Y-102514400D03*
X135737600Y-102514400D03*
X136753600Y-102514400D03*
X114401600Y-97942400D03*
X133705600Y-110642400D03*
X134721600Y-110642400D03*
X135737600Y-110642400D03*
X136753600Y-110642400D03*
X133705600Y-111658400D03*
X134721600Y-111658400D03*
X135737600Y-111658400D03*
X136753600Y-111658400D03*
X134721600Y-112674400D03*
X135737600Y-112674400D03*
X136753600Y-112674400D03*
X113385600Y-96926400D03*
X113385600Y-95910400D03*
X113385600Y-94894400D03*
X114401600Y-94894400D03*
X124053600Y-125374400D03*
X125069600Y-125374400D03*
X126085600Y-125374400D03*
X127101600Y-125374400D03*
X126085600Y-126390400D03*
X127101600Y-126390400D03*
X118973600Y-71526400D03*
X119989600Y-71526400D03*
X118465600Y-72542400D03*
X119481600Y-72542400D03*
X120497600Y-72542400D03*
X118465600Y-73558400D03*
X119481600Y-73558400D03*
X120497600Y-73558400D03*
X118465600Y-74574400D03*
X119481600Y-74574400D03*
X120497600Y-74574400D03*
X118465600Y-75590400D03*
X119481600Y-75590400D03*
X118465600Y-76606400D03*
X119481600Y-76606400D03*
X120497600Y-75590400D03*
X114401600Y-77622400D03*
X115417600Y-77622400D03*
X116433600Y-77622400D03*
X112877600Y-70510400D03*
X113893600Y-70510400D03*
X114909600Y-68478400D03*
X114909600Y-69494400D03*
X114909600Y-70510400D03*
X115925600Y-70510400D03*
X115925600Y-69494400D03*
X128117600Y-123342400D03*
X128117600Y-124358400D03*
X128117600Y-125374400D03*
X128117600Y-126390400D03*
X129133600Y-124358400D03*
X129133600Y-125374400D03*
X129133600Y-126390400D03*
X129133600Y-127406400D03*
X128117600Y-127406400D03*
X135229600Y-126898400D03*
X136245600Y-126898400D03*
X137261600Y-126898400D03*
X138277600Y-126898400D03*
X139293600Y-126898400D03*
X140309600Y-126898400D03*
X141325600Y-126898400D03*
X142341600Y-126898400D03*
X143357600Y-126898400D03*
X144373600Y-126898400D03*
X145389600Y-126898400D03*
X146405600Y-126898400D03*
X147421600Y-126898400D03*
X148437600Y-126898400D03*
X149453600Y-126898400D03*
X150469600Y-126898400D03*
X151485600Y-126898400D03*
X152501600Y-126898400D03*
X153517600Y-126898400D03*
X154533600Y-126898400D03*
X155549600Y-126898400D03*
X135229600Y-127914400D03*
X136245600Y-127914400D03*
X137261600Y-127914400D03*
X138277600Y-127914400D03*
X139293600Y-127914400D03*
X140309600Y-127914400D03*
X141325600Y-127914400D03*
X142341600Y-127914400D03*
X143357600Y-127914400D03*
X144373600Y-127914400D03*
X145389600Y-127914400D03*
X146405600Y-127914400D03*
X147421600Y-127914400D03*
X148437600Y-127914400D03*
X149453600Y-127914400D03*
X150469600Y-127914400D03*
X151485600Y-127914400D03*
X152501600Y-127914400D03*
X153517600Y-127914400D03*
X154533600Y-127914400D03*
X155549600Y-127914400D03*
X135229600Y-128930400D03*
X136245600Y-128930400D03*
X137261600Y-128930400D03*
X138277600Y-128930400D03*
X139293600Y-128930400D03*
X140309600Y-128930400D03*
X141325600Y-128930400D03*
X142341600Y-128930400D03*
X143357600Y-128930400D03*
X144373600Y-128930400D03*
X145389600Y-128930400D03*
X146405600Y-128930400D03*
X147421600Y-128930400D03*
X148437600Y-128930400D03*
X149453600Y-128930400D03*
X150469600Y-128930400D03*
X151485600Y-128930400D03*
X152501600Y-128930400D03*
X153517600Y-128930400D03*
X154533600Y-128930400D03*
X155549600Y-128930400D03*
X138277600Y-129946400D03*
X139293600Y-129946400D03*
X140309600Y-129946400D03*
X141325600Y-129946400D03*
X142341600Y-129946400D03*
X143357600Y-129946400D03*
X144373600Y-129946400D03*
X145389600Y-129946400D03*
X146405600Y-129946400D03*
X147421600Y-129946400D03*
X148437600Y-129946400D03*
X149453600Y-129946400D03*
X150469600Y-129946400D03*
X151485600Y-129946400D03*
X152501600Y-129946400D03*
X153517600Y-129946400D03*
X154533600Y-129946400D03*
X155549600Y-129946400D03*
X139293600Y-125882400D03*
X140309600Y-125882400D03*
X142341600Y-125882400D03*
X141325600Y-125882400D03*
X143357600Y-125882400D03*
X144373600Y-125882400D03*
X145389600Y-125882400D03*
X146405600Y-125882400D03*
X147421600Y-125882400D03*
X148437600Y-125882400D03*
X149453600Y-125882400D03*
X150469600Y-125882400D03*
X151485600Y-125882400D03*
X152501600Y-125882400D03*
X153517600Y-125882400D03*
X154533600Y-125882400D03*
X155549600Y-125882400D03*
X140309600Y-124866400D03*
X141325600Y-124866400D03*
X142341600Y-124866400D03*
X143357600Y-124866400D03*
X144373600Y-124866400D03*
X145389600Y-124866400D03*
X146405600Y-124866400D03*
X147421600Y-124866400D03*
X148437600Y-124866400D03*
X149453600Y-124866400D03*
X150469600Y-124866400D03*
X151485600Y-124866400D03*
X152501600Y-124866400D03*
X153517600Y-124866400D03*
X154533600Y-124866400D03*
X155549600Y-124866400D03*
X141325600Y-123850400D03*
X142341600Y-123850400D03*
X143357600Y-123850400D03*
X144373600Y-123850400D03*
X145389600Y-123850400D03*
X146405600Y-123850400D03*
X147421600Y-123850400D03*
X148437600Y-123850400D03*
X149453600Y-123850400D03*
X150469600Y-123850400D03*
X151485600Y-123850400D03*
X152501600Y-123850400D03*
X153517600Y-123850400D03*
X154533600Y-123850400D03*
X155549600Y-123850400D03*
X145389600Y-122834400D03*
X146405600Y-122834400D03*
X147421600Y-122834400D03*
X148437600Y-122834400D03*
X149453600Y-122834400D03*
X150469600Y-122834400D03*
X151485600Y-122834400D03*
X152501600Y-122834400D03*
X153517600Y-122834400D03*
X154533600Y-122834400D03*
X155549600Y-122834400D03*
X146405600Y-121818400D03*
X147421600Y-121818400D03*
X148437600Y-121818400D03*
X149453600Y-121818400D03*
X150469600Y-121818400D03*
X151485600Y-121818400D03*
X152501600Y-121818400D03*
X153517600Y-121818400D03*
X154533600Y-121818400D03*
X155549600Y-121818400D03*
X147421600Y-120802400D03*
X148437600Y-120802400D03*
X149453600Y-120802400D03*
X150469600Y-120802400D03*
X151485600Y-120802400D03*
X152501600Y-120802400D03*
X153517600Y-120802400D03*
X154533600Y-120802400D03*
X155549600Y-120802400D03*
X148437600Y-119786400D03*
X149453600Y-119786400D03*
X150469600Y-119786400D03*
X151485600Y-119786400D03*
X152501600Y-119786400D03*
X153517600Y-119786400D03*
X154533600Y-119786400D03*
X155549600Y-119786400D03*
X149453600Y-118770400D03*
X150469600Y-118770400D03*
X151485600Y-118770400D03*
X152501600Y-118770400D03*
X153517600Y-118770400D03*
X154533600Y-118770400D03*
X155549600Y-118770400D03*
X150469600Y-117754400D03*
X151485600Y-117754400D03*
X152501600Y-117754400D03*
X153517600Y-117754400D03*
X154533600Y-117754400D03*
X155549600Y-117754400D03*
X156565600Y-117754400D03*
X157581600Y-117754400D03*
X158597600Y-117754400D03*
X159613600Y-117754400D03*
X160629600Y-117754400D03*
X161645600Y-117754400D03*
X162661600Y-117754400D03*
X163677600Y-117754400D03*
X164693600Y-117754400D03*
X165709600Y-117754400D03*
X166725600Y-117754400D03*
X167741600Y-117754400D03*
X168757600Y-117754400D03*
X169773600Y-117754400D03*
X170789600Y-117754400D03*
X171805600Y-117754400D03*
X172821600Y-117754400D03*
X173837600Y-117754400D03*
X174853600Y-117754400D03*
X175869600Y-117754400D03*
X176885600Y-117754400D03*
X177901600Y-117754400D03*
X178917600Y-117754400D03*
X179933600Y-117754400D03*
X180949600Y-117754400D03*
X181965600Y-117754400D03*
X182981600Y-117754400D03*
X183997600Y-117754400D03*
X185013600Y-117754400D03*
X186029600Y-117754400D03*
X183997600Y-118770400D03*
X185013600Y-118770400D03*
X186029600Y-118770400D03*
X183997600Y-119786400D03*
X185013600Y-119786400D03*
X186029600Y-119786400D03*
X183997600Y-120802400D03*
X185013600Y-120802400D03*
X186029600Y-120802400D03*
X183997600Y-121818400D03*
X185013600Y-121818400D03*
X186029600Y-121818400D03*
X183997600Y-122834400D03*
X185013600Y-122834400D03*
X186029600Y-122834400D03*
X183997600Y-123850400D03*
X185013600Y-123850400D03*
X186029600Y-123850400D03*
X183997600Y-124866400D03*
X185013600Y-124866400D03*
X186029600Y-124866400D03*
X183997600Y-125882400D03*
X185013600Y-125882400D03*
X186029600Y-125882400D03*
X183997600Y-126898400D03*
X185013600Y-126898400D03*
X186029600Y-126898400D03*
X183997600Y-127914400D03*
X183997600Y-128930400D03*
X183997600Y-129946400D03*
X151485600Y-116738400D03*
X152501600Y-116738400D03*
X153517600Y-116738400D03*
X154533600Y-116738400D03*
X155549600Y-116738400D03*
X156565600Y-116738400D03*
X157581600Y-116738400D03*
X158597600Y-116738400D03*
X159613600Y-116738400D03*
X160629600Y-116738400D03*
X161645600Y-116738400D03*
X162661600Y-116738400D03*
X163677600Y-116738400D03*
X164693600Y-116738400D03*
X165709600Y-116738400D03*
X166725600Y-116738400D03*
X167741600Y-116738400D03*
X168757600Y-116738400D03*
X169773600Y-116738400D03*
X170789600Y-116738400D03*
X171805600Y-116738400D03*
X172821600Y-116738400D03*
X173837600Y-116738400D03*
X174853600Y-116738400D03*
X175869600Y-116738400D03*
X176885600Y-116738400D03*
X177901600Y-116738400D03*
X178917600Y-116738400D03*
X179933600Y-116738400D03*
X180949600Y-116738400D03*
X181965600Y-116738400D03*
X182981600Y-116738400D03*
X183997600Y-116738400D03*
X185013600Y-116738400D03*
X186029600Y-116738400D03*
X152501600Y-115722400D03*
X153517600Y-115722400D03*
X154533600Y-115722400D03*
X155549600Y-115722400D03*
X156565600Y-115722400D03*
X157581600Y-115722400D03*
X158597600Y-115722400D03*
X159613600Y-115722400D03*
X160629600Y-115722400D03*
X161645600Y-115722400D03*
X162661600Y-115722400D03*
X163677600Y-115722400D03*
X164693600Y-115722400D03*
X165709600Y-115722400D03*
X166725600Y-115722400D03*
X170789600Y-115722400D03*
X171805600Y-115722400D03*
X172821600Y-115722400D03*
X173837600Y-115722400D03*
X174853600Y-115722400D03*
X175869600Y-115722400D03*
X176885600Y-115722400D03*
X177901600Y-115722400D03*
X178917600Y-115722400D03*
X179933600Y-115722400D03*
X180949600Y-115722400D03*
X181965600Y-115722400D03*
X182981600Y-115722400D03*
X153517600Y-114706400D03*
X154533600Y-114706400D03*
X155549600Y-114706400D03*
X156565600Y-114706400D03*
X157581600Y-114706400D03*
X158597600Y-114706400D03*
X159613600Y-114706400D03*
X160629600Y-114706400D03*
X161645600Y-114706400D03*
X162661600Y-114706400D03*
X163677600Y-114706400D03*
X164693600Y-114706400D03*
X165709600Y-114706400D03*
X170789600Y-114706400D03*
X171805600Y-114706400D03*
X172821600Y-114706400D03*
X173837600Y-114706400D03*
X174853600Y-114706400D03*
X175869600Y-114706400D03*
X176885600Y-114706400D03*
X177901600Y-114706400D03*
X178917600Y-114706400D03*
X179933600Y-114706400D03*
X171805600Y-114706400D03*
X172821600Y-114706400D03*
X173837600Y-114706400D03*
X174853600Y-114706400D03*
X175869600Y-114706400D03*
X176885600Y-114706400D03*
X177901600Y-114706400D03*
X178917600Y-114706400D03*
X179933600Y-114706400D03*
X180949600Y-114706400D03*
X181965600Y-114706400D03*
X182981600Y-114706400D03*
X170789600Y-112674400D03*
X171805600Y-112674400D03*
X172821600Y-112674400D03*
X173837600Y-112674400D03*
X174853600Y-112674400D03*
X175869600Y-112674400D03*
X176885600Y-112674400D03*
X177901600Y-112674400D03*
X178917600Y-112674400D03*
X179933600Y-112674400D03*
X180949600Y-112674400D03*
X181965600Y-112674400D03*
X182981600Y-112674400D03*
X170789600Y-113690400D03*
X171805600Y-113690400D03*
X172821600Y-113690400D03*
X173837600Y-113690400D03*
X174853600Y-113690400D03*
X175869600Y-113690400D03*
X176885600Y-113690400D03*
X177901600Y-113690400D03*
X178917600Y-113690400D03*
X179933600Y-113690400D03*
X180949600Y-113690400D03*
X181965600Y-113690400D03*
X182981600Y-113690400D03*
X154533600Y-113690400D03*
X155549600Y-113690400D03*
X156565600Y-113690400D03*
X157581600Y-113690400D03*
X158597600Y-113690400D03*
X159613600Y-113690400D03*
X160629600Y-113690400D03*
X161645600Y-113690400D03*
X162661600Y-113690400D03*
X163677600Y-113690400D03*
X164693600Y-113690400D03*
X165709600Y-113690400D03*
X155549600Y-112674400D03*
X156565600Y-112674400D03*
X157581600Y-112674400D03*
X158597600Y-112674400D03*
X159613600Y-112674400D03*
X160629600Y-112674400D03*
X161645600Y-112674400D03*
X162661600Y-112674400D03*
X163677600Y-112674400D03*
X164693600Y-112674400D03*
X165709600Y-112674400D03*
X156565600Y-111658400D03*
X157581600Y-111658400D03*
X158597600Y-111658400D03*
X159613600Y-111658400D03*
X160629600Y-111658400D03*
X161645600Y-111658400D03*
X162661600Y-111658400D03*
X163677600Y-111658400D03*
X164693600Y-111658400D03*
X165709600Y-111658400D03*
X166725600Y-111658400D03*
X167741600Y-111658400D03*
X168757600Y-111658400D03*
X169773600Y-111658400D03*
X170789600Y-111658400D03*
X171805600Y-111658400D03*
X172821600Y-111658400D03*
X173837600Y-111658400D03*
X174853600Y-111658400D03*
X175869600Y-111658400D03*
X176885600Y-111658400D03*
X177901600Y-111658400D03*
X178917600Y-111658400D03*
X179933600Y-111658400D03*
X180949600Y-111658400D03*
X181965600Y-111658400D03*
X182981600Y-111658400D03*
X157581600Y-110642400D03*
X158597600Y-110642400D03*
X159613600Y-110642400D03*
X160629600Y-110642400D03*
X161645600Y-110642400D03*
X162661600Y-110642400D03*
X163677600Y-110642400D03*
X164693600Y-110642400D03*
X165709600Y-110642400D03*
X166725600Y-110642400D03*
X167741600Y-110642400D03*
X168757600Y-110642400D03*
X169773600Y-110642400D03*
X170789600Y-110642400D03*
X171805600Y-110642400D03*
X172821600Y-110642400D03*
X173837600Y-110642400D03*
X174853600Y-110642400D03*
X175869600Y-110642400D03*
X176885600Y-110642400D03*
X177901600Y-110642400D03*
X178917600Y-110642400D03*
X179933600Y-110642400D03*
X180949600Y-110642400D03*
X181965600Y-110642400D03*
X166725600Y-112674400D03*
X169773600Y-112674400D03*
X135229600Y-53746400D03*
X136245600Y-53746400D03*
X137261600Y-53746400D03*
X138277600Y-53746400D03*
X139293600Y-53746400D03*
X140309600Y-53746400D03*
X141325600Y-53746400D03*
X142341600Y-53746400D03*
X143357600Y-53746400D03*
X144373600Y-53746400D03*
X145389600Y-53746400D03*
X146405600Y-53746400D03*
X147421600Y-53746400D03*
X148437600Y-53746400D03*
X149453600Y-53746400D03*
X150469600Y-53746400D03*
X151485600Y-53746400D03*
X135229600Y-54762400D03*
X136245600Y-54762400D03*
X137261600Y-54762400D03*
X138277600Y-54762400D03*
X139293600Y-54762400D03*
X140309600Y-54762400D03*
X141325600Y-54762400D03*
X142341600Y-54762400D03*
X143357600Y-54762400D03*
X144373600Y-54762400D03*
X145389600Y-54762400D03*
X146405600Y-54762400D03*
X147421600Y-54762400D03*
X148437600Y-54762400D03*
X149453600Y-54762400D03*
X150469600Y-54762400D03*
X151485600Y-54762400D03*
X135229600Y-55778400D03*
X136245600Y-55778400D03*
X137261600Y-55778400D03*
X138277600Y-55778400D03*
X139293600Y-55778400D03*
X140309600Y-55778400D03*
X141325600Y-55778400D03*
X142341600Y-55778400D03*
X143357600Y-55778400D03*
X144373600Y-55778400D03*
X145389600Y-55778400D03*
X146405600Y-55778400D03*
X147421600Y-55778400D03*
X148437600Y-55778400D03*
X149453600Y-55778400D03*
X150469600Y-55778400D03*
X151485600Y-55778400D03*
X135229600Y-56794400D03*
X136245600Y-56794400D03*
X137261600Y-56794400D03*
X138277600Y-56794400D03*
X139293600Y-56794400D03*
X140309600Y-56794400D03*
X141325600Y-56794400D03*
X142341600Y-56794400D03*
X143357600Y-56794400D03*
X144373600Y-56794400D03*
X145389600Y-56794400D03*
X146405600Y-56794400D03*
X147421600Y-56794400D03*
X148437600Y-56794400D03*
X149453600Y-56794400D03*
X150469600Y-56794400D03*
X151485600Y-56794400D03*
X135229600Y-57810400D03*
X136245600Y-57810400D03*
X137261600Y-57810400D03*
X138277600Y-57810400D03*
X139293600Y-57810400D03*
X140309600Y-57810400D03*
X141325600Y-57810400D03*
X142341600Y-57810400D03*
X143357600Y-57810400D03*
X144373600Y-57810400D03*
X145389600Y-57810400D03*
X146405600Y-57810400D03*
X147421600Y-57810400D03*
X148437600Y-57810400D03*
X149453600Y-57810400D03*
X150469600Y-57810400D03*
X151485600Y-57810400D03*
X135229600Y-58826400D03*
X136245600Y-58826400D03*
X137261600Y-58826400D03*
X138277600Y-58826400D03*
X139293600Y-58826400D03*
X140309600Y-58826400D03*
X141325600Y-58826400D03*
X142341600Y-58826400D03*
X143357600Y-58826400D03*
X144373600Y-58826400D03*
X145389600Y-58826400D03*
X146405600Y-58826400D03*
X147421600Y-58826400D03*
X148437600Y-58826400D03*
X149453600Y-58826400D03*
X150469600Y-58826400D03*
X151485600Y-58826400D03*
X155549600Y-53746400D03*
X155549600Y-54762400D03*
X155549600Y-55778400D03*
X155549600Y-56794400D03*
X155549600Y-57810400D03*
X155549600Y-58826400D03*
X139293600Y-59842400D03*
X140309600Y-59842400D03*
X141325600Y-59842400D03*
X142341600Y-59842400D03*
X143357600Y-59842400D03*
X144373600Y-59842400D03*
X145389600Y-59842400D03*
X146405600Y-59842400D03*
X147421600Y-59842400D03*
X148437600Y-59842400D03*
X149453600Y-59842400D03*
X150469600Y-59842400D03*
X151485600Y-59842400D03*
X140309600Y-60858400D03*
X141325600Y-60858400D03*
X142341600Y-60858400D03*
X143357600Y-60858400D03*
X144373600Y-60858400D03*
X145389600Y-60858400D03*
X146405600Y-60858400D03*
X147421600Y-60858400D03*
X148437600Y-60858400D03*
X149453600Y-60858400D03*
X150469600Y-60858400D03*
X151485600Y-60858400D03*
X141325600Y-61874400D03*
X142341600Y-61874400D03*
X143357600Y-61874400D03*
X144373600Y-61874400D03*
X145389600Y-61874400D03*
X146405600Y-61874400D03*
X147421600Y-61874400D03*
X148437600Y-61874400D03*
X149453600Y-61874400D03*
X150469600Y-61874400D03*
X151485600Y-61874400D03*
X143357600Y-62890400D03*
X144373600Y-62890400D03*
X145389600Y-62890400D03*
X146405600Y-62890400D03*
X147421600Y-62890400D03*
X148437600Y-62890400D03*
X149453600Y-62890400D03*
X143357600Y-63906400D03*
X144373600Y-63906400D03*
X145389600Y-63906400D03*
X146405600Y-63906400D03*
X147421600Y-63906400D03*
X148437600Y-63906400D03*
X143357600Y-64922400D03*
X144373600Y-64922400D03*
X145389600Y-64922400D03*
X146405600Y-64922400D03*
X147421600Y-64922400D03*
X143357600Y-65938400D03*
X144373600Y-65938400D03*
X145389600Y-65938400D03*
X146405600Y-65938400D03*
X147421600Y-65938400D03*
X155549600Y-59842400D03*
X155549600Y-60858400D03*
X155549600Y-61874400D03*
X157073600Y-70510400D03*
X158089600Y-70510400D03*
X159105600Y-70510400D03*
X160121600Y-70510400D03*
X161137600Y-70510400D03*
X162153600Y-70510400D03*
X163169600Y-70510400D03*
X164185600Y-70510400D03*
X164185600Y-69494400D03*
X163169600Y-69494400D03*
X162153600Y-69494400D03*
X161137600Y-69494400D03*
X160121600Y-69494400D03*
X160121600Y-68478400D03*
X161137600Y-68478400D03*
X162153600Y-68478400D03*
X163169600Y-68478400D03*
X164185600Y-68478400D03*
X165201600Y-68478400D03*
X165201600Y-69494400D03*
X166217600Y-68478400D03*
X166217600Y-69494400D03*
X160121600Y-67462400D03*
X161137600Y-67462400D03*
X162153600Y-67462400D03*
X163169600Y-67462400D03*
X164185600Y-67462400D03*
X165201600Y-67462400D03*
X166217600Y-67462400D03*
X160121600Y-66446400D03*
X161137600Y-66446400D03*
X162153600Y-66446400D03*
X163169600Y-66446400D03*
X164185600Y-66446400D03*
X165201600Y-66446400D03*
X166217600Y-66446400D03*
X159105600Y-66446400D03*
X158089600Y-66446400D03*
X157073600Y-66446400D03*
X157073600Y-65430400D03*
X158089600Y-65430400D03*
X159105600Y-65430400D03*
X157073600Y-64414400D03*
X157073600Y-64414400D03*
X158089600Y-64414400D03*
X159105600Y-64414400D03*
X160121600Y-64414400D03*
X160121600Y-65430400D03*
X161137600Y-64414400D03*
X162153600Y-64414400D03*
X163169600Y-64414400D03*
X164185600Y-64414400D03*
X165201600Y-64414400D03*
X166217600Y-64414400D03*
X167233600Y-64414400D03*
X168249600Y-64414400D03*
X169265600Y-64414400D03*
X170281600Y-64414400D03*
X171297600Y-64414400D03*
X172313600Y-64414400D03*
X173329600Y-64414400D03*
X174345600Y-64414400D03*
X175361600Y-64414400D03*
X176377600Y-64414400D03*
X177393600Y-64414400D03*
X178409600Y-64414400D03*
X179425600Y-64414400D03*
X180441600Y-64414400D03*
X161137600Y-65430400D03*
X162153600Y-65430400D03*
X163169600Y-65430400D03*
X164185600Y-65430400D03*
X165201600Y-65430400D03*
X166217600Y-65430400D03*
X167233600Y-65430400D03*
X168249600Y-65430400D03*
X169265600Y-65430400D03*
X170281600Y-65430400D03*
X171297600Y-65430400D03*
X172313600Y-65430400D03*
X173329600Y-65430400D03*
X174345600Y-65430400D03*
X175361600Y-65430400D03*
X176377600Y-65430400D03*
X177393600Y-65430400D03*
X178409600Y-65430400D03*
X179425600Y-65430400D03*
X180441600Y-65430400D03*
X167233600Y-66446400D03*
X169265600Y-66446400D03*
X170281600Y-66446400D03*
X171297600Y-66446400D03*
X172313600Y-66446400D03*
X173329600Y-66446400D03*
X174345600Y-66446400D03*
X175361600Y-66446400D03*
X176377600Y-66446400D03*
X177393600Y-66446400D03*
X178409600Y-66446400D03*
X179425600Y-66446400D03*
X170281600Y-67462400D03*
X171297600Y-67462400D03*
X172313600Y-67462400D03*
X173329600Y-67462400D03*
X174345600Y-67462400D03*
X175361600Y-67462400D03*
X176377600Y-67462400D03*
X177393600Y-67462400D03*
X178409600Y-67462400D03*
X171297600Y-68478400D03*
X172313600Y-68478400D03*
X173329600Y-68478400D03*
X174345600Y-68478400D03*
X175361600Y-68478400D03*
X176377600Y-68478400D03*
X177393600Y-68478400D03*
X170281600Y-69494400D03*
X171297600Y-69494400D03*
X172313600Y-69494400D03*
X173329600Y-69494400D03*
X174345600Y-69494400D03*
X175361600Y-69494400D03*
X176377600Y-69494400D03*
X183997600Y-52730400D03*
X185013600Y-52730400D03*
X183997600Y-53746400D03*
X185013600Y-53746400D03*
X183997600Y-54762400D03*
X185013600Y-54762400D03*
X183997600Y-55778400D03*
X185013600Y-55778400D03*
X183997600Y-56794400D03*
X185013600Y-56794400D03*
X183997600Y-57810400D03*
X185013600Y-57810400D03*
X183997600Y-58826400D03*
X185013600Y-58826400D03*
X183997600Y-59842400D03*
X185013600Y-59842400D03*
X183997600Y-60858400D03*
X185013600Y-60858400D03*
X183997600Y-61874400D03*
X186029600Y-52730400D03*
X187045600Y-52730400D03*
X188061600Y-52730400D03*
X189077600Y-52730400D03*
X190093600Y-52730400D03*
X189585600Y-68478400D03*
X189585600Y-69494400D03*
X189585600Y-67462400D03*
X190601600Y-67462400D03*
X191109600Y-63906400D03*
X192125600Y-63906400D03*
X192125600Y-64922400D03*
X193141600Y-63906400D03*
X193141600Y-64922400D03*
X194157600Y-63906400D03*
X134721600Y-67970400D03*
X135737600Y-67970400D03*
X136753600Y-67970400D03*
X137769600Y-67970400D03*
X137769600Y-68986400D03*
X136753600Y-68986400D03*
X135737600Y-68986400D03*
X134721600Y-68986400D03*
X117449600Y-109118400D03*
X118465600Y-109118400D03*
X119481600Y-109118400D03*
X120497600Y-109118400D03*
X121513600Y-109118400D03*
X122529600Y-109118400D03*
X123545600Y-109118400D03*
X124561600Y-110134400D03*
X124561600Y-111150400D03*
X117449600Y-110134400D03*
X118465600Y-110134400D03*
X118465600Y-110134400D03*
X119481600Y-110134400D03*
X116433600Y-110134400D03*
X117449600Y-111150400D03*
X118465600Y-111150400D03*
X119481600Y-111150400D03*
X118465600Y-112166400D03*
X119481600Y-112166400D03*
X114401600Y-87274400D03*
X157073600Y-78638400D03*
X158089600Y-78638400D03*
X159105600Y-78638400D03*
X160121600Y-78638400D03*
X157073600Y-79654400D03*
X158089600Y-79654400D03*
X159105600Y-79654400D03*
X160121600Y-79654400D03*
X157073600Y-80670400D03*
X158089600Y-80670400D03*
X159105600Y-80670400D03*
X160121600Y-80670400D03*
X196697600Y-113182400D03*
X197713600Y-113182400D03*
X191109600Y-52730400D03*
X192125600Y-52730400D03*
X193141600Y-52730400D03*
X194157600Y-52730400D03*
X195173600Y-52730400D03*
X196189600Y-52730400D03*
X197205600Y-52730400D03*
X198221600Y-52730400D03*
X199237600Y-52730400D03*
X200253600Y-52730400D03*
X201269600Y-52730400D03*
X191109600Y-53746400D03*
X192125600Y-53746400D03*
X193141600Y-53746400D03*
X194157600Y-53746400D03*
X195173600Y-53746400D03*
X196189600Y-53746400D03*
X197205600Y-53746400D03*
X198221600Y-53746400D03*
X199237600Y-53746400D03*
X200253600Y-53746400D03*
X201269600Y-53746400D03*
X191109600Y-54762400D03*
X192125600Y-54762400D03*
X193141600Y-54762400D03*
X194157600Y-54762400D03*
X195173600Y-54762400D03*
X196189600Y-54762400D03*
X197205600Y-54762400D03*
X198221600Y-54762400D03*
X199237600Y-54762400D03*
X200253600Y-54762400D03*
X201269600Y-54762400D03*
X191109600Y-55778400D03*
X192125600Y-55778400D03*
X193141600Y-55778400D03*
X194157600Y-55778400D03*
X200253600Y-55778400D03*
X201269600Y-55778400D03*
X191109600Y-56794400D03*
X192125600Y-56794400D03*
X193141600Y-56794400D03*
X201269600Y-56794400D03*
X201269600Y-57810400D03*
X191109600Y-57810400D03*
X192125600Y-57810400D03*
X193141600Y-57810400D03*
X191109600Y-58826400D03*
X192125600Y-58826400D03*
X193141600Y-58826400D03*
X194157600Y-58826400D03*
X194157600Y-57810400D03*
X194157600Y-56794400D03*
X201269600Y-58826400D03*
X201269600Y-59842400D03*
X201269600Y-60858400D03*
X201269600Y-61874400D03*
X201269600Y-62890400D03*
X201269600Y-63906400D03*
X201269600Y-64922400D03*
X201269600Y-65938400D03*
X201269600Y-66954400D03*
X201269600Y-67970400D03*
X201269600Y-68986400D03*
X201269600Y-70002400D03*
X201269600Y-71018400D03*
X201269600Y-72034400D03*
X201269600Y-73050400D03*
X201269600Y-74066400D03*
X200253600Y-74066400D03*
X199237600Y-74066400D03*
X198221600Y-74066400D03*
X197205600Y-74066400D03*
X198221600Y-73050400D03*
X199237600Y-73050400D03*
X200253600Y-73050400D03*
X199237600Y-72034400D03*
X200253600Y-72034400D03*
X200253600Y-71018400D03*
X200253600Y-70002400D03*
X200253600Y-68986400D03*
X200253600Y-65938400D03*
X200253600Y-63906400D03*
X200253600Y-58826400D03*
X197205600Y-75082400D03*
X197205600Y-76098400D03*
X197205600Y-77114400D03*
X197205600Y-78130400D03*
X197205600Y-79146400D03*
X197205600Y-80162400D03*
X201269600Y-75082400D03*
X201269600Y-76098400D03*
X201269600Y-77114400D03*
X201269600Y-78130400D03*
X201269600Y-79146400D03*
X201269600Y-102514400D03*
X201269600Y-103530400D03*
X201269600Y-104546400D03*
X200253600Y-102514400D03*
X199237600Y-102514400D03*
X199237600Y-103530400D03*
X200253600Y-103530400D03*
X199237600Y-104546400D03*
X200253600Y-104546400D03*
X201269600Y-108610400D03*
X200253600Y-108610400D03*
X199237600Y-108610400D03*
X199237600Y-109626400D03*
X200253600Y-109626400D03*
X201269600Y-109626400D03*
X201269600Y-110642400D03*
X200253600Y-110642400D03*
X199237600Y-110642400D03*
X200253600Y-111658400D03*
X201269600Y-111658400D03*
X201269600Y-112674400D03*
X168249600Y-66446400D03*
X175869600Y-75082400D03*
X182981600Y-87274400D03*
X183997600Y-87274400D03*
X136245600Y-129946400D03*
X137261600Y-129946400D03*
X134213600Y-128930400D03*
X133197600Y-128930400D03*
X132181600Y-128930400D03*
X167233600Y-79654400D03*
X168249600Y-79654400D03*
X169265600Y-79654400D03*
X152501600Y-73558400D03*
X128117600Y-55270400D03*
X129133600Y-55270400D03*
X130149600Y-57302400D03*
X130149600Y-56286400D03*
X130149600Y-55270400D03*
X134213600Y-58826400D03*
X133197600Y-58826400D03*
X134721600Y-61366400D03*
X135737600Y-61366400D03*
X136753600Y-61366400D03*
X134213600Y-63398400D03*
X135229600Y-63398400D03*
X135229600Y-64414400D03*
X134213600Y-64414400D03*
X130149600Y-64922400D03*
X131165600Y-64922400D03*
X122021600Y-58318400D03*
X121005600Y-59334400D03*
X118973600Y-60350400D03*
X110845600Y-69494400D03*
X110845600Y-68478400D03*
X112877600Y-71526400D03*
X108813600Y-71526400D03*
X108813600Y-72542400D03*
X108813600Y-73558400D03*
X107797600Y-73558400D03*
X106781600Y-75590400D03*
X105765600Y-78638400D03*
X108813600Y-78638400D03*
X118973600Y-87274400D03*
X119989600Y-87274400D03*
X121005600Y-87274400D03*
X121005600Y-86258400D03*
X119989600Y-86258400D03*
X118973600Y-86258400D03*
X118973600Y-85242400D03*
X119989600Y-85242400D03*
X118973600Y-84226400D03*
X130657600Y-92862400D03*
X129133600Y-94386400D03*
X130149600Y-93370400D03*
X134721600Y-90830400D03*
X129133600Y-88798400D03*
X129133600Y-89814400D03*
X129133600Y-90830400D03*
X132181600Y-80162400D03*
X132181600Y-81178400D03*
X131165600Y-80162400D03*
X131165600Y-81178400D03*
X129641600Y-83718400D03*
X130657600Y-84734400D03*
X130657600Y-85750400D03*
X129133600Y-81178400D03*
X118973600Y-122326400D03*
X119989600Y-123342400D03*
X123037600Y-125374400D03*
X125069600Y-126390400D03*
X127101600Y-127406400D03*
X108305600Y-110134400D03*
X109321600Y-112166400D03*
X117957600Y-118262400D03*
X118973600Y-118262400D03*
X123545600Y-104038400D03*
X115417600Y-101498400D03*
X115417600Y-102514400D03*
X116433600Y-103530400D03*
X116433600Y-102514400D03*
X116433600Y-101498400D03*
X117449600Y-102514400D03*
X117449600Y-103530400D03*
X117449600Y-104546400D03*
X118465600Y-103530400D03*
X118465600Y-104546400D03*
X118465600Y-105562400D03*
X118465600Y-106578400D03*
X119481600Y-104546400D03*
X119481600Y-105562400D03*
X119481600Y-106578400D03*
X120497600Y-105562400D03*
X120497600Y-106578400D03*
X121513600Y-106578400D03*
X112369600Y-94894400D03*
X112369600Y-95910400D03*
X113385600Y-93878400D03*
X112369600Y-93878400D03*
X112369600Y-92862400D03*
X104749600Y-102006400D03*
X105765600Y-105054400D03*
X106781600Y-107086400D03*
X104749600Y-82702400D03*
X104749600Y-81686400D03*
X103733600Y-86766400D03*
X103733600Y-87782400D03*
X103733600Y-88798400D03*
X103733600Y-89814400D03*
X103733600Y-90830400D03*
X103733600Y-91846400D03*
X103733600Y-92862400D03*
X103733600Y-93878400D03*
X103733600Y-94894400D03*
X103733600Y-95910400D03*
X151485600Y-52730400D03*
X150469600Y-52730400D03*
X155549600Y-52730400D03*
X154533600Y-52730400D03*
X153517600Y-52730400D03*
X152501600Y-52730400D03*
X149453600Y-52730400D03*
X148437600Y-52730400D03*
X147421600Y-52730400D03*
X146405600Y-52730400D03*
X145389600Y-52730400D03*
X144373600Y-52730400D03*
X143357600Y-52730400D03*
X142341600Y-52730400D03*
X141325600Y-52730400D03*
X140309600Y-52730400D03*
X139293600Y-52730400D03*
X138277600Y-52730400D03*
X137261600Y-52730400D03*
X134213600Y-53746400D03*
X133197600Y-53746400D03*
X132181600Y-53746400D03*
X149961600Y-78638400D03*
X194157600Y-73050400D03*
X191617600Y-121310400D03*
X191617600Y-120294400D03*
X190093600Y-126898400D03*
X189077600Y-126898400D03*
X132181600Y-64414400D03*
X119989600Y-70510400D03*
X121005600Y-70510400D03*
X116941600Y-92354400D03*
X116941600Y-93370400D03*
X122021600Y-93370400D03*
X122021600Y-94386400D03*
X123545600Y-91338400D03*
X122529600Y-91338400D03*
X135737600Y-101498400D03*
X134721600Y-101498400D03*
X134721600Y-100482400D03*
X131673600Y-101498400D03*
X131673600Y-102514400D03*
X136753600Y-109626400D03*
X151993600Y-86258400D03*
X153009600Y-86258400D03*
X154025600Y-86258400D03*
X132181600Y-68478400D03*
X132181600Y-69494400D03*
X183489600Y-95402400D03*
X184505600Y-95402400D03*
X116941600Y-91338400D03*
X116941600Y-90322400D03*
X146913600Y-78130400D03*
X147929600Y-78130400D03*
X131673600Y-74066400D03*
X134721600Y-76098400D03*
X134721600Y-77114400D03*
X127609600Y-105054400D03*
X127609600Y-106070400D03*
X151485600Y-80543400D03*
X145516600Y-70510400D03*
X156565600Y-108610400D03*
X188061600Y-98196400D03*
X188061600Y-66446400D03*
X131800600Y-82575400D03*
X143484600Y-85369400D03*
X120497600Y-89179400D03*
X123291600Y-97942400D03*
X129260600Y-100355400D03*
X138658600Y-91465400D03*
X182854600Y-65303400D03*
X174472600Y-88925400D03*
X117576600Y-69240400D03*
X118465600Y-80162400D03*
X126466600Y-114325400D03*
X126466600Y-112420400D03*
X129260600Y-114452400D03*
X130403600Y-114325400D03*
X134467600Y-78384400D03*
X126466600Y-79908400D03*
X126720600Y-84226400D03*
X129006600Y-93243400D03*
X180060600Y-96164400D03*
X174980600Y-96164400D03*
X131800600Y-60350400D03*
X137261600Y-80670400D03*
X133578600Y-101879400D03*
X133197600Y-99593400D03*
X125577600Y-115341400D03*
X125577600Y-112547400D03*
X189331600Y-109423200D03*
X175056800Y-106781600D03*
X189331600Y-97053400D03*
X180060600Y-97053400D03*
X135356600Y-90068400D03*
X195173600Y-87122000D03*
X193751200Y-90932000D03*
X138658600Y-112928400D03*
X119608600Y-96291400D03*
X117068600Y-95402400D03*
X175006000Y-105918000D03*
X175006000Y-105054400D03*
X189204600Y-79654400D03*
X173964600Y-72415400D03*
X139928600Y-81559400D03*
X190093600Y-79654400D03*
X174599600Y-71780400D03*
X138912600Y-81686400D03*
X195046600Y-81178400D03*
X173583600Y-81178400D03*
X144500600Y-80035400D03*
X195173600Y-80289400D03*
X173456600Y-80289400D03*
X144500600Y-79146400D03*
X133070600Y-88671400D03*
X131546600Y-87147400D03*
X182575200Y-94183200D03*
X174853600Y-102565200D03*
X181203600Y-90525600D03*
X174904400Y-100787200D03*
X181864000Y-92303600D03*
X174904400Y-101701600D03*
X176250600Y-73177400D03*
X173456600Y-73177400D03*
X140817600Y-81686400D03*
X176250600Y-74066400D03*
X173456600Y-74066400D03*
X142087600Y-81686400D03*
X177038000Y-97688400D03*
X174904400Y-99822000D03*
X170408600Y-84988400D03*
X144500600Y-80924400D03*
X194411600Y-95605600D03*
X133324600Y-60985400D03*
X125704600Y-73685400D03*
X139293600Y-123723400D03*
X124434600Y-104927400D03*
X133070600Y-87782400D03*
X152247600Y-64922400D03*
X192887600Y-121183400D03*
X192735200Y-85293200D03*
X193903600Y-82702400D03*
M02*
