M48
; DRILL file {KiCad (5.1.2-1)-1} date 2019年06月05日 水曜日 01:08:14
; FORMAT={3:3/ absolute / metric / suppress leading zeros}
; #@! TF.CreationDate,2019-06-05T01:08:14+09:00
; #@! TF.GenerationSoftware,Kicad,Pcbnew,(5.1.2-1)-1
FMAT,2
METRIC,TZ
T1C0.400
T2C1.000
T3C1.001
T4C1.016
T5C1.400
T6C2.000
%
G90
G05
T1
X103734Y-86766
X103734Y-87782
X103734Y-88798
X103734Y-89814
X103734Y-90830
X103734Y-91846
X103734Y-92862
X103734Y-93878
X103734Y-94894
X103734Y-95910
X104750Y-81686
X104750Y-82702
X104750Y-83718
X104750Y-84734
X104750Y-85750
X104750Y-86766
X104750Y-87782
X104750Y-88798
X104750Y-89814
X104750Y-92862
X104750Y-93878
X104750Y-94894
X104750Y-95910
X104750Y-96926
X104750Y-97942
X104750Y-98958
X104750Y-99974
X104750Y-100990
X104750Y-102006
X105766Y-78638
X105766Y-79654
X105766Y-80670
X105766Y-81686
X105766Y-82702
X105766Y-83718
X105766Y-84734
X105766Y-85750
X105766Y-86766
X105766Y-87782
X105766Y-88798
X105766Y-89814
X105766Y-92862
X105766Y-93878
X105766Y-94894
X105766Y-95910
X105766Y-96926
X105766Y-97942
X105766Y-98958
X105766Y-99974
X105766Y-100990
X105766Y-102006
X105766Y-103022
X105766Y-104038
X105766Y-105054
X106782Y-75590
X106782Y-76606
X106782Y-77622
X106782Y-78638
X106782Y-79654
X106782Y-80670
X106782Y-81686
X106782Y-82702
X106782Y-83718
X106782Y-84734
X106782Y-85750
X106782Y-86766
X106782Y-96926
X106782Y-97942
X106782Y-98958
X106782Y-99974
X106782Y-100990
X106782Y-102006
X106782Y-103022
X106782Y-104038
X106782Y-105054
X106782Y-106070
X106782Y-107086
X107798Y-73558
X107798Y-74574
X107798Y-75590
X107798Y-76606
X107798Y-77622
X107798Y-78638
X107798Y-96926
X107798Y-97942
X107798Y-98958
X107798Y-99974
X107798Y-100990
X107798Y-102006
X107798Y-103022
X107798Y-104038
X107798Y-105054
X107798Y-106070
X107798Y-107086
X107798Y-108102
X108306Y-109118
X108306Y-110134
X108814Y-71526
X108814Y-72542
X108814Y-73558
X108814Y-74574
X108814Y-75590
X108814Y-76606
X108814Y-77622
X108814Y-78638
X108814Y-96926
X108814Y-97942
X108814Y-98958
X108814Y-99974
X108814Y-100990
X108814Y-102006
X108814Y-103022
X108814Y-104038
X108814Y-105054
X108814Y-106070
X108814Y-107086
X108814Y-108102
X109322Y-81178
X109322Y-82194
X109322Y-83210
X109322Y-84226
X109322Y-85242
X109322Y-86258
X109322Y-109118
X109322Y-110134
X109322Y-111150
X109322Y-112166
X109830Y-70510
X109830Y-71526
X109830Y-72542
X109830Y-73558
X109830Y-98958
X109830Y-99974
X109830Y-100990
X109830Y-102006
X109830Y-103022
X109830Y-104038
X109830Y-105054
X110338Y-109118
X110338Y-110134
X110338Y-111150
X110338Y-112166
X110338Y-113182
X110846Y-68478
X110846Y-69494
X110846Y-70510
X110846Y-71526
X110846Y-72542
X110846Y-73558
X110846Y-98958
X110846Y-99974
X110846Y-100990
X110846Y-102006
X110846Y-103022
X110846Y-104038
X110846Y-105054
X111354Y-109118
X111354Y-110134
X111354Y-111150
X111354Y-112166
X111354Y-113182
X111354Y-114198
X111862Y-67462
X111862Y-68478
X111862Y-69494
X111862Y-70510
X111862Y-71526
X111862Y-72542
X111862Y-73558
X111862Y-81178
X111862Y-82194
X111862Y-83210
X111862Y-84226
X111862Y-85242
X111862Y-86258
X111862Y-99974
X111862Y-100990
X111862Y-102006
X111862Y-103022
X111862Y-104038
X111862Y-105054
X112370Y-92862
X112370Y-93878
X112370Y-94894
X112370Y-95910
X112370Y-112166
X112370Y-113182
X112370Y-114198
X112370Y-115214
X112878Y-67462
X112878Y-68478
X112878Y-69494
X112878Y-70510
X112878Y-71526
X112878Y-100990
X112878Y-102006
X112878Y-103022
X112878Y-104038
X112878Y-105054
X113386Y-93878
X113386Y-94894
X113386Y-95910
X113386Y-96926
X113386Y-113182
X113386Y-114198
X113386Y-115214
X113894Y-67462
X113894Y-68478
X113894Y-69494
X113894Y-70510
X114402Y-77622
X114402Y-80162
X114402Y-81178
X114402Y-82194
X114402Y-83210
X114402Y-84226
X114402Y-85242
X114402Y-86258
X114402Y-87274
X114402Y-94894
X114402Y-95910
X114402Y-96926
X114402Y-97942
X114402Y-101498
X114402Y-102514
X114402Y-103530
X114402Y-104546
X114402Y-105562
X114402Y-114198
X114402Y-115214
X114910Y-68478
X114910Y-69494
X114910Y-70510
X115418Y-77622
X115418Y-80162
X115418Y-81178
X115418Y-82194
X115418Y-83210
X115418Y-84226
X115418Y-85242
X115418Y-86258
X115418Y-87274
X115418Y-95910
X115418Y-96926
X115418Y-97942
X115418Y-101498
X115418Y-102514
X115418Y-103530
X115418Y-104546
X115418Y-105562
X115926Y-69494
X115926Y-70510
X116434Y-77622
X116434Y-80162
X116434Y-81178
X116434Y-82194
X116434Y-83210
X116434Y-84226
X116434Y-85242
X116434Y-86258
X116434Y-87274
X116434Y-96926
X116434Y-97942
X116434Y-101498
X116434Y-102514
X116434Y-103530
X116434Y-104546
X116434Y-105562
X116434Y-110134
X116942Y-62382
X116942Y-63398
X116942Y-90322
X116942Y-91338
X116942Y-92354
X116942Y-93370
X116942Y-119278
X116942Y-120294
X117069Y-95402
X117450Y-96926
X117450Y-97942
X117450Y-102514
X117450Y-103530
X117450Y-104546
X117450Y-105562
X117450Y-109118
X117450Y-110134
X117450Y-111150
X117577Y-69240
X117958Y-61366
X117958Y-62382
X117958Y-63398
X117958Y-64414
X117958Y-118262
X117958Y-119278
X117958Y-120294
X117958Y-121310
X118466Y-72542
X118466Y-73558
X118466Y-74574
X118466Y-75590
X118466Y-76606
X118466Y-80162
X118466Y-96926
X118466Y-97942
X118466Y-98958
X118466Y-103530
X118466Y-104546
X118466Y-105562
X118466Y-106578
X118466Y-109118
X118466Y-110134
X118466Y-110134
X118466Y-111150
X118466Y-112166
X118974Y-60350
X118974Y-61366
X118974Y-62382
X118974Y-63398
X118974Y-64414
X118974Y-71526
X118974Y-84226
X118974Y-85242
X118974Y-86258
X118974Y-87274
X118974Y-118262
X118974Y-119278
X118974Y-120294
X118974Y-121310
X118974Y-122326
X119482Y-72542
X119482Y-73558
X119482Y-74574
X119482Y-75590
X119482Y-76606
X119482Y-97942
X119482Y-98958
X119482Y-99974
X119482Y-104546
X119482Y-105562
X119482Y-106578
X119482Y-109118
X119482Y-110134
X119482Y-111150
X119482Y-112166
X119609Y-96291
X119990Y-60350
X119990Y-61366
X119990Y-62382
X119990Y-63398
X119990Y-64414
X119990Y-65430
X119990Y-66446
X119990Y-67462
X119990Y-70510
X119990Y-71526
X119990Y-85242
X119990Y-86258
X119990Y-87274
X119990Y-119278
X119990Y-120294
X119990Y-121310
X119990Y-122326
X119990Y-123342
X120498Y-72542
X120498Y-73558
X120498Y-74574
X120498Y-75590
X120498Y-89179
X120498Y-97942
X120498Y-98958
X120498Y-99974
X120498Y-100990
X120498Y-105562
X120498Y-106578
X120498Y-109118
X121006Y-59334
X121006Y-60350
X121006Y-61366
X121006Y-62382
X121006Y-63398
X121006Y-64414
X121006Y-65430
X121006Y-66446
X121006Y-70510
X121006Y-86258
X121006Y-87274
X121006Y-119278
X121006Y-120294
X121006Y-121310
X121006Y-122326
X121006Y-123342
X121514Y-97942
X121514Y-98958
X121514Y-102006
X121514Y-106578
X121514Y-109118
X122022Y-58318
X122022Y-59334
X122022Y-60350
X122022Y-61366
X122022Y-62382
X122022Y-63398
X122022Y-64414
X122022Y-93370
X122022Y-94386
X122022Y-119278
X122022Y-120294
X122022Y-121310
X122022Y-122326
X122022Y-123342
X122022Y-124358
X122530Y-91338
X122530Y-102006
X122530Y-103022
X122530Y-109118
X123038Y-58318
X123038Y-59334
X123038Y-60350
X123038Y-61366
X123038Y-62382
X123038Y-63398
X123038Y-64414
X123038Y-65430
X123038Y-119278
X123038Y-120294
X123038Y-121310
X123038Y-122326
X123038Y-123342
X123038Y-124358
X123038Y-125374
X123292Y-97942
X123546Y-91338
X123546Y-102006
X123546Y-103022
X123546Y-104038
X123546Y-109118
X124054Y-57302
X124054Y-58318
X124054Y-59334
X124054Y-60350
X124054Y-61366
X124054Y-62382
X124054Y-63398
X124054Y-64414
X124054Y-65430
X124054Y-119278
X124054Y-120294
X124054Y-121310
X124054Y-122326
X124054Y-123342
X124054Y-124358
X124054Y-125374
X124435Y-104927
X124562Y-91338
X124562Y-110134
X124562Y-111150
X125070Y-57302
X125070Y-58318
X125070Y-59334
X125070Y-60350
X125070Y-61366
X125070Y-62382
X125070Y-63398
X125070Y-64414
X125070Y-65430
X125070Y-66446
X125070Y-67462
X125070Y-90830
X125070Y-91846
X125070Y-123342
X125070Y-124358
X125070Y-125374
X125070Y-126390
X125527Y-97942
X125578Y-90322
X125578Y-91338
X125578Y-92354
X125578Y-112547
X125578Y-115341
X125705Y-73685
X126086Y-56286
X126086Y-57302
X126086Y-58318
X126086Y-59334
X126086Y-60350
X126086Y-61366
X126086Y-62382
X126086Y-63398
X126086Y-64414
X126086Y-65430
X126086Y-66446
X126086Y-67462
X126086Y-89814
X126086Y-90830
X126086Y-91846
X126086Y-92862
X126086Y-123342
X126086Y-124358
X126086Y-125374
X126086Y-126390
X126467Y-79908
X126467Y-112420
X126467Y-114325
X126594Y-89306
X126594Y-90322
X126594Y-91338
X126594Y-92354
X126594Y-93370
X126721Y-84226
X127102Y-56286
X127102Y-57302
X127102Y-58318
X127102Y-59334
X127102Y-60350
X127102Y-61366
X127102Y-62382
X127102Y-63398
X127102Y-64414
X127102Y-65430
X127102Y-66446
X127102Y-67462
X127102Y-88798
X127102Y-89814
X127102Y-90830
X127102Y-91846
X127102Y-92862
X127102Y-123342
X127102Y-124358
X127102Y-125374
X127102Y-126390
X127102Y-127406
X127610Y-88290
X127610Y-89306
X127610Y-90322
X127610Y-91338
X127610Y-92354
X127610Y-102006
X127610Y-103022
X127610Y-104038
X127610Y-105054
X127610Y-106070
X128118Y-55270
X128118Y-56286
X128118Y-57302
X128118Y-58318
X128118Y-59334
X128118Y-87782
X128118Y-88798
X128118Y-89814
X128118Y-90830
X128118Y-91846
X128118Y-123342
X128118Y-124358
X128118Y-125374
X128118Y-126390
X128118Y-127406
X128626Y-88290
X128626Y-89306
X128626Y-90322
X128626Y-91338
X128626Y-102006
X128626Y-103022
X128626Y-104038
X129007Y-93243
X129134Y-55270
X129134Y-56286
X129134Y-57302
X129134Y-58318
X129134Y-59334
X129134Y-81178
X129134Y-88798
X129134Y-89814
X129134Y-90830
X129134Y-94386
X129134Y-124358
X129134Y-125374
X129134Y-126390
X129134Y-127406
X129261Y-100355
X129261Y-114452
X129642Y-83718
X129642Y-94894
X129642Y-104038
X129642Y-123342
X130150Y-55270
X130150Y-56286
X130150Y-57302
X130150Y-58318
X130150Y-59334
X130150Y-64922
X130150Y-93370
X130150Y-94386
X130150Y-95402
X130404Y-114325
X130658Y-84734
X130658Y-85750
X130658Y-92862
X130658Y-93878
X130658Y-94894
X130658Y-95910
X130658Y-104038
X130658Y-123342
X131166Y-64922
X131166Y-80162
X131166Y-81178
X131166Y-92354
X131166Y-93370
X131166Y-94386
X131166Y-95402
X131166Y-96418
X131547Y-87147
X131674Y-74066
X131674Y-91846
X131674Y-92862
X131674Y-93878
X131674Y-94894
X131674Y-95910
X131674Y-101498
X131674Y-102514
X131674Y-123342
X131801Y-60350
X131801Y-82575
X132182Y-53746
X132182Y-64414
X132182Y-68478
X132182Y-69494
X132182Y-80162
X132182Y-81178
X132182Y-91338
X132182Y-92354
X132182Y-93370
X132182Y-94386
X132182Y-95402
X132182Y-128930
X132690Y-74066
X132690Y-75082
X132690Y-76098
X132690Y-77114
X132690Y-90830
X132690Y-91846
X132690Y-92862
X132690Y-93878
X132690Y-94894
X132690Y-118262
X132690Y-119278
X132690Y-120294
X132690Y-121310
X132690Y-122326
X132690Y-123342
X133071Y-87782
X133071Y-88671
X133198Y-53746
X133198Y-58826
X133198Y-91338
X133198Y-92354
X133198Y-93370
X133198Y-94386
X133198Y-99593
X133198Y-128930
X133325Y-60985
X133579Y-101879
X133706Y-74066
X133706Y-75082
X133706Y-76098
X133706Y-77114
X133706Y-90830
X133706Y-91846
X133706Y-92862
X133706Y-93878
X133706Y-103530
X133706Y-104546
X133706Y-110642
X133706Y-111658
X133706Y-118262
X133706Y-119278
X133706Y-120294
X133706Y-121310
X133706Y-122326
X133706Y-123342
X134214Y-53746
X134214Y-58826
X134214Y-63398
X134214Y-64414
X134214Y-91338
X134214Y-92354
X134214Y-93370
X134214Y-128930
X134468Y-78384
X134722Y-61366
X134722Y-67970
X134722Y-68986
X134722Y-76098
X134722Y-77114
X134722Y-90830
X134722Y-91846
X134722Y-92862
X134722Y-100482
X134722Y-101498
X134722Y-102514
X134722Y-103530
X134722Y-104546
X134722Y-110642
X134722Y-111658
X134722Y-112674
X134722Y-120294
X134722Y-121310
X134722Y-122326
X134722Y-123342
X135230Y-53746
X135230Y-54762
X135230Y-55778
X135230Y-56794
X135230Y-57810
X135230Y-58826
X135230Y-63398
X135230Y-64414
X135230Y-91338
X135230Y-92354
X135230Y-126898
X135230Y-127914
X135230Y-128930
X135357Y-90068
X135738Y-61366
X135738Y-67970
X135738Y-68986
X135738Y-91846
X135738Y-101498
X135738Y-102514
X135738Y-103530
X135738Y-104546
X135738Y-110642
X135738Y-111658
X135738Y-112674
X135738Y-120294
X135738Y-121310
X135738Y-122326
X135738Y-123342
X136246Y-53746
X136246Y-54762
X136246Y-55778
X136246Y-56794
X136246Y-57810
X136246Y-58826
X136246Y-126898
X136246Y-127914
X136246Y-128930
X136246Y-129946
X136754Y-61366
X136754Y-67970
X136754Y-68986
X136754Y-72034
X136754Y-73050
X136754Y-74066
X136754Y-75082
X136754Y-102514
X136754Y-103530
X136754Y-104546
X136754Y-109626
X136754Y-110642
X136754Y-111658
X136754Y-112674
X136754Y-120294
X136754Y-121310
X136754Y-122326
X136754Y-123342
X137262Y-52730
X137262Y-53746
X137262Y-54762
X137262Y-55778
X137262Y-56794
X137262Y-57810
X137262Y-58826
X137262Y-80670
X137262Y-126898
X137262Y-127914
X137262Y-128930
X137262Y-129946
X137770Y-67970
X137770Y-68986
X137770Y-72034
X137770Y-73050
X137770Y-103530
X137770Y-104546
X137770Y-121310
X137770Y-122326
X137770Y-123342
X138278Y-52730
X138278Y-53746
X138278Y-54762
X138278Y-55778
X138278Y-56794
X138278Y-57810
X138278Y-58826
X138278Y-126898
X138278Y-127914
X138278Y-128930
X138278Y-129946
X138659Y-91465
X138659Y-112928
X138786Y-72034
X138786Y-73050
X138913Y-81686
X139294Y-52730
X139294Y-53746
X139294Y-54762
X139294Y-55778
X139294Y-56794
X139294Y-57810
X139294Y-58826
X139294Y-59842
X139294Y-123723
X139294Y-125882
X139294Y-126898
X139294Y-127914
X139294Y-128930
X139294Y-129946
X139802Y-85750
X139802Y-86766
X139929Y-81559
X140310Y-52730
X140310Y-53746
X140310Y-54762
X140310Y-55778
X140310Y-56794
X140310Y-57810
X140310Y-58826
X140310Y-59842
X140310Y-60858
X140310Y-108102
X140310Y-109118
X140310Y-110134
X140310Y-111150
X140310Y-112166
X140310Y-113182
X140310Y-124866
X140310Y-125882
X140310Y-126898
X140310Y-127914
X140310Y-128930
X140310Y-129946
X140818Y-81686
X140818Y-85750
X140818Y-86766
X140818Y-95402
X141326Y-52730
X141326Y-53746
X141326Y-54762
X141326Y-55778
X141326Y-56794
X141326Y-57810
X141326Y-58826
X141326Y-59842
X141326Y-60858
X141326Y-61874
X141326Y-108102
X141326Y-109118
X141326Y-110134
X141326Y-111150
X141326Y-112166
X141326Y-113182
X141326Y-114198
X141326Y-123850
X141326Y-124866
X141326Y-125882
X141326Y-126898
X141326Y-127914
X141326Y-128930
X141326Y-129946
X141834Y-85750
X141834Y-86766
X141834Y-95402
X142088Y-81686
X142342Y-52730
X142342Y-53746
X142342Y-54762
X142342Y-55778
X142342Y-56794
X142342Y-57810
X142342Y-58826
X142342Y-59842
X142342Y-60858
X142342Y-61874
X142342Y-108102
X142342Y-109118
X142342Y-110134
X142342Y-111150
X142342Y-112166
X142342Y-113182
X142342Y-114198
X142342Y-123850
X142342Y-124866
X142342Y-125882
X142342Y-126898
X142342Y-127914
X142342Y-128930
X142342Y-129946
X142850Y-86766
X142850Y-95402
X142850Y-97434
X142850Y-98450
X143358Y-52730
X143358Y-53746
X143358Y-54762
X143358Y-55778
X143358Y-56794
X143358Y-57810
X143358Y-58826
X143358Y-59842
X143358Y-60858
X143358Y-61874
X143358Y-62890
X143358Y-63906
X143358Y-64922
X143358Y-65938
X143358Y-108102
X143358Y-109118
X143358Y-110134
X143358Y-111150
X143358Y-112166
X143358Y-113182
X143358Y-114198
X143358Y-115214
X143358Y-116230
X143358Y-117246
X143358Y-118262
X143358Y-119278
X143358Y-123850
X143358Y-124866
X143358Y-125882
X143358Y-126898
X143358Y-127914
X143358Y-128930
X143358Y-129946
X143485Y-85369
X143866Y-86766
X143866Y-91338
X143866Y-92354
X143866Y-93370
X143866Y-94386
X143866Y-95402
X143866Y-97434
X143866Y-98450
X144374Y-52730
X144374Y-53746
X144374Y-54762
X144374Y-55778
X144374Y-56794
X144374Y-57810
X144374Y-58826
X144374Y-59842
X144374Y-60858
X144374Y-61874
X144374Y-62890
X144374Y-63906
X144374Y-64922
X144374Y-65938
X144374Y-108102
X144374Y-109118
X144374Y-110134
X144374Y-111150
X144374Y-112166
X144374Y-113182
X144374Y-114198
X144374Y-115214
X144374Y-116230
X144374Y-117246
X144374Y-118262
X144374Y-123850
X144374Y-124866
X144374Y-125882
X144374Y-126898
X144374Y-127914
X144374Y-128930
X144374Y-129946
X144501Y-79146
X144501Y-80035
X144501Y-80924
X144882Y-91338
X144882Y-92354
X144882Y-93370
X144882Y-94386
X144882Y-95402
X144882Y-97434
X144882Y-98450
X145390Y-52730
X145390Y-53746
X145390Y-54762
X145390Y-55778
X145390Y-56794
X145390Y-57810
X145390Y-58826
X145390Y-59842
X145390Y-60858
X145390Y-61874
X145390Y-62890
X145390Y-63906
X145390Y-64922
X145390Y-65938
X145390Y-108102
X145390Y-109118
X145390Y-110134
X145390Y-111150
X145390Y-112166
X145390Y-113182
X145390Y-114198
X145390Y-115214
X145390Y-116230
X145390Y-117246
X145390Y-122834
X145390Y-123850
X145390Y-124866
X145390Y-125882
X145390Y-126898
X145390Y-127914
X145390Y-128930
X145390Y-129946
X145517Y-70510
X145898Y-91338
X145898Y-92354
X145898Y-93370
X145898Y-94386
X145898Y-95402
X145898Y-97434
X145898Y-98450
X146406Y-52730
X146406Y-53746
X146406Y-54762
X146406Y-55778
X146406Y-56794
X146406Y-57810
X146406Y-58826
X146406Y-59842
X146406Y-60858
X146406Y-61874
X146406Y-62890
X146406Y-63906
X146406Y-64922
X146406Y-65938
X146406Y-108102
X146406Y-109118
X146406Y-110134
X146406Y-111150
X146406Y-112166
X146406Y-113182
X146406Y-114198
X146406Y-115214
X146406Y-116230
X146406Y-121818
X146406Y-122834
X146406Y-123850
X146406Y-124866
X146406Y-125882
X146406Y-126898
X146406Y-127914
X146406Y-128930
X146406Y-129946
X146914Y-78130
X146914Y-84226
X146914Y-85242
X146914Y-86258
X146914Y-91338
X146914Y-92354
X146914Y-93370
X146914Y-94386
X146914Y-95402
X146914Y-97434
X146914Y-98450
X147422Y-52730
X147422Y-53746
X147422Y-54762
X147422Y-55778
X147422Y-56794
X147422Y-57810
X147422Y-58826
X147422Y-59842
X147422Y-60858
X147422Y-61874
X147422Y-62890
X147422Y-63906
X147422Y-64922
X147422Y-65938
X147422Y-108102
X147422Y-109118
X147422Y-110134
X147422Y-111150
X147422Y-112166
X147422Y-113182
X147422Y-114198
X147422Y-115214
X147422Y-120802
X147422Y-121818
X147422Y-122834
X147422Y-123850
X147422Y-124866
X147422Y-125882
X147422Y-126898
X147422Y-127914
X147422Y-128930
X147422Y-129946
X147930Y-78130
X147930Y-84226
X147930Y-85242
X147930Y-86258
X147930Y-91338
X147930Y-92354
X147930Y-93370
X147930Y-94386
X147930Y-95402
X147930Y-97434
X147930Y-98450
X148438Y-52730
X148438Y-53746
X148438Y-54762
X148438Y-55778
X148438Y-56794
X148438Y-57810
X148438Y-58826
X148438Y-59842
X148438Y-60858
X148438Y-61874
X148438Y-62890
X148438Y-63906
X148438Y-108102
X148438Y-109118
X148438Y-110134
X148438Y-111150
X148438Y-112166
X148438Y-113182
X148438Y-114198
X148438Y-119786
X148438Y-120802
X148438Y-121818
X148438Y-122834
X148438Y-123850
X148438Y-124866
X148438Y-125882
X148438Y-126898
X148438Y-127914
X148438Y-128930
X148438Y-129946
X148946Y-76606
X148946Y-77622
X148946Y-84226
X148946Y-85242
X148946Y-86258
X148946Y-91338
X148946Y-92354
X148946Y-93370
X148946Y-94386
X148946Y-95402
X148946Y-97434
X148946Y-98450
X149454Y-52730
X149454Y-53746
X149454Y-54762
X149454Y-55778
X149454Y-56794
X149454Y-57810
X149454Y-58826
X149454Y-59842
X149454Y-60858
X149454Y-61874
X149454Y-62890
X149454Y-72542
X149454Y-108102
X149454Y-109118
X149454Y-110134
X149454Y-111150
X149454Y-112166
X149454Y-113182
X149454Y-118770
X149454Y-119786
X149454Y-120802
X149454Y-121818
X149454Y-122834
X149454Y-123850
X149454Y-124866
X149454Y-125882
X149454Y-126898
X149454Y-127914
X149454Y-128930
X149454Y-129946
X149962Y-76606
X149962Y-77622
X149962Y-78638
X149962Y-84226
X149962Y-85242
X149962Y-86258
X149962Y-91338
X149962Y-92354
X149962Y-93370
X149962Y-94386
X149962Y-95402
X149962Y-97434
X149962Y-98450
X150470Y-52730
X150470Y-53746
X150470Y-54762
X150470Y-55778
X150470Y-56794
X150470Y-57810
X150470Y-58826
X150470Y-59842
X150470Y-60858
X150470Y-61874
X150470Y-72542
X150470Y-73558
X150470Y-108102
X150470Y-109118
X150470Y-110134
X150470Y-111150
X150470Y-112166
X150470Y-117754
X150470Y-118770
X150470Y-119786
X150470Y-120802
X150470Y-121818
X150470Y-122834
X150470Y-123850
X150470Y-124866
X150470Y-125882
X150470Y-126898
X150470Y-127914
X150470Y-128930
X150470Y-129946
X150978Y-85242
X150978Y-86258
X150978Y-91338
X150978Y-92354
X150978Y-93370
X150978Y-94386
X150978Y-95402
X150978Y-97434
X150978Y-98450
X151486Y-52730
X151486Y-53746
X151486Y-54762
X151486Y-55778
X151486Y-56794
X151486Y-57810
X151486Y-58826
X151486Y-59842
X151486Y-60858
X151486Y-61874
X151486Y-72542
X151486Y-73558
X151486Y-74574
X151486Y-80543
X151486Y-108102
X151486Y-109118
X151486Y-110134
X151486Y-111150
X151486Y-116738
X151486Y-117754
X151486Y-118770
X151486Y-119786
X151486Y-120802
X151486Y-121818
X151486Y-122834
X151486Y-123850
X151486Y-124866
X151486Y-125882
X151486Y-126898
X151486Y-127914
X151486Y-128930
X151486Y-129946
X151994Y-86258
X151994Y-91338
X151994Y-92354
X151994Y-93370
X151994Y-94386
X151994Y-95402
X151994Y-97434
X151994Y-98450
X152248Y-64922
X152502Y-52730
X152502Y-73558
X152502Y-108102
X152502Y-109118
X152502Y-110134
X152502Y-115722
X152502Y-116738
X152502Y-117754
X152502Y-118770
X152502Y-119786
X152502Y-120802
X152502Y-121818
X152502Y-122834
X152502Y-123850
X152502Y-124866
X152502Y-125882
X152502Y-126898
X152502Y-127914
X152502Y-128930
X152502Y-129946
X153010Y-86258
X153010Y-91338
X153010Y-92354
X153010Y-93370
X153010Y-94386
X153010Y-95402
X153010Y-97434
X153010Y-98450
X153518Y-52730
X153518Y-108102
X153518Y-109118
X153518Y-114706
X153518Y-115722
X153518Y-116738
X153518Y-117754
X153518Y-118770
X153518Y-119786
X153518Y-120802
X153518Y-121818
X153518Y-122834
X153518Y-123850
X153518Y-124866
X153518Y-125882
X153518Y-126898
X153518Y-127914
X153518Y-128930
X153518Y-129946
X154026Y-86258
X154026Y-91338
X154026Y-92354
X154026Y-93370
X154026Y-94386
X154026Y-95402
X154026Y-97434
X154026Y-98450
X154153Y-80924
X154534Y-52730
X154534Y-108102
X154534Y-113690
X154534Y-114706
X154534Y-115722
X154534Y-116738
X154534Y-117754
X154534Y-118770
X154534Y-119786
X154534Y-120802
X154534Y-121818
X154534Y-122834
X154534Y-123850
X154534Y-124866
X154534Y-125882
X154534Y-126898
X154534Y-127914
X154534Y-128930
X154534Y-129946
X155042Y-91338
X155042Y-92354
X155042Y-93370
X155042Y-94386
X155042Y-95402
X155042Y-97434
X155042Y-98450
X155550Y-52730
X155550Y-53746
X155550Y-54762
X155550Y-55778
X155550Y-56794
X155550Y-57810
X155550Y-58826
X155550Y-59842
X155550Y-60858
X155550Y-61874
X155550Y-112674
X155550Y-113690
X155550Y-114706
X155550Y-115722
X155550Y-116738
X155550Y-117754
X155550Y-118770
X155550Y-119786
X155550Y-120802
X155550Y-121818
X155550Y-122834
X155550Y-123850
X155550Y-124866
X155550Y-125882
X155550Y-126898
X155550Y-127914
X155550Y-128930
X155550Y-129946
X156058Y-91338
X156058Y-92354
X156058Y-93370
X156058Y-94386
X156058Y-98450
X156566Y-108610
X156566Y-111658
X156566Y-112674
X156566Y-113690
X156566Y-114706
X156566Y-115722
X156566Y-116738
X156566Y-117754
X157074Y-64414
X157074Y-64414
X157074Y-65430
X157074Y-66446
X157074Y-70510
X157074Y-78638
X157074Y-79654
X157074Y-80670
X157074Y-91338
X157074Y-92354
X157074Y-93370
X157074Y-94386
X157074Y-98450
X157582Y-110642
X157582Y-111658
X157582Y-112674
X157582Y-113690
X157582Y-114706
X157582Y-115722
X157582Y-116738
X157582Y-117754
X158090Y-64414
X158090Y-65430
X158090Y-66446
X158090Y-70510
X158090Y-78638
X158090Y-79654
X158090Y-80670
X158090Y-91338
X158090Y-92354
X158090Y-93370
X158090Y-94386
X158090Y-98450
X158598Y-110642
X158598Y-111658
X158598Y-112674
X158598Y-113690
X158598Y-114706
X158598Y-115722
X158598Y-116738
X158598Y-117754
X159106Y-64414
X159106Y-65430
X159106Y-66446
X159106Y-70510
X159106Y-75082
X159106Y-76098
X159106Y-78638
X159106Y-79654
X159106Y-80670
X159106Y-91338
X159106Y-92354
X159106Y-93370
X159106Y-94386
X159106Y-98450
X159614Y-110642
X159614Y-111658
X159614Y-112674
X159614Y-113690
X159614Y-114706
X159614Y-115722
X159614Y-116738
X159614Y-117754
X160122Y-64414
X160122Y-65430
X160122Y-66446
X160122Y-67462
X160122Y-68478
X160122Y-69494
X160122Y-70510
X160122Y-75082
X160122Y-76098
X160122Y-78638
X160122Y-79654
X160122Y-80670
X160122Y-91338
X160122Y-92354
X160122Y-93370
X160122Y-94386
X160122Y-98450
X160630Y-110642
X160630Y-111658
X160630Y-112674
X160630Y-113690
X160630Y-114706
X160630Y-115722
X160630Y-116738
X160630Y-117754
X161138Y-64414
X161138Y-65430
X161138Y-66446
X161138Y-67462
X161138Y-68478
X161138Y-69494
X161138Y-70510
X161138Y-91338
X161138Y-92354
X161138Y-93370
X161138Y-94386
X161138Y-98450
X161646Y-110642
X161646Y-111658
X161646Y-112674
X161646Y-113690
X161646Y-114706
X161646Y-115722
X161646Y-116738
X161646Y-117754
X162154Y-64414
X162154Y-65430
X162154Y-66446
X162154Y-67462
X162154Y-68478
X162154Y-69494
X162154Y-70510
X162154Y-91338
X162154Y-92354
X162154Y-93370
X162154Y-94386
X162154Y-98450
X162662Y-110642
X162662Y-111658
X162662Y-112674
X162662Y-113690
X162662Y-114706
X162662Y-115722
X162662Y-116738
X162662Y-117754
X163170Y-64414
X163170Y-65430
X163170Y-66446
X163170Y-67462
X163170Y-68478
X163170Y-69494
X163170Y-70510
X163170Y-75082
X163170Y-76098
X163170Y-79146
X163170Y-80162
X163170Y-91338
X163170Y-92354
X163170Y-93370
X163170Y-94386
X163170Y-98450
X163678Y-110642
X163678Y-111658
X163678Y-112674
X163678Y-113690
X163678Y-114706
X163678Y-115722
X163678Y-116738
X163678Y-117754
X164186Y-64414
X164186Y-65430
X164186Y-66446
X164186Y-67462
X164186Y-68478
X164186Y-69494
X164186Y-70510
X164186Y-75082
X164186Y-76098
X164186Y-79146
X164186Y-80162
X164186Y-91338
X164186Y-92354
X164186Y-93370
X164186Y-94386
X164186Y-98450
X164694Y-110642
X164694Y-111658
X164694Y-112674
X164694Y-113690
X164694Y-114706
X164694Y-115722
X164694Y-116738
X164694Y-117754
X165202Y-64414
X165202Y-65430
X165202Y-66446
X165202Y-67462
X165202Y-68478
X165202Y-69494
X165202Y-75082
X165202Y-76098
X165202Y-77114
X165202Y-78130
X165202Y-79146
X165202Y-80162
X165202Y-91338
X165202Y-92354
X165202Y-93370
X165202Y-94386
X165202Y-98450
X165456Y-82194
X165710Y-87782
X165710Y-110642
X165710Y-111658
X165710Y-112674
X165710Y-113690
X165710Y-114706
X165710Y-115722
X165710Y-116738
X165710Y-117754
X166218Y-64414
X166218Y-65430
X166218Y-66446
X166218Y-67462
X166218Y-68478
X166218Y-69494
X166218Y-75082
X166218Y-76098
X166218Y-77114
X166218Y-78130
X166218Y-79146
X166218Y-80162
X166218Y-91338
X166218Y-92354
X166218Y-93370
X166218Y-94386
X166218Y-95402
X166218Y-96418
X166218Y-97434
X166218Y-98450
X166726Y-87782
X166726Y-110642
X166726Y-111658
X166726Y-112674
X166726Y-115722
X166726Y-116738
X166726Y-117754
X167234Y-64414
X167234Y-65430
X167234Y-66446
X167234Y-79654
X167234Y-91338
X167234Y-92354
X167234Y-93370
X167234Y-94386
X167234Y-95402
X167234Y-96418
X167234Y-97434
X167234Y-98450
X167742Y-87782
X167742Y-110642
X167742Y-111658
X167742Y-116738
X167742Y-117754
X168250Y-64414
X168250Y-65430
X168250Y-66446
X168250Y-79654
X168250Y-92354
X168250Y-93370
X168250Y-94386
X168250Y-95402
X168250Y-96418
X168250Y-97434
X168250Y-98450
X168758Y-88290
X168758Y-110642
X168758Y-111658
X168758Y-116738
X168758Y-117754
X169266Y-64414
X169266Y-65430
X169266Y-66446
X169266Y-79654
X169266Y-93370
X169266Y-94386
X169266Y-95402
X169266Y-96418
X169266Y-97434
X169266Y-98450
X169774Y-88290
X169774Y-89306
X169774Y-110642
X169774Y-111658
X169774Y-112674
X169774Y-116738
X169774Y-117754
X170282Y-64414
X170282Y-65430
X170282Y-66446
X170282Y-67462
X170282Y-69494
X170282Y-75082
X170282Y-76098
X170282Y-77114
X170282Y-78130
X170282Y-79146
X170282Y-80162
X170282Y-81178
X170282Y-94386
X170282Y-95402
X170282Y-96418
X170282Y-97434
X170282Y-98450
X170409Y-84988
X170790Y-89306
X170790Y-90322
X170790Y-110642
X170790Y-111658
X170790Y-112674
X170790Y-113690
X170790Y-114706
X170790Y-115722
X170790Y-116738
X170790Y-117754
X171298Y-64414
X171298Y-65430
X171298Y-66446
X171298Y-67462
X171298Y-68478
X171298Y-69494
X171298Y-75082
X171298Y-76098
X171298Y-77114
X171298Y-78130
X171298Y-79146
X171298Y-80162
X171298Y-81178
X171298Y-95402
X171298Y-96418
X171298Y-97434
X171298Y-98450
X171806Y-110642
X171806Y-111658
X171806Y-112674
X171806Y-113690
X171806Y-114706
X171806Y-114706
X171806Y-115722
X171806Y-116738
X171806Y-117754
X172314Y-64414
X172314Y-65430
X172314Y-66446
X172314Y-67462
X172314Y-68478
X172314Y-69494
X172314Y-75082
X172314Y-76098
X172314Y-77114
X172314Y-78130
X172314Y-79146
X172314Y-80162
X172314Y-96418
X172314Y-97434
X172314Y-98450
X172822Y-110642
X172822Y-111658
X172822Y-112674
X172822Y-113690
X172822Y-114706
X172822Y-114706
X172822Y-115722
X172822Y-116738
X172822Y-117754
X173330Y-64414
X173330Y-65430
X173330Y-66446
X173330Y-67462
X173330Y-68478
X173330Y-69494
X173330Y-97434
X173330Y-98450
X173457Y-73177
X173457Y-74066
X173457Y-80289
X173584Y-81178
X173838Y-110642
X173838Y-111658
X173838Y-112674
X173838Y-113690
X173838Y-114706
X173838Y-114706
X173838Y-115722
X173838Y-116738
X173838Y-117754
X173965Y-72415
X174346Y-64414
X174346Y-65430
X174346Y-66446
X174346Y-67462
X174346Y-68478
X174346Y-69494
X174473Y-88925
X174600Y-71780
X174854Y-102565
X174854Y-110642
X174854Y-111658
X174854Y-112674
X174854Y-113690
X174854Y-114706
X174854Y-114706
X174854Y-115722
X174854Y-116738
X174854Y-117754
X174904Y-99822
X174904Y-100787
X174904Y-101702
X174981Y-96164
X175006Y-105054
X175006Y-105918
X175057Y-106782
X175362Y-64414
X175362Y-65430
X175362Y-66446
X175362Y-67462
X175362Y-68478
X175362Y-69494
X175870Y-75082
X175870Y-76098
X175870Y-77114
X175870Y-78130
X175870Y-79146
X175870Y-88798
X175870Y-89814
X175870Y-110642
X175870Y-111658
X175870Y-112674
X175870Y-113690
X175870Y-114706
X175870Y-114706
X175870Y-115722
X175870Y-116738
X175870Y-117754
X176251Y-73177
X176251Y-74066
X176378Y-64414
X176378Y-65430
X176378Y-66446
X176378Y-67462
X176378Y-68478
X176378Y-69494
X176886Y-75082
X176886Y-76098
X176886Y-77114
X176886Y-78130
X176886Y-79146
X176886Y-89814
X176886Y-90830
X176886Y-104038
X176886Y-110642
X176886Y-111658
X176886Y-112674
X176886Y-113690
X176886Y-114706
X176886Y-114706
X176886Y-115722
X176886Y-116738
X176886Y-117754
X177038Y-97688
X177394Y-64414
X177394Y-65430
X177394Y-66446
X177394Y-67462
X177394Y-68478
X177902Y-74066
X177902Y-75082
X177902Y-76098
X177902Y-77114
X177902Y-78130
X177902Y-79146
X177902Y-82194
X177902Y-83210
X177902Y-84226
X177902Y-85242
X177902Y-86258
X177902Y-104038
X177902Y-110642
X177902Y-111658
X177902Y-112674
X177902Y-113690
X177902Y-114706
X177902Y-114706
X177902Y-115722
X177902Y-116738
X177902Y-117754
X178410Y-64414
X178410Y-65430
X178410Y-66446
X178410Y-67462
X178918Y-74066
X178918Y-75082
X178918Y-76098
X178918Y-77114
X178918Y-78130
X178918Y-79146
X178918Y-82194
X178918Y-83210
X178918Y-84226
X178918Y-85242
X178918Y-86258
X178918Y-104038
X178918Y-110642
X178918Y-111658
X178918Y-112674
X178918Y-113690
X178918Y-114706
X178918Y-114706
X178918Y-115722
X178918Y-116738
X178918Y-117754
X179426Y-64414
X179426Y-65430
X179426Y-66446
X179934Y-74066
X179934Y-75082
X179934Y-76098
X179934Y-77114
X179934Y-78130
X179934Y-79146
X179934Y-82194
X179934Y-83210
X179934Y-84226
X179934Y-85242
X179934Y-86258
X179934Y-104038
X179934Y-110642
X179934Y-111658
X179934Y-112674
X179934Y-113690
X179934Y-114706
X179934Y-114706
X179934Y-115722
X179934Y-116738
X179934Y-117754
X180061Y-96164
X180061Y-97053
X180442Y-64414
X180442Y-65430
X180442Y-88798
X180950Y-74066
X180950Y-75082
X180950Y-76098
X180950Y-77114
X180950Y-78130
X180950Y-79146
X180950Y-82194
X180950Y-83210
X180950Y-84226
X180950Y-85242
X180950Y-86258
X180950Y-104038
X180950Y-110642
X180950Y-111658
X180950Y-112674
X180950Y-113690
X180950Y-114706
X180950Y-115722
X180950Y-116738
X180950Y-117754
X181204Y-90526
X181458Y-88798
X181864Y-92304
X181966Y-74066
X181966Y-75082
X181966Y-76098
X181966Y-77114
X181966Y-78130
X181966Y-79146
X181966Y-82194
X181966Y-83210
X181966Y-84226
X181966Y-85242
X181966Y-86258
X181966Y-103022
X181966Y-104038
X181966Y-110642
X181966Y-111658
X181966Y-112674
X181966Y-113690
X181966Y-114706
X181966Y-115722
X181966Y-116738
X181966Y-117754
X182474Y-89814
X182474Y-90830
X182575Y-94183
X182855Y-65303
X182982Y-74066
X182982Y-75082
X182982Y-76098
X182982Y-77114
X182982Y-78130
X182982Y-79146
X182982Y-82194
X182982Y-83210
X182982Y-84226
X182982Y-85242
X182982Y-86258
X182982Y-87274
X182982Y-102006
X182982Y-103022
X182982Y-104038
X182982Y-111658
X182982Y-112674
X182982Y-113690
X182982Y-114706
X182982Y-115722
X182982Y-116738
X182982Y-117754
X183490Y-95402
X183998Y-52730
X183998Y-53746
X183998Y-54762
X183998Y-55778
X183998Y-56794
X183998Y-57810
X183998Y-58826
X183998Y-59842
X183998Y-60858
X183998Y-61874
X183998Y-74066
X183998Y-75082
X183998Y-76098
X183998Y-77114
X183998Y-78130
X183998Y-79146
X183998Y-82194
X183998Y-83210
X183998Y-84226
X183998Y-85242
X183998Y-86258
X183998Y-87274
X183998Y-97942
X183998Y-97942
X183998Y-98958
X183998Y-99974
X183998Y-100990
X183998Y-102006
X183998Y-103022
X183998Y-104038
X183998Y-116738
X183998Y-117754
X183998Y-118770
X183998Y-119786
X183998Y-120802
X183998Y-121818
X183998Y-122834
X183998Y-123850
X183998Y-124866
X183998Y-125882
X183998Y-126898
X183998Y-127914
X183998Y-128930
X183998Y-129946
X184302Y-93370
X184506Y-95402
X185014Y-52730
X185014Y-53746
X185014Y-54762
X185014Y-55778
X185014Y-56794
X185014Y-57810
X185014Y-58826
X185014Y-59842
X185014Y-60858
X185014Y-74066
X185014Y-75082
X185014Y-76098
X185014Y-77114
X185014Y-78130
X185014Y-79146
X185014Y-82194
X185014Y-83210
X185014Y-84226
X185014Y-85242
X185014Y-86258
X185014Y-100990
X185014Y-102006
X185014Y-103022
X185014Y-104038
X185014Y-116738
X185014Y-117754
X185014Y-118770
X185014Y-119786
X185014Y-120802
X185014Y-121818
X185014Y-122834
X185014Y-123850
X185014Y-124866
X185014Y-125882
X185014Y-126898
X186030Y-52730
X186030Y-74066
X186030Y-75082
X186030Y-76098
X186030Y-77114
X186030Y-78130
X186030Y-79146
X186030Y-82194
X186030Y-83210
X186030Y-84226
X186030Y-85242
X186030Y-86258
X186030Y-116738
X186030Y-117754
X186030Y-118770
X186030Y-119786
X186030Y-120802
X186030Y-121818
X186030Y-122834
X186030Y-123850
X186030Y-124866
X186030Y-125882
X186030Y-126898
X187046Y-52730
X187554Y-108610
X187554Y-109626
X187554Y-110642
X187554Y-111658
X188062Y-52730
X188062Y-66446
X188062Y-98196
X188570Y-111658
X188570Y-112674
X189078Y-52730
X189078Y-114706
X189078Y-115722
X189078Y-116738
X189078Y-119786
X189078Y-120802
X189078Y-121818
X189078Y-122834
X189078Y-126898
X189205Y-79654
X189332Y-97053
X189332Y-109423
X189586Y-67462
X189586Y-68478
X189586Y-69494
X189586Y-111658
X189586Y-112674
X190094Y-52730
X190094Y-79654
X190094Y-114706
X190094Y-115722
X190094Y-116738
X190094Y-126898
X190602Y-67462
X190602Y-68478
X190602Y-69494
X190602Y-111658
X191110Y-52730
X191110Y-53746
X191110Y-54762
X191110Y-55778
X191110Y-56794
X191110Y-57810
X191110Y-58826
X191110Y-63906
X191110Y-82194
X191110Y-83210
X191110Y-127406
X191110Y-128422
X191110Y-129438
X191110Y-130454
X191618Y-68478
X191618Y-69494
X191618Y-72034
X191618Y-73050
X191618Y-74066
X191618Y-75082
X191618Y-76098
X191618Y-77114
X191618Y-78130
X191618Y-120294
X191618Y-121310
X191618Y-122326
X191618Y-123342
X191618Y-124358
X192126Y-52730
X192126Y-53746
X192126Y-54762
X192126Y-55778
X192126Y-56794
X192126Y-57810
X192126Y-58826
X192126Y-63906
X192126Y-64922
X192126Y-127406
X192126Y-128422
X192126Y-129438
X192126Y-130454
X192634Y-122326
X192634Y-123342
X192634Y-124358
X192735Y-85293
X192888Y-121183
X193142Y-52730
X193142Y-53746
X193142Y-54762
X193142Y-55778
X193142Y-56794
X193142Y-57810
X193142Y-58826
X193142Y-63906
X193142Y-64922
X193142Y-127406
X193142Y-128422
X193142Y-129438
X193142Y-130454
X193650Y-108610
X193650Y-109626
X193650Y-110642
X193751Y-90932
X193904Y-82702
X194158Y-52730
X194158Y-53746
X194158Y-54762
X194158Y-55778
X194158Y-56794
X194158Y-57810
X194158Y-58826
X194158Y-63906
X194158Y-71018
X194158Y-72034
X194158Y-73050
X194158Y-127406
X194158Y-128422
X194158Y-129438
X194158Y-130454
X194412Y-95606
X195047Y-81178
X195174Y-52730
X195174Y-53746
X195174Y-54762
X195174Y-71018
X195174Y-72034
X195174Y-80289
X195174Y-87122
X195174Y-127406
X195174Y-128422
X195174Y-129438
X195174Y-130454
X196190Y-52730
X196190Y-53746
X196190Y-54762
X196190Y-127406
X196190Y-128422
X196190Y-129438
X196190Y-130454
X196698Y-113182
X197206Y-52730
X197206Y-53746
X197206Y-54762
X197206Y-74066
X197206Y-75082
X197206Y-76098
X197206Y-77114
X197206Y-78130
X197206Y-79146
X197206Y-80162
X197206Y-127406
X197206Y-128422
X197206Y-129438
X197206Y-130454
X197714Y-113182
X198222Y-52730
X198222Y-53746
X198222Y-54762
X198222Y-73050
X198222Y-74066
X198222Y-87274
X198222Y-96418
X198222Y-97434
X198222Y-127406
X198222Y-128422
X198222Y-129438
X198222Y-130454
X199238Y-52730
X199238Y-53746
X199238Y-54762
X199238Y-72034
X199238Y-73050
X199238Y-74066
X199238Y-87274
X199238Y-96418
X199238Y-97434
X199238Y-98450
X199238Y-102514
X199238Y-103530
X199238Y-104546
X199238Y-108610
X199238Y-109626
X199238Y-110642
X199238Y-127406
X199238Y-128422
X199238Y-129438
X199238Y-130454
X200254Y-52730
X200254Y-53746
X200254Y-54762
X200254Y-55778
X200254Y-58826
X200254Y-63906
X200254Y-65938
X200254Y-68986
X200254Y-70002
X200254Y-71018
X200254Y-72034
X200254Y-73050
X200254Y-74066
X200254Y-87274
X200254Y-96418
X200254Y-97434
X200254Y-98450
X200254Y-102514
X200254Y-103530
X200254Y-104546
X200254Y-108610
X200254Y-109626
X200254Y-110642
X200254Y-111658
X200254Y-127406
X200254Y-128422
X200254Y-129438
X200254Y-130454
X201270Y-52730
X201270Y-53746
X201270Y-54762
X201270Y-55778
X201270Y-56794
X201270Y-57810
X201270Y-58826
X201270Y-59842
X201270Y-60858
X201270Y-61874
X201270Y-62890
X201270Y-63906
X201270Y-64922
X201270Y-65938
X201270Y-66954
X201270Y-67970
X201270Y-68986
X201270Y-70002
X201270Y-71018
X201270Y-72034
X201270Y-73050
X201270Y-74066
X201270Y-75082
X201270Y-76098
X201270Y-77114
X201270Y-78130
X201270Y-79146
X201270Y-87274
X201270Y-88290
X201270Y-89306
X201270Y-90322
X201270Y-91338
X201270Y-92354
X201270Y-93370
X201270Y-94386
X201270Y-95402
X201270Y-96418
X201270Y-97434
X201270Y-98450
X201270Y-102514
X201270Y-103530
X201270Y-104546
X201270Y-108610
X201270Y-109626
X201270Y-110642
X201270Y-111658
X201270Y-112674
X201270Y-127406
X201270Y-128422
X201270Y-129438
X201270Y-130454
T2
X196143Y-115380
X196143Y-117920
X196143Y-120460
X196143Y-123000
X196143Y-125540
X198683Y-115380
X198683Y-117920
X198683Y-120460
X198683Y-123000
X198683Y-125540
X196143Y-57380
X196143Y-59920
X196143Y-62460
X196143Y-65000
X196143Y-67540
X198683Y-57380
X198683Y-59920
X198683Y-62460
X198683Y-65000
X198683Y-67540
X155913Y-68460
X158413Y-68460
T3
X108143Y-88460
X110683Y-88460
X108143Y-94460
X110683Y-94460
X141413Y-64190
X141413Y-66730
X141413Y-116190
X141413Y-118730
T4
X122191Y-71991
X122413Y-69460
X122634Y-66930
X110911Y-107019
X113413Y-107460
X115914Y-107901
X110911Y-75901
X113413Y-75460
X115914Y-75019
X199413Y-89380
X199413Y-91920
X199413Y-94460
X156603Y-86380
X156603Y-96540
X159143Y-86380
X159143Y-96540
X161683Y-86380
X161683Y-96540
X164223Y-86380
X164223Y-96540
X153413Y-54960
X153413Y-57460
X153413Y-59960
X199413Y-76460
X199413Y-79000
X199413Y-81540
X199413Y-84080
X122191Y-110930
X122413Y-113460
X122634Y-115991
T5
X193163Y-100460
X199663Y-100460
X193163Y-106460
X199663Y-106460
T6
X168413Y-68460
X185413Y-68460
X168413Y-114460
X185413Y-114460
T0
M30
