G04 #@! TF.FileFunction,Soldermask,Bot*
%FSLAX46Y46*%
G04 Gerber Fmt 4.6, Leading zero omitted, Abs format (unit mm)*
G04 Created by KiCad (PCBNEW 4.0.1-stable) date 2018年09月23日 日曜日 04:00:54*
%MOMM*%
G01*
G04 APERTURE LIST*
%ADD10C,0.100000*%
%ADD11C,1.600000*%
%ADD12R,2.000000X1.900000*%
%ADD13C,1.900000*%
%ADD14C,1.400000*%
%ADD15R,1.400000X1.400000*%
%ADD16C,1.500000*%
%ADD17C,2.100000*%
%ADD18C,1.050000*%
%ADD19R,1.050000X1.050000*%
%ADD20C,1.800000*%
%ADD21C,1.300000*%
%ADD22C,2.500000*%
G04 APERTURE END LIST*
D10*
D11*
X50000000Y-17950000D03*
X52000000Y-17950000D03*
D12*
X32000000Y-6000000D03*
D13*
X32000000Y-3460000D03*
D12*
X32000000Y-74000000D03*
D13*
X32000000Y-76540000D03*
D10*
G36*
X5378858Y-32035355D02*
X4035355Y-33378858D01*
X2621142Y-31964645D01*
X3964645Y-30621142D01*
X5378858Y-32035355D01*
X5378858Y-32035355D01*
G37*
D13*
X5796051Y-30203949D03*
D10*
G36*
X3964645Y-49378858D02*
X2621142Y-48035355D01*
X4035355Y-46621142D01*
X5378858Y-47964645D01*
X3964645Y-49378858D01*
X3964645Y-49378858D01*
G37*
D13*
X5796051Y-49796051D03*
D14*
X8783879Y-57089803D03*
X7347038Y-55652962D03*
D10*
G36*
X4920248Y-54216121D02*
X5910197Y-53226172D01*
X6900146Y-54216121D01*
X5910197Y-55206070D01*
X4920248Y-54216121D01*
X4920248Y-54216121D01*
G37*
D14*
X34905000Y-72532000D03*
X34905000Y-70500000D03*
D15*
X34905000Y-68468000D03*
D14*
X34905000Y-11532000D03*
X34905000Y-9500000D03*
D15*
X34905000Y-7468000D03*
D14*
X5910197Y-25783879D03*
X7347038Y-24347038D03*
D10*
G36*
X8783879Y-21920248D02*
X9773828Y-22910197D01*
X8783879Y-23900146D01*
X7793930Y-22910197D01*
X8783879Y-21920248D01*
X8783879Y-21920248D01*
G37*
D16*
X52230000Y-1860000D03*
X52230000Y-4400000D03*
X52230000Y-6940000D03*
D17*
X44444000Y-75524000D03*
X51048000Y-75524000D03*
X97556000Y-49476000D03*
X90952000Y-49476000D03*
D18*
X47905000Y-59984000D03*
X45365000Y-59984000D03*
X44095000Y-59984000D03*
D19*
X46635000Y-59984000D03*
D20*
X92350000Y-62930000D03*
X92350000Y-65470000D03*
X92350000Y-68010000D03*
X92350000Y-70550000D03*
X92350000Y-73090000D03*
X94890000Y-62930000D03*
X94890000Y-65470000D03*
X94890000Y-68010000D03*
X94890000Y-70550000D03*
X94890000Y-73090000D03*
X92350000Y-6930000D03*
X92350000Y-9470000D03*
X92350000Y-12010000D03*
X92350000Y-14550000D03*
X92350000Y-17090000D03*
X94890000Y-6930000D03*
X94890000Y-9470000D03*
X94890000Y-12010000D03*
X94890000Y-14550000D03*
X94890000Y-17090000D03*
X54113000Y-35876000D03*
X56653000Y-35876000D03*
X59193000Y-35876000D03*
X61733000Y-35876000D03*
X64273000Y-35876000D03*
X64223000Y-43476000D03*
X61683000Y-43476000D03*
X59143000Y-43476000D03*
X56603000Y-43476000D03*
X54063000Y-43476000D03*
D21*
X97050000Y-36050000D03*
X97050000Y-37550000D03*
X97050000Y-39050000D03*
X97050000Y-40550000D03*
X97050000Y-42050000D03*
X97050000Y-43550000D03*
D22*
X66400000Y-17000000D03*
X83400000Y-17000000D03*
X66400000Y-63000000D03*
X83400000Y-63000000D03*
M02*
