G04 #@! TF.FileFunction,Legend,Top*
%FSLAX46Y46*%
G04 Gerber Fmt 4.6, Leading zero omitted, Abs format (unit mm)*
G04 Created by KiCad (PCBNEW 4.0.1-stable) date 2018年08月25日 土曜日 19:37:46*
%MOMM*%
G01*
G04 APERTURE LIST*
%ADD10C,0.100000*%
%ADD11C,0.150000*%
G04 APERTURE END LIST*
D10*
D11*
X-26924000Y-6350000D02*
X-26924000Y-2794000D01*
X-29464000Y-2794000D02*
X-26924000Y-2794000D01*
X-29464000Y-6350000D02*
X-26924000Y-6350000D01*
X-26924000Y-6350000D02*
X-29464000Y-6350000D01*
X-29464000Y-6350000D02*
X-29464000Y-2794000D01*
X-29464000Y-2794000D02*
X-29464000Y-6350000D01*
X-22352000Y-6350000D02*
X-22352000Y-2794000D01*
X-24892000Y-2794000D02*
X-22352000Y-2794000D01*
X-24892000Y-6350000D02*
X-22352000Y-6350000D01*
X-22352000Y-6350000D02*
X-24892000Y-6350000D01*
X-24892000Y-6350000D02*
X-24892000Y-2794000D01*
X-24892000Y-2794000D02*
X-24892000Y-6350000D01*
X-29210000Y-7620000D02*
X-22860000Y-7620000D01*
X-22860000Y-14732000D02*
X-22860000Y-11684000D01*
X-29210000Y-14732000D02*
X-22860000Y-14732000D01*
X-22860000Y-10668000D02*
X-22860000Y-7620000D01*
X-29210000Y-11684000D02*
X-29210000Y-14732000D01*
X-29210000Y-10668000D02*
X-29210000Y-7620000D01*
X-18796000Y-6350000D02*
X-18796000Y-2794000D01*
X-21336000Y-2794000D02*
X-18796000Y-2794000D01*
X-21336000Y-6350000D02*
X-18796000Y-6350000D01*
X-18796000Y-6350000D02*
X-21336000Y-6350000D01*
X-21336000Y-6350000D02*
X-21336000Y-2794000D01*
X-21336000Y-2794000D02*
X-21336000Y-6350000D01*
X-14224000Y-6350000D02*
X-14224000Y-2794000D01*
X-16764000Y-2794000D02*
X-14224000Y-2794000D01*
X-16764000Y-6350000D02*
X-14224000Y-6350000D01*
X-14224000Y-6350000D02*
X-16764000Y-6350000D01*
X-16764000Y-6350000D02*
X-16764000Y-2794000D01*
X-16764000Y-2794000D02*
X-16764000Y-6350000D01*
X-21082000Y-7620000D02*
X-14732000Y-7620000D01*
X-14732000Y-14732000D02*
X-14732000Y-11684000D01*
X-21082000Y-14732000D02*
X-14732000Y-14732000D01*
X-14732000Y-10668000D02*
X-14732000Y-7620000D01*
X-21082000Y-11684000D02*
X-21082000Y-14732000D01*
X-21082000Y-10668000D02*
X-21082000Y-7620000D01*
X-11201400Y-23723600D02*
X-11201400Y-24739600D01*
X-10693400Y-24739600D02*
X-10693400Y-23723600D01*
X-10693400Y-24739600D02*
X-11201400Y-24739600D01*
X-10693400Y-23723600D02*
X-10693400Y-24739600D01*
X-10693400Y-23723600D02*
X-11201400Y-23723600D01*
X-10693400Y-23723600D02*
X-11201400Y-23723600D01*
X-11201400Y-23723600D02*
X-10693400Y-23723600D01*
X-22225000Y-19050000D02*
X-22225000Y-20066000D01*
X-21717000Y-20066000D02*
X-21717000Y-19050000D01*
X-21717000Y-20066000D02*
X-22225000Y-20066000D01*
X-21717000Y-19050000D02*
X-21717000Y-20066000D01*
X-21717000Y-19050000D02*
X-22225000Y-19050000D01*
X-21717000Y-19050000D02*
X-22225000Y-19050000D01*
X-22225000Y-19050000D02*
X-21717000Y-19050000D01*
X-41402000Y-15240000D02*
X-41402000Y-13716000D01*
X-38100000Y-15240000D02*
X-41402000Y-15240000D01*
X-38100000Y-13716000D02*
X-38100000Y-15240000D01*
X-38100000Y-13716000D02*
X-41402000Y-13716000D01*
X-41402000Y-31496000D02*
X-41402000Y-29972000D01*
X-38100000Y-31496000D02*
X-41402000Y-31496000D01*
X-38100000Y-29972000D02*
X-38100000Y-31496000D01*
X-38100000Y-29972000D02*
X-41402000Y-29972000D01*
X26924000Y-16002000D02*
X28448000Y-16002000D01*
X26924000Y-19304000D02*
X26924000Y-16002000D01*
X28448000Y-19304000D02*
X26924000Y-19304000D01*
X28448000Y-19304000D02*
X28448000Y-16002000D01*
X42773600Y-12903200D02*
X42773600Y-19253200D01*
X35661600Y-19253200D02*
X38709600Y-19253200D01*
X35661600Y-12903200D02*
X35661600Y-19253200D01*
X39725600Y-19253200D02*
X42773600Y-19253200D01*
X38709600Y-12903200D02*
X35661600Y-12903200D01*
X39725600Y-12903200D02*
X42773600Y-12903200D01*
X29972000Y-16002000D02*
X31496000Y-16002000D01*
X29972000Y-19304000D02*
X29972000Y-16002000D01*
X31496000Y-19304000D02*
X29972000Y-19304000D01*
X31496000Y-19304000D02*
X31496000Y-16002000D01*
X33020000Y-16002000D02*
X34544000Y-16002000D01*
X33020000Y-19304000D02*
X33020000Y-16002000D01*
X34544000Y-19304000D02*
X33020000Y-19304000D01*
X34544000Y-19304000D02*
X34544000Y-16002000D01*
X2032000Y-45974000D02*
X-1524000Y-45974000D01*
X-1524000Y-48514000D02*
X-1524000Y-45974000D01*
X2032000Y-48514000D02*
X2032000Y-45974000D01*
X2032000Y-45974000D02*
X2032000Y-48514000D01*
X2032000Y-48514000D02*
X-1524000Y-48514000D01*
X-1524000Y-48514000D02*
X2032000Y-48514000D01*
X-6096000Y-48514000D02*
X-2540000Y-48514000D01*
X-2540000Y-45974000D02*
X-2540000Y-48514000D01*
X-6096000Y-45974000D02*
X-6096000Y-48514000D01*
X-6096000Y-48514000D02*
X-6096000Y-45974000D01*
X-6096000Y-45974000D02*
X-2540000Y-45974000D01*
X-2540000Y-45974000D02*
X-6096000Y-45974000D01*
X-5842000Y-45085000D02*
X-4826000Y-45085000D01*
X-4826000Y-44577000D02*
X-5842000Y-44577000D01*
X-4826000Y-44577000D02*
X-4826000Y-45085000D01*
X-5842000Y-44577000D02*
X-4826000Y-44577000D01*
X-5842000Y-44577000D02*
X-5842000Y-45085000D01*
X-5842000Y-44577000D02*
X-5842000Y-45085000D01*
X-5842000Y-45085000D02*
X-5842000Y-44577000D01*
X-2638000Y-1062000D02*
X-2638000Y-6062000D01*
X-8638000Y-1062000D02*
X-8638000Y-6062000D01*
X-5638000Y-6062000D02*
X-8638000Y-6062000D01*
X-5638000Y-6062000D02*
X-2638000Y-6062000D01*
X-5638000Y-1062000D02*
X-8638000Y-1062000D01*
X-5638000Y-1062000D02*
X-2638000Y-1062000D01*
X-29337000Y-18415000D02*
X-29337000Y-18161000D01*
X-29464000Y-18034000D02*
X-29464000Y-18542000D01*
X-29083000Y-18288000D02*
X-29464000Y-18542000D01*
X-29083000Y-18288000D02*
X-29464000Y-18034000D01*
X-29083000Y-18034000D02*
X-29083000Y-18542000D01*
X-29718000Y-18288000D02*
X-28829000Y-18288000D01*
X-30607000Y-18796000D02*
X-27940000Y-18796000D01*
X-27940000Y-17780000D02*
X-27940000Y-18796000D01*
X-27940000Y-17780000D02*
X-30607000Y-17780000D01*
X-30607000Y-17780000D02*
X-27940000Y-17780000D01*
X-30607000Y-17780000D02*
X-30607000Y-18796000D01*
X-29337000Y-20701000D02*
X-29337000Y-20447000D01*
X-29464000Y-20320000D02*
X-29464000Y-20828000D01*
X-29083000Y-20574000D02*
X-29464000Y-20828000D01*
X-29083000Y-20574000D02*
X-29464000Y-20320000D01*
X-29083000Y-20320000D02*
X-29083000Y-20828000D01*
X-29718000Y-20574000D02*
X-28829000Y-20574000D01*
X-30607000Y-21082000D02*
X-27940000Y-21082000D01*
X-27940000Y-20066000D02*
X-27940000Y-21082000D01*
X-27940000Y-20066000D02*
X-30607000Y-20066000D01*
X-30607000Y-20066000D02*
X-27940000Y-20066000D01*
X-30607000Y-20066000D02*
X-30607000Y-21082000D01*
X-29337000Y-22987000D02*
X-29337000Y-22733000D01*
X-29464000Y-22606000D02*
X-29464000Y-23114000D01*
X-29083000Y-22860000D02*
X-29464000Y-23114000D01*
X-29083000Y-22860000D02*
X-29464000Y-22606000D01*
X-29083000Y-22606000D02*
X-29083000Y-23114000D01*
X-29718000Y-22860000D02*
X-28829000Y-22860000D01*
X-30607000Y-23368000D02*
X-27940000Y-23368000D01*
X-27940000Y-22352000D02*
X-27940000Y-23368000D01*
X-27940000Y-22352000D02*
X-30607000Y-22352000D01*
X-30607000Y-22352000D02*
X-27940000Y-22352000D01*
X-30607000Y-22352000D02*
X-30607000Y-23368000D01*
X-11049000Y-13589000D02*
X-10795000Y-13589000D01*
X-10668000Y-13462000D02*
X-11176000Y-13462000D01*
X-10922000Y-13843000D02*
X-11176000Y-13462000D01*
X-10922000Y-13843000D02*
X-10668000Y-13462000D01*
X-10668000Y-13843000D02*
X-11176000Y-13843000D01*
X-10922000Y-13208000D02*
X-10922000Y-14097000D01*
X-11430000Y-12319000D02*
X-11430000Y-14986000D01*
X-10414000Y-14986000D02*
X-11430000Y-14986000D01*
X-10414000Y-14986000D02*
X-10414000Y-12319000D01*
X-10414000Y-12319000D02*
X-10414000Y-14986000D01*
X-10414000Y-12319000D02*
X-11430000Y-12319000D01*
X-13715096Y5389112D02*
G75*
G03X-16740000Y5374000I-1524904J2484888D01*
G01*
X-13740000Y5374000D02*
X-16740000Y5374000D01*
X-12722064Y7874000D02*
G75*
G03X-12722064Y7874000I-2517936J0D01*
G01*
X-16764904Y-61269112D02*
G75*
G03X-13740000Y-61254000I1524904J-2484888D01*
G01*
X-16740000Y-61254000D02*
X-13740000Y-61254000D01*
X-12722064Y-63754000D02*
G75*
G03X-12722064Y-63754000I-2517936J0D01*
G01*
X-50765215Y-21684674D02*
G75*
G03X-48615598Y-23812919I-678811J-2835352D01*
G01*
X-50736919Y-21691598D02*
X-48615598Y-23812919D01*
X-48926090Y-24520026D02*
G75*
G03X-48926090Y-24520026I-2517936J0D01*
G01*
X-48608674Y-32038785D02*
G75*
G03X-50736919Y-34188402I-2835352J678811D01*
G01*
X-48615598Y-32067081D02*
X-50736919Y-34188402D01*
X-48926090Y-31359974D02*
G75*
G03X-48926090Y-31359974I-2517936J0D01*
G01*
X127000Y-40767000D02*
X127000Y-40513000D01*
X0Y-40386000D02*
X0Y-40894000D01*
X381000Y-40640000D02*
X0Y-40894000D01*
X381000Y-40640000D02*
X0Y-40386000D01*
X381000Y-40386000D02*
X381000Y-40894000D01*
X-254000Y-40640000D02*
X635000Y-40640000D01*
X-1143000Y-41148000D02*
X1524000Y-41148000D01*
X1524000Y-40132000D02*
X1524000Y-41148000D01*
X1524000Y-40132000D02*
X-1143000Y-40132000D01*
X-1143000Y-40132000D02*
X1524000Y-40132000D01*
X-1143000Y-40132000D02*
X-1143000Y-41148000D01*
X-39116000Y-21844000D02*
X-34036000Y-21844000D01*
X-34036000Y-17780000D02*
X-34036000Y-21844000D01*
X-39116000Y-17780000D02*
X-34036000Y-17780000D01*
X-39116000Y-17780000D02*
X-39116000Y-21844000D01*
X-39116000Y-38100000D02*
X-34036000Y-38100000D01*
X-34036000Y-34036000D02*
X-34036000Y-38100000D01*
X-39116000Y-34036000D02*
X-34036000Y-34036000D01*
X-39116000Y-34036000D02*
X-39116000Y-38100000D01*
X-3814000Y2811000D02*
X-4314000Y2811000D01*
X-4314000Y1761000D02*
X-3814000Y1761000D01*
X-31754000Y-17763000D02*
X-32254000Y-17763000D01*
X-32254000Y-18813000D02*
X-31754000Y-18813000D01*
X-31754000Y-20049000D02*
X-32254000Y-20049000D01*
X-32254000Y-21099000D02*
X-31754000Y-21099000D01*
X-31754000Y-22335000D02*
X-32254000Y-22335000D01*
X-32254000Y-23385000D02*
X-31754000Y-23385000D01*
X-22267400Y-43946000D02*
X-22267400Y-44446000D01*
X-21217400Y-44446000D02*
X-21217400Y-43946000D01*
X-20743400Y-43946000D02*
X-20743400Y-44446000D01*
X-19693400Y-44446000D02*
X-19693400Y-43946000D01*
X-19219400Y-43946000D02*
X-19219400Y-44446000D01*
X-18169400Y-44446000D02*
X-18169400Y-43946000D01*
X-10664000Y-10177000D02*
X-10164000Y-10177000D01*
X-10164000Y-9127000D02*
X-10664000Y-9127000D01*
X-10113200Y-31783800D02*
X-10613200Y-31783800D01*
X-10613200Y-32833800D02*
X-10113200Y-32833800D01*
X-14626400Y-42790600D02*
X-14126400Y-42790600D01*
X-14126400Y-41740600D02*
X-14626400Y-41740600D01*
X-10613200Y-34459400D02*
X-10113200Y-34459400D01*
X-10113200Y-33409400D02*
X-10613200Y-33409400D01*
X-41673000Y-22610000D02*
X-41673000Y-23110000D01*
X-40623000Y-23110000D02*
X-40623000Y-22610000D01*
X-42655000Y-23110000D02*
X-42655000Y-22610000D01*
X-43705000Y-22610000D02*
X-43705000Y-23110000D01*
X-41673000Y-38612000D02*
X-41673000Y-39112000D01*
X-40623000Y-39112000D02*
X-40623000Y-38612000D01*
X-42655000Y-39112000D02*
X-42655000Y-38612000D01*
X-43705000Y-38612000D02*
X-43705000Y-39112000D01*
X-44687000Y-23110000D02*
X-44687000Y-22610000D01*
X-45737000Y-22610000D02*
X-45737000Y-23110000D01*
X-44687000Y-39112000D02*
X-44687000Y-38612000D01*
X-45737000Y-38612000D02*
X-45737000Y-39112000D01*
X-40623000Y-17014000D02*
X-40623000Y-16514000D01*
X-41673000Y-16514000D02*
X-41673000Y-17014000D01*
X-40623000Y-33270000D02*
X-40623000Y-32770000D01*
X-41673000Y-32770000D02*
X-41673000Y-33270000D01*
X-45737000Y-16514000D02*
X-45737000Y-17014000D01*
X-44687000Y-17014000D02*
X-44687000Y-16514000D01*
X-42655000Y-17014000D02*
X-42655000Y-16514000D01*
X-43705000Y-16514000D02*
X-43705000Y-17014000D01*
X-45737000Y-32770000D02*
X-45737000Y-33270000D01*
X-44687000Y-33270000D02*
X-44687000Y-32770000D01*
X-42655000Y-33270000D02*
X-42655000Y-32770000D01*
X-43705000Y-32770000D02*
X-43705000Y-33270000D01*
X29206000Y-38845000D02*
X28706000Y-38845000D01*
X28706000Y-39895000D02*
X29206000Y-39895000D01*
X29206000Y-36813000D02*
X28706000Y-36813000D01*
X28706000Y-37863000D02*
X29206000Y-37863000D01*
X-4000Y-38083000D02*
X-504000Y-38083000D01*
X-504000Y-39133000D02*
X-4000Y-39133000D01*
X33257000Y-33278000D02*
X33257000Y-33778000D01*
X34307000Y-33778000D02*
X34307000Y-33278000D01*
X-28126200Y-30425200D02*
X-28126200Y-29925200D01*
X-29176200Y-29925200D02*
X-29176200Y-30425200D01*
X-8890000Y-13208000D02*
X-2286000Y-13208000D01*
X-2286000Y-9652000D02*
X-2286000Y-13208000D01*
X-8890000Y-9652000D02*
X-2286000Y-9652000D01*
X-8890000Y-9652000D02*
X-8890000Y-13208000D01*
X-8890000Y-41148000D02*
X-2286000Y-41148000D01*
X-2286000Y-37592000D02*
X-2286000Y-41148000D01*
X-8890000Y-37592000D02*
X-2286000Y-37592000D01*
X-8890000Y-37592000D02*
X-8890000Y-41148000D01*
X33909000Y-45974000D02*
X39751000Y-45974000D01*
X33909000Y-40894000D02*
X39751000Y-40894000D01*
X39751000Y-40894000D02*
X39751000Y-45974000D01*
X33909000Y-40894000D02*
X33909000Y-45974000D01*
X-13342000Y-22960000D02*
X-22542000Y-22960000D01*
X-13242000Y-33160000D02*
X-13342000Y-22960000D01*
X-23742000Y-33160000D02*
X-13242000Y-33160000D01*
X-23742000Y-22960000D02*
X-23742000Y-33160000D01*
X-22542000Y-22960000D02*
X-23742000Y-22960000D01*
X33872000Y-67056000D02*
X33872000Y-46736000D01*
X42672000Y-46736000D02*
X33872000Y-46736000D01*
X42672000Y-67056000D02*
X33872000Y-67056000D01*
X42672000Y-67056000D02*
X42672000Y-46736000D01*
X33872000Y-9144000D02*
X33872000Y11176000D01*
X42672000Y11176000D02*
X33872000Y11176000D01*
X42672000Y-9144000D02*
X33872000Y-9144000D01*
X42672000Y-9144000D02*
X42672000Y11176000D01*
X38284000Y-33444000D02*
X41784000Y-33444000D01*
X38284000Y-22944000D02*
X41784000Y-22944000D01*
X41784000Y-28194000D02*
X41784000Y-22944000D01*
X41784000Y-28194000D02*
X41784000Y-33444000D01*
X38284000Y-28194000D02*
X38284000Y-33444000D01*
X38284000Y-31544000D02*
X38284000Y-28194000D01*
X38284000Y-28194000D02*
X38284000Y-22944000D01*
X6045200Y-10127000D02*
X31045200Y-10127000D01*
X31045200Y-127000D02*
X31045200Y-10127000D01*
X6045200Y-127000D02*
X31045200Y-127000D01*
X6045200Y-127000D02*
X6045200Y-10127000D01*
X6045200Y-55872400D02*
X31045200Y-55872400D01*
X31045200Y-45872400D02*
X31045200Y-55872400D01*
X6045200Y-45872400D02*
X31045200Y-45872400D01*
X6045200Y-45872400D02*
X6045200Y-55872400D01*
X-25169857Y-4738666D02*
X-25122238Y-4786285D01*
X-25074619Y-4929142D01*
X-25074619Y-5024380D01*
X-25122238Y-5167238D01*
X-25217476Y-5262476D01*
X-25312714Y-5310095D01*
X-25503190Y-5357714D01*
X-25646048Y-5357714D01*
X-25836524Y-5310095D01*
X-25931762Y-5262476D01*
X-26027000Y-5167238D01*
X-26074619Y-5024380D01*
X-26074619Y-4929142D01*
X-26027000Y-4786285D01*
X-25979381Y-4738666D01*
X-25074619Y-3786285D02*
X-25074619Y-4357714D01*
X-25074619Y-4072000D02*
X-26074619Y-4072000D01*
X-25931762Y-4167238D01*
X-25836524Y-4262476D01*
X-25788905Y-4357714D01*
X-20597857Y-4738666D02*
X-20550238Y-4786285D01*
X-20502619Y-4929142D01*
X-20502619Y-5024380D01*
X-20550238Y-5167238D01*
X-20645476Y-5262476D01*
X-20740714Y-5310095D01*
X-20931190Y-5357714D01*
X-21074048Y-5357714D01*
X-21264524Y-5310095D01*
X-21359762Y-5262476D01*
X-21455000Y-5167238D01*
X-21502619Y-5024380D01*
X-21502619Y-4929142D01*
X-21455000Y-4786285D01*
X-21407381Y-4738666D01*
X-21407381Y-4357714D02*
X-21455000Y-4310095D01*
X-21502619Y-4214857D01*
X-21502619Y-3976761D01*
X-21455000Y-3881523D01*
X-21407381Y-3833904D01*
X-21312143Y-3786285D01*
X-21216905Y-3786285D01*
X-21074048Y-3833904D01*
X-20502619Y-4405333D01*
X-20502619Y-3786285D01*
X-20470857Y-11342666D02*
X-20423238Y-11390285D01*
X-20375619Y-11533142D01*
X-20375619Y-11628380D01*
X-20423238Y-11771238D01*
X-20518476Y-11866476D01*
X-20613714Y-11914095D01*
X-20804190Y-11961714D01*
X-20947048Y-11961714D01*
X-21137524Y-11914095D01*
X-21232762Y-11866476D01*
X-21328000Y-11771238D01*
X-21375619Y-11628380D01*
X-21375619Y-11533142D01*
X-21328000Y-11390285D01*
X-21280381Y-11342666D01*
X-21375619Y-11009333D02*
X-21375619Y-10390285D01*
X-20994667Y-10723619D01*
X-20994667Y-10580761D01*
X-20947048Y-10485523D01*
X-20899429Y-10437904D01*
X-20804190Y-10390285D01*
X-20566095Y-10390285D01*
X-20470857Y-10437904D01*
X-20423238Y-10485523D01*
X-20375619Y-10580761D01*
X-20375619Y-10866476D01*
X-20423238Y-10961714D01*
X-20470857Y-11009333D01*
X-23804571Y-14096952D02*
X-23804571Y-13335047D01*
X-23423619Y-13715999D02*
X-24185524Y-13715999D01*
X-28630571Y-14096952D02*
X-28630571Y-13335047D01*
X-17041857Y-4738666D02*
X-16994238Y-4786285D01*
X-16946619Y-4929142D01*
X-16946619Y-5024380D01*
X-16994238Y-5167238D01*
X-17089476Y-5262476D01*
X-17184714Y-5310095D01*
X-17375190Y-5357714D01*
X-17518048Y-5357714D01*
X-17708524Y-5310095D01*
X-17803762Y-5262476D01*
X-17899000Y-5167238D01*
X-17946619Y-5024380D01*
X-17946619Y-4929142D01*
X-17899000Y-4786285D01*
X-17851381Y-4738666D01*
X-17613286Y-3881523D02*
X-16946619Y-3881523D01*
X-17994238Y-4119619D02*
X-17279952Y-4357714D01*
X-17279952Y-3738666D01*
X-12469857Y-4738666D02*
X-12422238Y-4786285D01*
X-12374619Y-4929142D01*
X-12374619Y-5024380D01*
X-12422238Y-5167238D01*
X-12517476Y-5262476D01*
X-12612714Y-5310095D01*
X-12803190Y-5357714D01*
X-12946048Y-5357714D01*
X-13136524Y-5310095D01*
X-13231762Y-5262476D01*
X-13327000Y-5167238D01*
X-13374619Y-5024380D01*
X-13374619Y-4929142D01*
X-13327000Y-4786285D01*
X-13279381Y-4738666D01*
X-13374619Y-3833904D02*
X-13374619Y-4310095D01*
X-12898429Y-4357714D01*
X-12946048Y-4310095D01*
X-12993667Y-4214857D01*
X-12993667Y-3976761D01*
X-12946048Y-3881523D01*
X-12898429Y-3833904D01*
X-12803190Y-3786285D01*
X-12565095Y-3786285D01*
X-12469857Y-3833904D01*
X-12422238Y-3881523D01*
X-12374619Y-3976761D01*
X-12374619Y-4214857D01*
X-12422238Y-4310095D01*
X-12469857Y-4357714D01*
X-12342857Y-11342666D02*
X-12295238Y-11390285D01*
X-12247619Y-11533142D01*
X-12247619Y-11628380D01*
X-12295238Y-11771238D01*
X-12390476Y-11866476D01*
X-12485714Y-11914095D01*
X-12676190Y-11961714D01*
X-12819048Y-11961714D01*
X-13009524Y-11914095D01*
X-13104762Y-11866476D01*
X-13200000Y-11771238D01*
X-13247619Y-11628380D01*
X-13247619Y-11533142D01*
X-13200000Y-11390285D01*
X-13152381Y-11342666D01*
X-13247619Y-10485523D02*
X-13247619Y-10676000D01*
X-13200000Y-10771238D01*
X-13152381Y-10818857D01*
X-13009524Y-10914095D01*
X-12819048Y-10961714D01*
X-12438095Y-10961714D01*
X-12342857Y-10914095D01*
X-12295238Y-10866476D01*
X-12247619Y-10771238D01*
X-12247619Y-10580761D01*
X-12295238Y-10485523D01*
X-12342857Y-10437904D01*
X-12438095Y-10390285D01*
X-12676190Y-10390285D01*
X-12771429Y-10437904D01*
X-12819048Y-10485523D01*
X-12866667Y-10580761D01*
X-12866667Y-10771238D01*
X-12819048Y-10866476D01*
X-12771429Y-10914095D01*
X-12676190Y-10961714D01*
X-15676571Y-14096952D02*
X-15676571Y-13335047D01*
X-15295619Y-13715999D02*
X-16057524Y-13715999D01*
X-20502571Y-14096952D02*
X-20502571Y-13335047D01*
X-12233257Y-24398266D02*
X-12185638Y-24445885D01*
X-12138019Y-24588742D01*
X-12138019Y-24683980D01*
X-12185638Y-24826838D01*
X-12280876Y-24922076D01*
X-12376114Y-24969695D01*
X-12566590Y-25017314D01*
X-12709448Y-25017314D01*
X-12899924Y-24969695D01*
X-12995162Y-24922076D01*
X-13090400Y-24826838D01*
X-13138019Y-24683980D01*
X-13138019Y-24588742D01*
X-13090400Y-24445885D01*
X-13042781Y-24398266D01*
X-13138019Y-24064933D02*
X-13138019Y-23398266D01*
X-12138019Y-23826838D01*
X-23256857Y-19724666D02*
X-23209238Y-19772285D01*
X-23161619Y-19915142D01*
X-23161619Y-20010380D01*
X-23209238Y-20153238D01*
X-23304476Y-20248476D01*
X-23399714Y-20296095D01*
X-23590190Y-20343714D01*
X-23733048Y-20343714D01*
X-23923524Y-20296095D01*
X-24018762Y-20248476D01*
X-24114000Y-20153238D01*
X-24161619Y-20010380D01*
X-24161619Y-19915142D01*
X-24114000Y-19772285D01*
X-24066381Y-19724666D01*
X-23733048Y-19153238D02*
X-23780667Y-19248476D01*
X-23828286Y-19296095D01*
X-23923524Y-19343714D01*
X-23971143Y-19343714D01*
X-24066381Y-19296095D01*
X-24114000Y-19248476D01*
X-24161619Y-19153238D01*
X-24161619Y-18962761D01*
X-24114000Y-18867523D01*
X-24066381Y-18819904D01*
X-23971143Y-18772285D01*
X-23923524Y-18772285D01*
X-23828286Y-18819904D01*
X-23780667Y-18867523D01*
X-23733048Y-18962761D01*
X-23733048Y-19153238D01*
X-23685429Y-19248476D01*
X-23637810Y-19296095D01*
X-23542571Y-19343714D01*
X-23352095Y-19343714D01*
X-23256857Y-19296095D01*
X-23209238Y-19248476D01*
X-23161619Y-19153238D01*
X-23161619Y-18962761D01*
X-23209238Y-18867523D01*
X-23256857Y-18819904D01*
X-23352095Y-18772285D01*
X-23542571Y-18772285D01*
X-23637810Y-18819904D01*
X-23685429Y-18867523D01*
X-23733048Y-18962761D01*
X-39282666Y-13065143D02*
X-39330285Y-13112762D01*
X-39473142Y-13160381D01*
X-39568380Y-13160381D01*
X-39711238Y-13112762D01*
X-39806476Y-13017524D01*
X-39854095Y-12922286D01*
X-39901714Y-12731810D01*
X-39901714Y-12588952D01*
X-39854095Y-12398476D01*
X-39806476Y-12303238D01*
X-39711238Y-12208000D01*
X-39568380Y-12160381D01*
X-39473142Y-12160381D01*
X-39330285Y-12208000D01*
X-39282666Y-12255619D01*
X-38806476Y-13160381D02*
X-38616000Y-13160381D01*
X-38520761Y-13112762D01*
X-38473142Y-13065143D01*
X-38377904Y-12922286D01*
X-38330285Y-12731810D01*
X-38330285Y-12350857D01*
X-38377904Y-12255619D01*
X-38425523Y-12208000D01*
X-38520761Y-12160381D01*
X-38711238Y-12160381D01*
X-38806476Y-12208000D01*
X-38854095Y-12255619D01*
X-38901714Y-12350857D01*
X-38901714Y-12588952D01*
X-38854095Y-12684190D01*
X-38806476Y-12731810D01*
X-38711238Y-12779429D01*
X-38520761Y-12779429D01*
X-38425523Y-12731810D01*
X-38377904Y-12684190D01*
X-38330285Y-12588952D01*
X-39758857Y-29321143D02*
X-39806476Y-29368762D01*
X-39949333Y-29416381D01*
X-40044571Y-29416381D01*
X-40187429Y-29368762D01*
X-40282667Y-29273524D01*
X-40330286Y-29178286D01*
X-40377905Y-28987810D01*
X-40377905Y-28844952D01*
X-40330286Y-28654476D01*
X-40282667Y-28559238D01*
X-40187429Y-28464000D01*
X-40044571Y-28416381D01*
X-39949333Y-28416381D01*
X-39806476Y-28464000D01*
X-39758857Y-28511619D01*
X-38806476Y-29416381D02*
X-39377905Y-29416381D01*
X-39092191Y-29416381D02*
X-39092191Y-28416381D01*
X-39187429Y-28559238D01*
X-39282667Y-28654476D01*
X-39377905Y-28702095D01*
X-38187429Y-28416381D02*
X-38092190Y-28416381D01*
X-37996952Y-28464000D01*
X-37949333Y-28511619D01*
X-37901714Y-28606857D01*
X-37854095Y-28797333D01*
X-37854095Y-29035429D01*
X-37901714Y-29225905D01*
X-37949333Y-29321143D01*
X-37996952Y-29368762D01*
X-38092190Y-29416381D01*
X-38187429Y-29416381D01*
X-38282667Y-29368762D01*
X-38330286Y-29321143D01*
X-38377905Y-29225905D01*
X-38425524Y-29035429D01*
X-38425524Y-28797333D01*
X-38377905Y-28606857D01*
X-38330286Y-28511619D01*
X-38282667Y-28464000D01*
X-38187429Y-28416381D01*
X29813143Y-18930857D02*
X29860762Y-18978476D01*
X29908381Y-19121333D01*
X29908381Y-19216571D01*
X29860762Y-19359429D01*
X29765524Y-19454667D01*
X29670286Y-19502286D01*
X29479810Y-19549905D01*
X29336952Y-19549905D01*
X29146476Y-19502286D01*
X29051238Y-19454667D01*
X28956000Y-19359429D01*
X28908381Y-19216571D01*
X28908381Y-19121333D01*
X28956000Y-18978476D01*
X29003619Y-18930857D01*
X29908381Y-17978476D02*
X29908381Y-18549905D01*
X29908381Y-18264191D02*
X28908381Y-18264191D01*
X29051238Y-18359429D01*
X29146476Y-18454667D01*
X29194095Y-18549905D01*
X29908381Y-17026095D02*
X29908381Y-17597524D01*
X29908381Y-17311810D02*
X28908381Y-17311810D01*
X29051238Y-17407048D01*
X29146476Y-17502286D01*
X29194095Y-17597524D01*
X38574743Y-21642343D02*
X38527124Y-21689962D01*
X38384267Y-21737581D01*
X38289029Y-21737581D01*
X38146171Y-21689962D01*
X38050933Y-21594724D01*
X38003314Y-21499486D01*
X37955695Y-21309010D01*
X37955695Y-21166152D01*
X38003314Y-20975676D01*
X38050933Y-20880438D01*
X38146171Y-20785200D01*
X38289029Y-20737581D01*
X38384267Y-20737581D01*
X38527124Y-20785200D01*
X38574743Y-20832819D01*
X39527124Y-21737581D02*
X38955695Y-21737581D01*
X39241409Y-21737581D02*
X39241409Y-20737581D01*
X39146171Y-20880438D01*
X39050933Y-20975676D01*
X38955695Y-21023295D01*
X39908076Y-20832819D02*
X39955695Y-20785200D01*
X40050933Y-20737581D01*
X40289029Y-20737581D01*
X40384267Y-20785200D01*
X40431886Y-20832819D01*
X40479505Y-20928057D01*
X40479505Y-21023295D01*
X40431886Y-21166152D01*
X39860457Y-21737581D01*
X40479505Y-21737581D01*
X36296648Y-18308629D02*
X37058553Y-18308629D01*
X36677601Y-18689581D02*
X36677601Y-17927676D01*
X36296648Y-13482629D02*
X37058553Y-13482629D01*
X32861143Y-18930857D02*
X32908762Y-18978476D01*
X32956381Y-19121333D01*
X32956381Y-19216571D01*
X32908762Y-19359429D01*
X32813524Y-19454667D01*
X32718286Y-19502286D01*
X32527810Y-19549905D01*
X32384952Y-19549905D01*
X32194476Y-19502286D01*
X32099238Y-19454667D01*
X32004000Y-19359429D01*
X31956381Y-19216571D01*
X31956381Y-19121333D01*
X32004000Y-18978476D01*
X32051619Y-18930857D01*
X32956381Y-17978476D02*
X32956381Y-18549905D01*
X32956381Y-18264191D02*
X31956381Y-18264191D01*
X32099238Y-18359429D01*
X32194476Y-18454667D01*
X32242095Y-18549905D01*
X31956381Y-17645143D02*
X31956381Y-17026095D01*
X32337333Y-17359429D01*
X32337333Y-17216571D01*
X32384952Y-17121333D01*
X32432571Y-17073714D01*
X32527810Y-17026095D01*
X32765905Y-17026095D01*
X32861143Y-17073714D01*
X32908762Y-17121333D01*
X32956381Y-17216571D01*
X32956381Y-17502286D01*
X32908762Y-17597524D01*
X32861143Y-17645143D01*
X35909143Y-18930857D02*
X35956762Y-18978476D01*
X36004381Y-19121333D01*
X36004381Y-19216571D01*
X35956762Y-19359429D01*
X35861524Y-19454667D01*
X35766286Y-19502286D01*
X35575810Y-19549905D01*
X35432952Y-19549905D01*
X35242476Y-19502286D01*
X35147238Y-19454667D01*
X35052000Y-19359429D01*
X35004381Y-19216571D01*
X35004381Y-19121333D01*
X35052000Y-18978476D01*
X35099619Y-18930857D01*
X36004381Y-17978476D02*
X36004381Y-18549905D01*
X36004381Y-18264191D02*
X35004381Y-18264191D01*
X35147238Y-18359429D01*
X35242476Y-18454667D01*
X35290095Y-18549905D01*
X35337714Y-17121333D02*
X36004381Y-17121333D01*
X34956762Y-17359429D02*
X35671048Y-17597524D01*
X35671048Y-16978476D01*
X-388857Y-44934143D02*
X-436476Y-44981762D01*
X-579333Y-45029381D01*
X-674571Y-45029381D01*
X-817429Y-44981762D01*
X-912667Y-44886524D01*
X-960286Y-44791286D01*
X-1007905Y-44600810D01*
X-1007905Y-44457952D01*
X-960286Y-44267476D01*
X-912667Y-44172238D01*
X-817429Y-44077000D01*
X-674571Y-44029381D01*
X-579333Y-44029381D01*
X-436476Y-44077000D01*
X-388857Y-44124619D01*
X563524Y-45029381D02*
X-7905Y-45029381D01*
X277809Y-45029381D02*
X277809Y-44029381D01*
X182571Y-44172238D01*
X87333Y-44267476D01*
X-7905Y-44315095D01*
X1468286Y-44029381D02*
X992095Y-44029381D01*
X944476Y-44505571D01*
X992095Y-44457952D01*
X1087333Y-44410333D01*
X1325429Y-44410333D01*
X1420667Y-44457952D01*
X1468286Y-44505571D01*
X1515905Y-44600810D01*
X1515905Y-44838905D01*
X1468286Y-44934143D01*
X1420667Y-44981762D01*
X1325429Y-45029381D01*
X1087333Y-45029381D01*
X992095Y-44981762D01*
X944476Y-44934143D01*
X-4960857Y-50268143D02*
X-5008476Y-50315762D01*
X-5151333Y-50363381D01*
X-5246571Y-50363381D01*
X-5389429Y-50315762D01*
X-5484667Y-50220524D01*
X-5532286Y-50125286D01*
X-5579905Y-49934810D01*
X-5579905Y-49791952D01*
X-5532286Y-49601476D01*
X-5484667Y-49506238D01*
X-5389429Y-49411000D01*
X-5246571Y-49363381D01*
X-5151333Y-49363381D01*
X-5008476Y-49411000D01*
X-4960857Y-49458619D01*
X-4008476Y-50363381D02*
X-4579905Y-50363381D01*
X-4294191Y-50363381D02*
X-4294191Y-49363381D01*
X-4389429Y-49506238D01*
X-4484667Y-49601476D01*
X-4579905Y-49649095D01*
X-3151333Y-49363381D02*
X-3341810Y-49363381D01*
X-3437048Y-49411000D01*
X-3484667Y-49458619D01*
X-3579905Y-49601476D01*
X-3627524Y-49791952D01*
X-3627524Y-50172905D01*
X-3579905Y-50268143D01*
X-3532286Y-50315762D01*
X-3437048Y-50363381D01*
X-3246571Y-50363381D01*
X-3151333Y-50315762D01*
X-3103714Y-50268143D01*
X-3056095Y-50172905D01*
X-3056095Y-49934810D01*
X-3103714Y-49839571D01*
X-3151333Y-49791952D01*
X-3246571Y-49744333D01*
X-3437048Y-49744333D01*
X-3532286Y-49791952D01*
X-3579905Y-49839571D01*
X-3627524Y-49934810D01*
X-5976857Y-46831143D02*
X-6024476Y-46878762D01*
X-6167333Y-46926381D01*
X-6262571Y-46926381D01*
X-6405429Y-46878762D01*
X-6500667Y-46783524D01*
X-6548286Y-46688286D01*
X-6595905Y-46497810D01*
X-6595905Y-46354952D01*
X-6548286Y-46164476D01*
X-6500667Y-46069238D01*
X-6405429Y-45974000D01*
X-6262571Y-45926381D01*
X-6167333Y-45926381D01*
X-6024476Y-45974000D01*
X-5976857Y-46021619D01*
X-5024476Y-46926381D02*
X-5595905Y-46926381D01*
X-5310191Y-46926381D02*
X-5310191Y-45926381D01*
X-5405429Y-46069238D01*
X-5500667Y-46164476D01*
X-5595905Y-46212095D01*
X-4691143Y-45926381D02*
X-4024476Y-45926381D01*
X-4453048Y-46926381D01*
X-6754666Y-7969143D02*
X-6802285Y-8016762D01*
X-6945142Y-8064381D01*
X-7040380Y-8064381D01*
X-7183238Y-8016762D01*
X-7278476Y-7921524D01*
X-7326095Y-7826286D01*
X-7373714Y-7635810D01*
X-7373714Y-7492952D01*
X-7326095Y-7302476D01*
X-7278476Y-7207238D01*
X-7183238Y-7112000D01*
X-7040380Y-7064381D01*
X-6945142Y-7064381D01*
X-6802285Y-7112000D01*
X-6754666Y-7159619D01*
X-6326095Y-8064381D02*
X-6326095Y-7064381D01*
X-5754666Y-8064381D01*
X-5754666Y-7064381D01*
X-4754666Y-8064381D02*
X-5326095Y-8064381D01*
X-5040381Y-8064381D02*
X-5040381Y-7064381D01*
X-5135619Y-7207238D01*
X-5230857Y-7302476D01*
X-5326095Y-7350095D01*
X-3802285Y-8064381D02*
X-4373714Y-8064381D01*
X-4088000Y-8064381D02*
X-4088000Y-7064381D01*
X-4183238Y-7207238D01*
X-4278476Y-7302476D01*
X-4373714Y-7350095D01*
X-29694095Y-20002381D02*
X-29694095Y-19002381D01*
X-29456000Y-19002381D01*
X-29313142Y-19050000D01*
X-29217904Y-19145238D01*
X-29170285Y-19240476D01*
X-29122666Y-19430952D01*
X-29122666Y-19573810D01*
X-29170285Y-19764286D01*
X-29217904Y-19859524D01*
X-29313142Y-19954762D01*
X-29456000Y-20002381D01*
X-29694095Y-20002381D01*
X-28217904Y-19002381D02*
X-28694095Y-19002381D01*
X-28741714Y-19478571D01*
X-28694095Y-19430952D01*
X-28598857Y-19383333D01*
X-28360761Y-19383333D01*
X-28265523Y-19430952D01*
X-28217904Y-19478571D01*
X-28170285Y-19573810D01*
X-28170285Y-19811905D01*
X-28217904Y-19907143D01*
X-28265523Y-19954762D01*
X-28360761Y-20002381D01*
X-28598857Y-20002381D01*
X-28694095Y-19954762D01*
X-28741714Y-19907143D01*
X-29694095Y-22288381D02*
X-29694095Y-21288381D01*
X-29456000Y-21288381D01*
X-29313142Y-21336000D01*
X-29217904Y-21431238D01*
X-29170285Y-21526476D01*
X-29122666Y-21716952D01*
X-29122666Y-21859810D01*
X-29170285Y-22050286D01*
X-29217904Y-22145524D01*
X-29313142Y-22240762D01*
X-29456000Y-22288381D01*
X-29694095Y-22288381D01*
X-28265523Y-21288381D02*
X-28456000Y-21288381D01*
X-28551238Y-21336000D01*
X-28598857Y-21383619D01*
X-28694095Y-21526476D01*
X-28741714Y-21716952D01*
X-28741714Y-22097905D01*
X-28694095Y-22193143D01*
X-28646476Y-22240762D01*
X-28551238Y-22288381D01*
X-28360761Y-22288381D01*
X-28265523Y-22240762D01*
X-28217904Y-22193143D01*
X-28170285Y-22097905D01*
X-28170285Y-21859810D01*
X-28217904Y-21764571D01*
X-28265523Y-21716952D01*
X-28360761Y-21669333D01*
X-28551238Y-21669333D01*
X-28646476Y-21716952D01*
X-28694095Y-21764571D01*
X-28741714Y-21859810D01*
X-29694095Y-24574381D02*
X-29694095Y-23574381D01*
X-29456000Y-23574381D01*
X-29313142Y-23622000D01*
X-29217904Y-23717238D01*
X-29170285Y-23812476D01*
X-29122666Y-24002952D01*
X-29122666Y-24145810D01*
X-29170285Y-24336286D01*
X-29217904Y-24431524D01*
X-29313142Y-24526762D01*
X-29456000Y-24574381D01*
X-29694095Y-24574381D01*
X-28789333Y-23574381D02*
X-28122666Y-23574381D01*
X-28551238Y-24574381D01*
X-11731619Y-14708095D02*
X-12731619Y-14708095D01*
X-12731619Y-14470000D01*
X-12684000Y-14327142D01*
X-12588762Y-14231904D01*
X-12493524Y-14184285D01*
X-12303048Y-14136666D01*
X-12160190Y-14136666D01*
X-11969714Y-14184285D01*
X-11874476Y-14231904D01*
X-11779238Y-14327142D01*
X-11731619Y-14470000D01*
X-11731619Y-14708095D01*
X-12303048Y-13565238D02*
X-12350667Y-13660476D01*
X-12398286Y-13708095D01*
X-12493524Y-13755714D01*
X-12541143Y-13755714D01*
X-12636381Y-13708095D01*
X-12684000Y-13660476D01*
X-12731619Y-13565238D01*
X-12731619Y-13374761D01*
X-12684000Y-13279523D01*
X-12636381Y-13231904D01*
X-12541143Y-13184285D01*
X-12493524Y-13184285D01*
X-12398286Y-13231904D01*
X-12350667Y-13279523D01*
X-12303048Y-13374761D01*
X-12303048Y-13565238D01*
X-12255429Y-13660476D01*
X-12207810Y-13708095D01*
X-12112571Y-13755714D01*
X-11922095Y-13755714D01*
X-11826857Y-13708095D01*
X-11779238Y-13660476D01*
X-11731619Y-13565238D01*
X-11731619Y-13374761D01*
X-11779238Y-13279523D01*
X-11826857Y-13231904D01*
X-11922095Y-13184285D01*
X-12112571Y-13184285D01*
X-12207810Y-13231904D01*
X-12255429Y-13279523D01*
X-12303048Y-13374761D01*
X-10723619Y7389905D02*
X-11723619Y7389905D01*
X-11723619Y7628000D01*
X-11676000Y7770858D01*
X-11580762Y7866096D01*
X-11485524Y7913715D01*
X-11295048Y7961334D01*
X-11152190Y7961334D01*
X-10961714Y7913715D01*
X-10866476Y7866096D01*
X-10771238Y7770858D01*
X-10723619Y7628000D01*
X-10723619Y7389905D01*
X-10723619Y8437524D02*
X-10723619Y8628000D01*
X-10771238Y8723239D01*
X-10818857Y8770858D01*
X-10961714Y8866096D01*
X-11152190Y8913715D01*
X-11533143Y8913715D01*
X-11628381Y8866096D01*
X-11676000Y8818477D01*
X-11723619Y8723239D01*
X-11723619Y8532762D01*
X-11676000Y8437524D01*
X-11628381Y8389905D01*
X-11533143Y8342286D01*
X-11295048Y8342286D01*
X-11199810Y8389905D01*
X-11152190Y8437524D01*
X-11104571Y8532762D01*
X-11104571Y8723239D01*
X-11152190Y8818477D01*
X-11199810Y8866096D01*
X-11295048Y8913715D01*
X-12882619Y4437095D02*
X-13882619Y4437095D01*
X-12882619Y5008524D02*
X-13454048Y4579952D01*
X-13882619Y5008524D02*
X-13311190Y4437095D01*
X-18851619Y-65222286D02*
X-19851619Y-65222286D01*
X-19851619Y-64984191D01*
X-19804000Y-64841333D01*
X-19708762Y-64746095D01*
X-19613524Y-64698476D01*
X-19423048Y-64650857D01*
X-19280190Y-64650857D01*
X-19089714Y-64698476D01*
X-18994476Y-64746095D01*
X-18899238Y-64841333D01*
X-18851619Y-64984191D01*
X-18851619Y-65222286D01*
X-18851619Y-63698476D02*
X-18851619Y-64269905D01*
X-18851619Y-63984191D02*
X-19851619Y-63984191D01*
X-19708762Y-64079429D01*
X-19613524Y-64174667D01*
X-19565905Y-64269905D01*
X-19851619Y-63079429D02*
X-19851619Y-62984190D01*
X-19804000Y-62888952D01*
X-19756381Y-62841333D01*
X-19661143Y-62793714D01*
X-19470667Y-62746095D01*
X-19232571Y-62746095D01*
X-19042095Y-62793714D01*
X-18946857Y-62841333D01*
X-18899238Y-62888952D01*
X-18851619Y-62984190D01*
X-18851619Y-63079429D01*
X-18899238Y-63174667D01*
X-18946857Y-63222286D01*
X-19042095Y-63269905D01*
X-19232571Y-63317524D01*
X-19470667Y-63317524D01*
X-19661143Y-63269905D01*
X-19756381Y-63222286D01*
X-19804000Y-63174667D01*
X-19851619Y-63079429D01*
X-16692619Y-60840905D02*
X-17692619Y-60840905D01*
X-16692619Y-60269476D02*
X-17264048Y-60698048D01*
X-17692619Y-60269476D02*
X-17121190Y-60840905D01*
X-50411313Y-21432999D02*
X-51118420Y-20725893D01*
X-50007252Y-21028938D02*
X-50714359Y-20927923D01*
X-50714359Y-20321831D02*
X-50714359Y-21129954D01*
X-48356999Y-32392687D02*
X-47649893Y-31685580D01*
X-47952938Y-32796748D02*
X-47851923Y-32089641D01*
X-47245831Y-32089641D02*
X-48053954Y-32089641D01*
X-706286Y-42354381D02*
X-706286Y-41354381D01*
X-468191Y-41354381D01*
X-325333Y-41402000D01*
X-230095Y-41497238D01*
X-182476Y-41592476D01*
X-134857Y-41782952D01*
X-134857Y-41925810D01*
X-182476Y-42116286D01*
X-230095Y-42211524D01*
X-325333Y-42306762D01*
X-468191Y-42354381D01*
X-706286Y-42354381D01*
X817524Y-42354381D02*
X246095Y-42354381D01*
X531809Y-42354381D02*
X531809Y-41354381D01*
X436571Y-41497238D01*
X341333Y-41592476D01*
X246095Y-41640095D01*
X1150857Y-41354381D02*
X1769905Y-41354381D01*
X1436571Y-41735333D01*
X1579429Y-41735333D01*
X1674667Y-41782952D01*
X1722286Y-41830571D01*
X1769905Y-41925810D01*
X1769905Y-42163905D01*
X1722286Y-42259143D01*
X1674667Y-42306762D01*
X1579429Y-42354381D01*
X1293714Y-42354381D01*
X1198476Y-42306762D01*
X1150857Y-42259143D01*
X-39147429Y-23074381D02*
X-38956952Y-23074381D01*
X-38861714Y-23122000D01*
X-38766476Y-23217238D01*
X-38718857Y-23407714D01*
X-38718857Y-23741048D01*
X-38766476Y-23931524D01*
X-38861714Y-24026762D01*
X-38956952Y-24074381D01*
X-39147429Y-24074381D01*
X-39242667Y-24026762D01*
X-39337905Y-23931524D01*
X-39385524Y-23741048D01*
X-39385524Y-23407714D01*
X-39337905Y-23217238D01*
X-39242667Y-23122000D01*
X-39147429Y-23074381D01*
X-38290286Y-24074381D02*
X-38290286Y-23074381D01*
X-37909333Y-23074381D01*
X-37814095Y-23122000D01*
X-37766476Y-23169619D01*
X-37718857Y-23264857D01*
X-37718857Y-23407714D01*
X-37766476Y-23502952D01*
X-37814095Y-23550571D01*
X-37909333Y-23598190D01*
X-38290286Y-23598190D01*
X-37337905Y-23788667D02*
X-36861714Y-23788667D01*
X-37433143Y-24074381D02*
X-37099810Y-23074381D01*
X-36766476Y-24074381D01*
X-36433143Y-24074381D02*
X-36433143Y-23074381D01*
X-36099809Y-23788667D01*
X-35766476Y-23074381D01*
X-35766476Y-24074381D01*
X-35290286Y-24074381D02*
X-35290286Y-23074381D01*
X-34909333Y-23074381D01*
X-34814095Y-23122000D01*
X-34766476Y-23169619D01*
X-34718857Y-23264857D01*
X-34718857Y-23407714D01*
X-34766476Y-23502952D01*
X-34814095Y-23550571D01*
X-34909333Y-23598190D01*
X-35290286Y-23598190D01*
X-33766476Y-24074381D02*
X-34337905Y-24074381D01*
X-34052191Y-24074381D02*
X-34052191Y-23074381D01*
X-34147429Y-23217238D01*
X-34242667Y-23312476D01*
X-34337905Y-23360095D01*
X-39147429Y-39330381D02*
X-38956952Y-39330381D01*
X-38861714Y-39378000D01*
X-38766476Y-39473238D01*
X-38718857Y-39663714D01*
X-38718857Y-39997048D01*
X-38766476Y-40187524D01*
X-38861714Y-40282762D01*
X-38956952Y-40330381D01*
X-39147429Y-40330381D01*
X-39242667Y-40282762D01*
X-39337905Y-40187524D01*
X-39385524Y-39997048D01*
X-39385524Y-39663714D01*
X-39337905Y-39473238D01*
X-39242667Y-39378000D01*
X-39147429Y-39330381D01*
X-38290286Y-40330381D02*
X-38290286Y-39330381D01*
X-37909333Y-39330381D01*
X-37814095Y-39378000D01*
X-37766476Y-39425619D01*
X-37718857Y-39520857D01*
X-37718857Y-39663714D01*
X-37766476Y-39758952D01*
X-37814095Y-39806571D01*
X-37909333Y-39854190D01*
X-38290286Y-39854190D01*
X-37337905Y-40044667D02*
X-36861714Y-40044667D01*
X-37433143Y-40330381D02*
X-37099810Y-39330381D01*
X-36766476Y-40330381D01*
X-36433143Y-40330381D02*
X-36433143Y-39330381D01*
X-36099809Y-40044667D01*
X-35766476Y-39330381D01*
X-35766476Y-40330381D01*
X-35290286Y-40330381D02*
X-35290286Y-39330381D01*
X-34909333Y-39330381D01*
X-34814095Y-39378000D01*
X-34766476Y-39425619D01*
X-34718857Y-39520857D01*
X-34718857Y-39663714D01*
X-34766476Y-39758952D01*
X-34814095Y-39806571D01*
X-34909333Y-39854190D01*
X-35290286Y-39854190D01*
X-34337905Y-39425619D02*
X-34290286Y-39378000D01*
X-34195048Y-39330381D01*
X-33956952Y-39330381D01*
X-33861714Y-39378000D01*
X-33814095Y-39425619D01*
X-33766476Y-39520857D01*
X-33766476Y-39616095D01*
X-33814095Y-39758952D01*
X-34385524Y-40330381D01*
X-33766476Y-40330381D01*
X920762Y-3603619D02*
X825524Y-3556000D01*
X730286Y-3460762D01*
X587429Y-3317905D01*
X492190Y-3270286D01*
X396952Y-3270286D01*
X444571Y-3508381D02*
X349333Y-3460762D01*
X254095Y-3365524D01*
X206476Y-3175048D01*
X206476Y-2841714D01*
X254095Y-2651238D01*
X349333Y-2556000D01*
X444571Y-2508381D01*
X635048Y-2508381D01*
X730286Y-2556000D01*
X825524Y-2651238D01*
X873143Y-2841714D01*
X873143Y-3175048D01*
X825524Y-3365524D01*
X730286Y-3460762D01*
X635048Y-3508381D01*
X444571Y-3508381D01*
X1825524Y-3508381D02*
X1254095Y-3508381D01*
X1539809Y-3508381D02*
X1539809Y-2508381D01*
X1444571Y-2651238D01*
X1349333Y-2746476D01*
X1254095Y-2794095D01*
X28860762Y-40687619D02*
X28765524Y-40640000D01*
X28670286Y-40544762D01*
X28527429Y-40401905D01*
X28432190Y-40354286D01*
X28336952Y-40354286D01*
X28384571Y-40592381D02*
X28289333Y-40544762D01*
X28194095Y-40449524D01*
X28146476Y-40259048D01*
X28146476Y-39925714D01*
X28194095Y-39735238D01*
X28289333Y-39640000D01*
X28384571Y-39592381D01*
X28575048Y-39592381D01*
X28670286Y-39640000D01*
X28765524Y-39735238D01*
X28813143Y-39925714D01*
X28813143Y-40259048D01*
X28765524Y-40449524D01*
X28670286Y-40544762D01*
X28575048Y-40592381D01*
X28384571Y-40592381D01*
X29194095Y-39687619D02*
X29241714Y-39640000D01*
X29336952Y-39592381D01*
X29575048Y-39592381D01*
X29670286Y-39640000D01*
X29717905Y-39687619D01*
X29765524Y-39782857D01*
X29765524Y-39878095D01*
X29717905Y-40020952D01*
X29146476Y-40592381D01*
X29765524Y-40592381D01*
X-4230666Y3633619D02*
X-4564000Y4109810D01*
X-4802095Y3633619D02*
X-4802095Y4633619D01*
X-4421142Y4633619D01*
X-4325904Y4586000D01*
X-4278285Y4538381D01*
X-4230666Y4443143D01*
X-4230666Y4300286D01*
X-4278285Y4205048D01*
X-4325904Y4157429D01*
X-4421142Y4109810D01*
X-4802095Y4109810D01*
X-3278285Y3633619D02*
X-3849714Y3633619D01*
X-3564000Y3633619D02*
X-3564000Y4633619D01*
X-3659238Y4490762D01*
X-3754476Y4395524D01*
X-3849714Y4347905D01*
X-32170666Y-16940381D02*
X-32504000Y-16464190D01*
X-32742095Y-16940381D02*
X-32742095Y-15940381D01*
X-32361142Y-15940381D01*
X-32265904Y-15988000D01*
X-32218285Y-16035619D01*
X-32170666Y-16130857D01*
X-32170666Y-16273714D01*
X-32218285Y-16368952D01*
X-32265904Y-16416571D01*
X-32361142Y-16464190D01*
X-32742095Y-16464190D01*
X-31313523Y-15940381D02*
X-31504000Y-15940381D01*
X-31599238Y-15988000D01*
X-31646857Y-16035619D01*
X-31742095Y-16178476D01*
X-31789714Y-16368952D01*
X-31789714Y-16749905D01*
X-31742095Y-16845143D01*
X-31694476Y-16892762D01*
X-31599238Y-16940381D01*
X-31408761Y-16940381D01*
X-31313523Y-16892762D01*
X-31265904Y-16845143D01*
X-31218285Y-16749905D01*
X-31218285Y-16511810D01*
X-31265904Y-16416571D01*
X-31313523Y-16368952D01*
X-31408761Y-16321333D01*
X-31599238Y-16321333D01*
X-31694476Y-16368952D01*
X-31742095Y-16416571D01*
X-31789714Y-16511810D01*
X-32170666Y-19226381D02*
X-32504000Y-18750190D01*
X-32742095Y-19226381D02*
X-32742095Y-18226381D01*
X-32361142Y-18226381D01*
X-32265904Y-18274000D01*
X-32218285Y-18321619D01*
X-32170666Y-18416857D01*
X-32170666Y-18559714D01*
X-32218285Y-18654952D01*
X-32265904Y-18702571D01*
X-32361142Y-18750190D01*
X-32742095Y-18750190D01*
X-31837333Y-18226381D02*
X-31170666Y-18226381D01*
X-31599238Y-19226381D01*
X-32170666Y-21512381D02*
X-32504000Y-21036190D01*
X-32742095Y-21512381D02*
X-32742095Y-20512381D01*
X-32361142Y-20512381D01*
X-32265904Y-20560000D01*
X-32218285Y-20607619D01*
X-32170666Y-20702857D01*
X-32170666Y-20845714D01*
X-32218285Y-20940952D01*
X-32265904Y-20988571D01*
X-32361142Y-21036190D01*
X-32742095Y-21036190D01*
X-31599238Y-20940952D02*
X-31694476Y-20893333D01*
X-31742095Y-20845714D01*
X-31789714Y-20750476D01*
X-31789714Y-20702857D01*
X-31742095Y-20607619D01*
X-31694476Y-20560000D01*
X-31599238Y-20512381D01*
X-31408761Y-20512381D01*
X-31313523Y-20560000D01*
X-31265904Y-20607619D01*
X-31218285Y-20702857D01*
X-31218285Y-20750476D01*
X-31265904Y-20845714D01*
X-31313523Y-20893333D01*
X-31408761Y-20940952D01*
X-31599238Y-20940952D01*
X-31694476Y-20988571D01*
X-31742095Y-21036190D01*
X-31789714Y-21131429D01*
X-31789714Y-21321905D01*
X-31742095Y-21417143D01*
X-31694476Y-21464762D01*
X-31599238Y-21512381D01*
X-31408761Y-21512381D01*
X-31313523Y-21464762D01*
X-31265904Y-21417143D01*
X-31218285Y-21321905D01*
X-31218285Y-21131429D01*
X-31265904Y-21036190D01*
X-31313523Y-20988571D01*
X-31408761Y-20940952D01*
X-23090019Y-44362666D02*
X-23566210Y-44696000D01*
X-23090019Y-44934095D02*
X-24090019Y-44934095D01*
X-24090019Y-44553142D01*
X-24042400Y-44457904D01*
X-23994781Y-44410285D01*
X-23899543Y-44362666D01*
X-23756686Y-44362666D01*
X-23661448Y-44410285D01*
X-23613829Y-44457904D01*
X-23566210Y-44553142D01*
X-23566210Y-44934095D01*
X-23090019Y-43886476D02*
X-23090019Y-43696000D01*
X-23137638Y-43600761D01*
X-23185257Y-43553142D01*
X-23328114Y-43457904D01*
X-23518590Y-43410285D01*
X-23899543Y-43410285D01*
X-23994781Y-43457904D01*
X-24042400Y-43505523D01*
X-24090019Y-43600761D01*
X-24090019Y-43791238D01*
X-24042400Y-43886476D01*
X-23994781Y-43934095D01*
X-23899543Y-43981714D01*
X-23661448Y-43981714D01*
X-23566210Y-43934095D01*
X-23518590Y-43886476D01*
X-23470971Y-43791238D01*
X-23470971Y-43600761D01*
X-23518590Y-43505523D01*
X-23566210Y-43457904D01*
X-23661448Y-43410285D01*
X-21566019Y-44838857D02*
X-22042210Y-45172191D01*
X-21566019Y-45410286D02*
X-22566019Y-45410286D01*
X-22566019Y-45029333D01*
X-22518400Y-44934095D01*
X-22470781Y-44886476D01*
X-22375543Y-44838857D01*
X-22232686Y-44838857D01*
X-22137448Y-44886476D01*
X-22089829Y-44934095D01*
X-22042210Y-45029333D01*
X-22042210Y-45410286D01*
X-21566019Y-43886476D02*
X-21566019Y-44457905D01*
X-21566019Y-44172191D02*
X-22566019Y-44172191D01*
X-22423162Y-44267429D01*
X-22327924Y-44362667D01*
X-22280305Y-44457905D01*
X-22566019Y-43267429D02*
X-22566019Y-43172190D01*
X-22518400Y-43076952D01*
X-22470781Y-43029333D01*
X-22375543Y-42981714D01*
X-22185067Y-42934095D01*
X-21946971Y-42934095D01*
X-21756495Y-42981714D01*
X-21661257Y-43029333D01*
X-21613638Y-43076952D01*
X-21566019Y-43172190D01*
X-21566019Y-43267429D01*
X-21613638Y-43362667D01*
X-21661257Y-43410286D01*
X-21756495Y-43457905D01*
X-21946971Y-43505524D01*
X-22185067Y-43505524D01*
X-22375543Y-43457905D01*
X-22470781Y-43410286D01*
X-22518400Y-43362667D01*
X-22566019Y-43267429D01*
X-20042019Y-44838857D02*
X-20518210Y-45172191D01*
X-20042019Y-45410286D02*
X-21042019Y-45410286D01*
X-21042019Y-45029333D01*
X-20994400Y-44934095D01*
X-20946781Y-44886476D01*
X-20851543Y-44838857D01*
X-20708686Y-44838857D01*
X-20613448Y-44886476D01*
X-20565829Y-44934095D01*
X-20518210Y-45029333D01*
X-20518210Y-45410286D01*
X-20042019Y-43886476D02*
X-20042019Y-44457905D01*
X-20042019Y-44172191D02*
X-21042019Y-44172191D01*
X-20899162Y-44267429D01*
X-20803924Y-44362667D01*
X-20756305Y-44457905D01*
X-20042019Y-42934095D02*
X-20042019Y-43505524D01*
X-20042019Y-43219810D02*
X-21042019Y-43219810D01*
X-20899162Y-43315048D01*
X-20803924Y-43410286D01*
X-20756305Y-43505524D01*
X-11056857Y-11904381D02*
X-11390191Y-11428190D01*
X-11628286Y-11904381D02*
X-11628286Y-10904381D01*
X-11247333Y-10904381D01*
X-11152095Y-10952000D01*
X-11104476Y-10999619D01*
X-11056857Y-11094857D01*
X-11056857Y-11237714D01*
X-11104476Y-11332952D01*
X-11152095Y-11380571D01*
X-11247333Y-11428190D01*
X-11628286Y-11428190D01*
X-10104476Y-11904381D02*
X-10675905Y-11904381D01*
X-10390191Y-11904381D02*
X-10390191Y-10904381D01*
X-10485429Y-11047238D01*
X-10580667Y-11142476D01*
X-10675905Y-11190095D01*
X-9723524Y-10999619D02*
X-9675905Y-10952000D01*
X-9580667Y-10904381D01*
X-9342571Y-10904381D01*
X-9247333Y-10952000D01*
X-9199714Y-10999619D01*
X-9152095Y-11094857D01*
X-9152095Y-11190095D01*
X-9199714Y-11332952D01*
X-9771143Y-11904381D01*
X-9152095Y-11904381D01*
X-11006057Y-30961181D02*
X-11339391Y-30484990D01*
X-11577486Y-30961181D02*
X-11577486Y-29961181D01*
X-11196533Y-29961181D01*
X-11101295Y-30008800D01*
X-11053676Y-30056419D01*
X-11006057Y-30151657D01*
X-11006057Y-30294514D01*
X-11053676Y-30389752D01*
X-11101295Y-30437371D01*
X-11196533Y-30484990D01*
X-11577486Y-30484990D01*
X-10053676Y-30961181D02*
X-10625105Y-30961181D01*
X-10339391Y-30961181D02*
X-10339391Y-29961181D01*
X-10434629Y-30104038D01*
X-10529867Y-30199276D01*
X-10625105Y-30246895D01*
X-9720343Y-29961181D02*
X-9101295Y-29961181D01*
X-9434629Y-30342133D01*
X-9291771Y-30342133D01*
X-9196533Y-30389752D01*
X-9148914Y-30437371D01*
X-9101295Y-30532610D01*
X-9101295Y-30770705D01*
X-9148914Y-30865943D01*
X-9196533Y-30913562D01*
X-9291771Y-30961181D01*
X-9577486Y-30961181D01*
X-9672724Y-30913562D01*
X-9720343Y-30865943D01*
X-15019257Y-44517981D02*
X-15352591Y-44041790D01*
X-15590686Y-44517981D02*
X-15590686Y-43517981D01*
X-15209733Y-43517981D01*
X-15114495Y-43565600D01*
X-15066876Y-43613219D01*
X-15019257Y-43708457D01*
X-15019257Y-43851314D01*
X-15066876Y-43946552D01*
X-15114495Y-43994171D01*
X-15209733Y-44041790D01*
X-15590686Y-44041790D01*
X-14066876Y-44517981D02*
X-14638305Y-44517981D01*
X-14352591Y-44517981D02*
X-14352591Y-43517981D01*
X-14447829Y-43660838D01*
X-14543067Y-43756076D01*
X-14638305Y-43803695D01*
X-13209733Y-43851314D02*
X-13209733Y-44517981D01*
X-13447829Y-43470362D02*
X-13685924Y-44184648D01*
X-13066876Y-44184648D01*
X-11006057Y-36186781D02*
X-11339391Y-35710590D01*
X-11577486Y-36186781D02*
X-11577486Y-35186781D01*
X-11196533Y-35186781D01*
X-11101295Y-35234400D01*
X-11053676Y-35282019D01*
X-11006057Y-35377257D01*
X-11006057Y-35520114D01*
X-11053676Y-35615352D01*
X-11101295Y-35662971D01*
X-11196533Y-35710590D01*
X-11577486Y-35710590D01*
X-10053676Y-36186781D02*
X-10625105Y-36186781D01*
X-10339391Y-36186781D02*
X-10339391Y-35186781D01*
X-10434629Y-35329638D01*
X-10529867Y-35424876D01*
X-10625105Y-35472495D01*
X-9148914Y-35186781D02*
X-9625105Y-35186781D01*
X-9672724Y-35662971D01*
X-9625105Y-35615352D01*
X-9529867Y-35567733D01*
X-9291771Y-35567733D01*
X-9196533Y-35615352D01*
X-9148914Y-35662971D01*
X-9101295Y-35758210D01*
X-9101295Y-35996305D01*
X-9148914Y-36091543D01*
X-9196533Y-36139162D01*
X-9291771Y-36186781D01*
X-9529867Y-36186781D01*
X-9625105Y-36139162D01*
X-9672724Y-36091543D01*
X-42495619Y-23502857D02*
X-42971810Y-23836191D01*
X-42495619Y-24074286D02*
X-43495619Y-24074286D01*
X-43495619Y-23693333D01*
X-43448000Y-23598095D01*
X-43400381Y-23550476D01*
X-43305143Y-23502857D01*
X-43162286Y-23502857D01*
X-43067048Y-23550476D01*
X-43019429Y-23598095D01*
X-42971810Y-23693333D01*
X-42971810Y-24074286D01*
X-42495619Y-22550476D02*
X-42495619Y-23121905D01*
X-42495619Y-22836191D02*
X-43495619Y-22836191D01*
X-43352762Y-22931429D01*
X-43257524Y-23026667D01*
X-43209905Y-23121905D01*
X-43495619Y-21693333D02*
X-43495619Y-21883810D01*
X-43448000Y-21979048D01*
X-43400381Y-22026667D01*
X-43257524Y-22121905D01*
X-43067048Y-22169524D01*
X-42686095Y-22169524D01*
X-42590857Y-22121905D01*
X-42543238Y-22074286D01*
X-42495619Y-21979048D01*
X-42495619Y-21788571D01*
X-42543238Y-21693333D01*
X-42590857Y-21645714D01*
X-42686095Y-21598095D01*
X-42924190Y-21598095D01*
X-43019429Y-21645714D01*
X-43067048Y-21693333D01*
X-43114667Y-21788571D01*
X-43114667Y-21979048D01*
X-43067048Y-22074286D01*
X-43019429Y-22121905D01*
X-42924190Y-22169524D01*
X-42022857Y-23312381D02*
X-42356191Y-22836190D01*
X-42594286Y-23312381D02*
X-42594286Y-22312381D01*
X-42213333Y-22312381D01*
X-42118095Y-22360000D01*
X-42070476Y-22407619D01*
X-42022857Y-22502857D01*
X-42022857Y-22645714D01*
X-42070476Y-22740952D01*
X-42118095Y-22788571D01*
X-42213333Y-22836190D01*
X-42594286Y-22836190D01*
X-41070476Y-23312381D02*
X-41641905Y-23312381D01*
X-41356191Y-23312381D02*
X-41356191Y-22312381D01*
X-41451429Y-22455238D01*
X-41546667Y-22550476D01*
X-41641905Y-22598095D01*
X-40737143Y-22312381D02*
X-40070476Y-22312381D01*
X-40499048Y-23312381D01*
X-42495619Y-39504857D02*
X-42971810Y-39838191D01*
X-42495619Y-40076286D02*
X-43495619Y-40076286D01*
X-43495619Y-39695333D01*
X-43448000Y-39600095D01*
X-43400381Y-39552476D01*
X-43305143Y-39504857D01*
X-43162286Y-39504857D01*
X-43067048Y-39552476D01*
X-43019429Y-39600095D01*
X-42971810Y-39695333D01*
X-42971810Y-40076286D01*
X-42495619Y-38552476D02*
X-42495619Y-39123905D01*
X-42495619Y-38838191D02*
X-43495619Y-38838191D01*
X-43352762Y-38933429D01*
X-43257524Y-39028667D01*
X-43209905Y-39123905D01*
X-43067048Y-37981048D02*
X-43114667Y-38076286D01*
X-43162286Y-38123905D01*
X-43257524Y-38171524D01*
X-43305143Y-38171524D01*
X-43400381Y-38123905D01*
X-43448000Y-38076286D01*
X-43495619Y-37981048D01*
X-43495619Y-37790571D01*
X-43448000Y-37695333D01*
X-43400381Y-37647714D01*
X-43305143Y-37600095D01*
X-43257524Y-37600095D01*
X-43162286Y-37647714D01*
X-43114667Y-37695333D01*
X-43067048Y-37790571D01*
X-43067048Y-37981048D01*
X-43019429Y-38076286D01*
X-42971810Y-38123905D01*
X-42876571Y-38171524D01*
X-42686095Y-38171524D01*
X-42590857Y-38123905D01*
X-42543238Y-38076286D01*
X-42495619Y-37981048D01*
X-42495619Y-37790571D01*
X-42543238Y-37695333D01*
X-42590857Y-37647714D01*
X-42686095Y-37600095D01*
X-42876571Y-37600095D01*
X-42971810Y-37647714D01*
X-43019429Y-37695333D01*
X-43067048Y-37790571D01*
X-40927619Y-39504857D02*
X-41403810Y-39838191D01*
X-40927619Y-40076286D02*
X-41927619Y-40076286D01*
X-41927619Y-39695333D01*
X-41880000Y-39600095D01*
X-41832381Y-39552476D01*
X-41737143Y-39504857D01*
X-41594286Y-39504857D01*
X-41499048Y-39552476D01*
X-41451429Y-39600095D01*
X-41403810Y-39695333D01*
X-41403810Y-40076286D01*
X-40927619Y-38552476D02*
X-40927619Y-39123905D01*
X-40927619Y-38838191D02*
X-41927619Y-38838191D01*
X-41784762Y-38933429D01*
X-41689524Y-39028667D01*
X-41641905Y-39123905D01*
X-40927619Y-38076286D02*
X-40927619Y-37885810D01*
X-40975238Y-37790571D01*
X-41022857Y-37742952D01*
X-41165714Y-37647714D01*
X-41356190Y-37600095D01*
X-41737143Y-37600095D01*
X-41832381Y-37647714D01*
X-41880000Y-37695333D01*
X-41927619Y-37790571D01*
X-41927619Y-37981048D01*
X-41880000Y-38076286D01*
X-41832381Y-38123905D01*
X-41737143Y-38171524D01*
X-41499048Y-38171524D01*
X-41403810Y-38123905D01*
X-41356190Y-38076286D01*
X-41308571Y-37981048D01*
X-41308571Y-37790571D01*
X-41356190Y-37695333D01*
X-41403810Y-37647714D01*
X-41499048Y-37600095D01*
X-42959619Y-23502857D02*
X-43435810Y-23836191D01*
X-42959619Y-24074286D02*
X-43959619Y-24074286D01*
X-43959619Y-23693333D01*
X-43912000Y-23598095D01*
X-43864381Y-23550476D01*
X-43769143Y-23502857D01*
X-43626286Y-23502857D01*
X-43531048Y-23550476D01*
X-43483429Y-23598095D01*
X-43435810Y-23693333D01*
X-43435810Y-24074286D01*
X-43864381Y-23121905D02*
X-43912000Y-23074286D01*
X-43959619Y-22979048D01*
X-43959619Y-22740952D01*
X-43912000Y-22645714D01*
X-43864381Y-22598095D01*
X-43769143Y-22550476D01*
X-43673905Y-22550476D01*
X-43531048Y-22598095D01*
X-42959619Y-23169524D01*
X-42959619Y-22550476D01*
X-43959619Y-21931429D02*
X-43959619Y-21836190D01*
X-43912000Y-21740952D01*
X-43864381Y-21693333D01*
X-43769143Y-21645714D01*
X-43578667Y-21598095D01*
X-43340571Y-21598095D01*
X-43150095Y-21645714D01*
X-43054857Y-21693333D01*
X-43007238Y-21740952D01*
X-42959619Y-21836190D01*
X-42959619Y-21931429D01*
X-43007238Y-22026667D01*
X-43054857Y-22074286D01*
X-43150095Y-22121905D01*
X-43340571Y-22169524D01*
X-43578667Y-22169524D01*
X-43769143Y-22121905D01*
X-43864381Y-22074286D01*
X-43912000Y-22026667D01*
X-43959619Y-21931429D01*
X-42959619Y-39504857D02*
X-43435810Y-39838191D01*
X-42959619Y-40076286D02*
X-43959619Y-40076286D01*
X-43959619Y-39695333D01*
X-43912000Y-39600095D01*
X-43864381Y-39552476D01*
X-43769143Y-39504857D01*
X-43626286Y-39504857D01*
X-43531048Y-39552476D01*
X-43483429Y-39600095D01*
X-43435810Y-39695333D01*
X-43435810Y-40076286D01*
X-43864381Y-39123905D02*
X-43912000Y-39076286D01*
X-43959619Y-38981048D01*
X-43959619Y-38742952D01*
X-43912000Y-38647714D01*
X-43864381Y-38600095D01*
X-43769143Y-38552476D01*
X-43673905Y-38552476D01*
X-43531048Y-38600095D01*
X-42959619Y-39171524D01*
X-42959619Y-38552476D01*
X-42959619Y-37600095D02*
X-42959619Y-38171524D01*
X-42959619Y-37885810D02*
X-43959619Y-37885810D01*
X-43816762Y-37981048D01*
X-43721524Y-38076286D01*
X-43673905Y-38171524D01*
X-38895619Y-17406857D02*
X-39371810Y-17740191D01*
X-38895619Y-17978286D02*
X-39895619Y-17978286D01*
X-39895619Y-17597333D01*
X-39848000Y-17502095D01*
X-39800381Y-17454476D01*
X-39705143Y-17406857D01*
X-39562286Y-17406857D01*
X-39467048Y-17454476D01*
X-39419429Y-17502095D01*
X-39371810Y-17597333D01*
X-39371810Y-17978286D01*
X-39800381Y-17025905D02*
X-39848000Y-16978286D01*
X-39895619Y-16883048D01*
X-39895619Y-16644952D01*
X-39848000Y-16549714D01*
X-39800381Y-16502095D01*
X-39705143Y-16454476D01*
X-39609905Y-16454476D01*
X-39467048Y-16502095D01*
X-38895619Y-17073524D01*
X-38895619Y-16454476D01*
X-39800381Y-16073524D02*
X-39848000Y-16025905D01*
X-39895619Y-15930667D01*
X-39895619Y-15692571D01*
X-39848000Y-15597333D01*
X-39800381Y-15549714D01*
X-39705143Y-15502095D01*
X-39609905Y-15502095D01*
X-39467048Y-15549714D01*
X-38895619Y-16121143D01*
X-38895619Y-15502095D01*
X-38895619Y-33662857D02*
X-39371810Y-33996191D01*
X-38895619Y-34234286D02*
X-39895619Y-34234286D01*
X-39895619Y-33853333D01*
X-39848000Y-33758095D01*
X-39800381Y-33710476D01*
X-39705143Y-33662857D01*
X-39562286Y-33662857D01*
X-39467048Y-33710476D01*
X-39419429Y-33758095D01*
X-39371810Y-33853333D01*
X-39371810Y-34234286D01*
X-39800381Y-33281905D02*
X-39848000Y-33234286D01*
X-39895619Y-33139048D01*
X-39895619Y-32900952D01*
X-39848000Y-32805714D01*
X-39800381Y-32758095D01*
X-39705143Y-32710476D01*
X-39609905Y-32710476D01*
X-39467048Y-32758095D01*
X-38895619Y-33329524D01*
X-38895619Y-32710476D01*
X-39895619Y-32377143D02*
X-39895619Y-31758095D01*
X-39514667Y-32091429D01*
X-39514667Y-31948571D01*
X-39467048Y-31853333D01*
X-39419429Y-31805714D01*
X-39324190Y-31758095D01*
X-39086095Y-31758095D01*
X-38990857Y-31805714D01*
X-38943238Y-31853333D01*
X-38895619Y-31948571D01*
X-38895619Y-32234286D01*
X-38943238Y-32329524D01*
X-38990857Y-32377143D01*
X-46559619Y-17406857D02*
X-47035810Y-17740191D01*
X-46559619Y-17978286D02*
X-47559619Y-17978286D01*
X-47559619Y-17597333D01*
X-47512000Y-17502095D01*
X-47464381Y-17454476D01*
X-47369143Y-17406857D01*
X-47226286Y-17406857D01*
X-47131048Y-17454476D01*
X-47083429Y-17502095D01*
X-47035810Y-17597333D01*
X-47035810Y-17978286D01*
X-47464381Y-17025905D02*
X-47512000Y-16978286D01*
X-47559619Y-16883048D01*
X-47559619Y-16644952D01*
X-47512000Y-16549714D01*
X-47464381Y-16502095D01*
X-47369143Y-16454476D01*
X-47273905Y-16454476D01*
X-47131048Y-16502095D01*
X-46559619Y-17073524D01*
X-46559619Y-16454476D01*
X-47226286Y-15597333D02*
X-46559619Y-15597333D01*
X-47607238Y-15835429D02*
X-46892952Y-16073524D01*
X-46892952Y-15454476D01*
X-40927619Y-17406857D02*
X-41403810Y-17740191D01*
X-40927619Y-17978286D02*
X-41927619Y-17978286D01*
X-41927619Y-17597333D01*
X-41880000Y-17502095D01*
X-41832381Y-17454476D01*
X-41737143Y-17406857D01*
X-41594286Y-17406857D01*
X-41499048Y-17454476D01*
X-41451429Y-17502095D01*
X-41403810Y-17597333D01*
X-41403810Y-17978286D01*
X-41832381Y-17025905D02*
X-41880000Y-16978286D01*
X-41927619Y-16883048D01*
X-41927619Y-16644952D01*
X-41880000Y-16549714D01*
X-41832381Y-16502095D01*
X-41737143Y-16454476D01*
X-41641905Y-16454476D01*
X-41499048Y-16502095D01*
X-40927619Y-17073524D01*
X-40927619Y-16454476D01*
X-41927619Y-15549714D02*
X-41927619Y-16025905D01*
X-41451429Y-16073524D01*
X-41499048Y-16025905D01*
X-41546667Y-15930667D01*
X-41546667Y-15692571D01*
X-41499048Y-15597333D01*
X-41451429Y-15549714D01*
X-41356190Y-15502095D01*
X-41118095Y-15502095D01*
X-41022857Y-15549714D01*
X-40975238Y-15597333D01*
X-40927619Y-15692571D01*
X-40927619Y-15930667D01*
X-40975238Y-16025905D01*
X-41022857Y-16073524D01*
X-46559619Y-33662857D02*
X-47035810Y-33996191D01*
X-46559619Y-34234286D02*
X-47559619Y-34234286D01*
X-47559619Y-33853333D01*
X-47512000Y-33758095D01*
X-47464381Y-33710476D01*
X-47369143Y-33662857D01*
X-47226286Y-33662857D01*
X-47131048Y-33710476D01*
X-47083429Y-33758095D01*
X-47035810Y-33853333D01*
X-47035810Y-34234286D01*
X-47464381Y-33281905D02*
X-47512000Y-33234286D01*
X-47559619Y-33139048D01*
X-47559619Y-32900952D01*
X-47512000Y-32805714D01*
X-47464381Y-32758095D01*
X-47369143Y-32710476D01*
X-47273905Y-32710476D01*
X-47131048Y-32758095D01*
X-46559619Y-33329524D01*
X-46559619Y-32710476D01*
X-47559619Y-31853333D02*
X-47559619Y-32043810D01*
X-47512000Y-32139048D01*
X-47464381Y-32186667D01*
X-47321524Y-32281905D01*
X-47131048Y-32329524D01*
X-46750095Y-32329524D01*
X-46654857Y-32281905D01*
X-46607238Y-32234286D01*
X-46559619Y-32139048D01*
X-46559619Y-31948571D01*
X-46607238Y-31853333D01*
X-46654857Y-31805714D01*
X-46750095Y-31758095D01*
X-46988190Y-31758095D01*
X-47083429Y-31805714D01*
X-47131048Y-31853333D01*
X-47178667Y-31948571D01*
X-47178667Y-32139048D01*
X-47131048Y-32234286D01*
X-47083429Y-32281905D01*
X-46988190Y-32329524D01*
X-40927619Y-33662857D02*
X-41403810Y-33996191D01*
X-40927619Y-34234286D02*
X-41927619Y-34234286D01*
X-41927619Y-33853333D01*
X-41880000Y-33758095D01*
X-41832381Y-33710476D01*
X-41737143Y-33662857D01*
X-41594286Y-33662857D01*
X-41499048Y-33710476D01*
X-41451429Y-33758095D01*
X-41403810Y-33853333D01*
X-41403810Y-34234286D01*
X-41832381Y-33281905D02*
X-41880000Y-33234286D01*
X-41927619Y-33139048D01*
X-41927619Y-32900952D01*
X-41880000Y-32805714D01*
X-41832381Y-32758095D01*
X-41737143Y-32710476D01*
X-41641905Y-32710476D01*
X-41499048Y-32758095D01*
X-40927619Y-33329524D01*
X-40927619Y-32710476D01*
X-41927619Y-32377143D02*
X-41927619Y-31710476D01*
X-40927619Y-32139048D01*
X28313143Y-38022381D02*
X27979809Y-37546190D01*
X27741714Y-38022381D02*
X27741714Y-37022381D01*
X28122667Y-37022381D01*
X28217905Y-37070000D01*
X28265524Y-37117619D01*
X28313143Y-37212857D01*
X28313143Y-37355714D01*
X28265524Y-37450952D01*
X28217905Y-37498571D01*
X28122667Y-37546190D01*
X27741714Y-37546190D01*
X28694095Y-37117619D02*
X28741714Y-37070000D01*
X28836952Y-37022381D01*
X29075048Y-37022381D01*
X29170286Y-37070000D01*
X29217905Y-37117619D01*
X29265524Y-37212857D01*
X29265524Y-37308095D01*
X29217905Y-37450952D01*
X28646476Y-38022381D01*
X29265524Y-38022381D01*
X29836952Y-37450952D02*
X29741714Y-37403333D01*
X29694095Y-37355714D01*
X29646476Y-37260476D01*
X29646476Y-37212857D01*
X29694095Y-37117619D01*
X29741714Y-37070000D01*
X29836952Y-37022381D01*
X30027429Y-37022381D01*
X30122667Y-37070000D01*
X30170286Y-37117619D01*
X30217905Y-37212857D01*
X30217905Y-37260476D01*
X30170286Y-37355714D01*
X30122667Y-37403333D01*
X30027429Y-37450952D01*
X29836952Y-37450952D01*
X29741714Y-37498571D01*
X29694095Y-37546190D01*
X29646476Y-37641429D01*
X29646476Y-37831905D01*
X29694095Y-37927143D01*
X29741714Y-37974762D01*
X29836952Y-38022381D01*
X30027429Y-38022381D01*
X30122667Y-37974762D01*
X30170286Y-37927143D01*
X30217905Y-37831905D01*
X30217905Y-37641429D01*
X30170286Y-37546190D01*
X30122667Y-37498571D01*
X30027429Y-37450952D01*
X28313143Y-35990381D02*
X27979809Y-35514190D01*
X27741714Y-35990381D02*
X27741714Y-34990381D01*
X28122667Y-34990381D01*
X28217905Y-35038000D01*
X28265524Y-35085619D01*
X28313143Y-35180857D01*
X28313143Y-35323714D01*
X28265524Y-35418952D01*
X28217905Y-35466571D01*
X28122667Y-35514190D01*
X27741714Y-35514190D01*
X28694095Y-35085619D02*
X28741714Y-35038000D01*
X28836952Y-34990381D01*
X29075048Y-34990381D01*
X29170286Y-35038000D01*
X29217905Y-35085619D01*
X29265524Y-35180857D01*
X29265524Y-35276095D01*
X29217905Y-35418952D01*
X28646476Y-35990381D01*
X29265524Y-35990381D01*
X29741714Y-35990381D02*
X29932190Y-35990381D01*
X30027429Y-35942762D01*
X30075048Y-35895143D01*
X30170286Y-35752286D01*
X30217905Y-35561810D01*
X30217905Y-35180857D01*
X30170286Y-35085619D01*
X30122667Y-35038000D01*
X30027429Y-34990381D01*
X29836952Y-34990381D01*
X29741714Y-35038000D01*
X29694095Y-35085619D01*
X29646476Y-35180857D01*
X29646476Y-35418952D01*
X29694095Y-35514190D01*
X29741714Y-35561810D01*
X29836952Y-35609429D01*
X30027429Y-35609429D01*
X30122667Y-35561810D01*
X30170286Y-35514190D01*
X30217905Y-35418952D01*
X-896857Y-37260381D02*
X-1230191Y-36784190D01*
X-1468286Y-37260381D02*
X-1468286Y-36260381D01*
X-1087333Y-36260381D01*
X-992095Y-36308000D01*
X-944476Y-36355619D01*
X-896857Y-36450857D01*
X-896857Y-36593714D01*
X-944476Y-36688952D01*
X-992095Y-36736571D01*
X-1087333Y-36784190D01*
X-1468286Y-36784190D01*
X-563524Y-36260381D02*
X55524Y-36260381D01*
X-277810Y-36641333D01*
X-134952Y-36641333D01*
X-39714Y-36688952D01*
X7905Y-36736571D01*
X55524Y-36831810D01*
X55524Y-37069905D01*
X7905Y-37165143D01*
X-39714Y-37212762D01*
X-134952Y-37260381D01*
X-420667Y-37260381D01*
X-515905Y-37212762D01*
X-563524Y-37165143D01*
X674571Y-36260381D02*
X769810Y-36260381D01*
X865048Y-36308000D01*
X912667Y-36355619D01*
X960286Y-36450857D01*
X1007905Y-36641333D01*
X1007905Y-36879429D01*
X960286Y-37069905D01*
X912667Y-37165143D01*
X865048Y-37212762D01*
X769810Y-37260381D01*
X674571Y-37260381D01*
X579333Y-37212762D01*
X531714Y-37165143D01*
X484095Y-37069905D01*
X436476Y-36879429D01*
X436476Y-36641333D01*
X484095Y-36450857D01*
X531714Y-36355619D01*
X579333Y-36308000D01*
X674571Y-36260381D01*
X32434381Y-34170857D02*
X31958190Y-34504191D01*
X32434381Y-34742286D02*
X31434381Y-34742286D01*
X31434381Y-34361333D01*
X31482000Y-34266095D01*
X31529619Y-34218476D01*
X31624857Y-34170857D01*
X31767714Y-34170857D01*
X31862952Y-34218476D01*
X31910571Y-34266095D01*
X31958190Y-34361333D01*
X31958190Y-34742286D01*
X31434381Y-33837524D02*
X31434381Y-33218476D01*
X31815333Y-33551810D01*
X31815333Y-33408952D01*
X31862952Y-33313714D01*
X31910571Y-33266095D01*
X32005810Y-33218476D01*
X32243905Y-33218476D01*
X32339143Y-33266095D01*
X32386762Y-33313714D01*
X32434381Y-33408952D01*
X32434381Y-33694667D01*
X32386762Y-33789905D01*
X32339143Y-33837524D01*
X32434381Y-32266095D02*
X32434381Y-32837524D01*
X32434381Y-32551810D02*
X31434381Y-32551810D01*
X31577238Y-32647048D01*
X31672476Y-32742286D01*
X31720095Y-32837524D01*
X-26398819Y-30818057D02*
X-26875010Y-31151391D01*
X-26398819Y-31389486D02*
X-27398819Y-31389486D01*
X-27398819Y-31008533D01*
X-27351200Y-30913295D01*
X-27303581Y-30865676D01*
X-27208343Y-30818057D01*
X-27065486Y-30818057D01*
X-26970248Y-30865676D01*
X-26922629Y-30913295D01*
X-26875010Y-31008533D01*
X-26875010Y-31389486D01*
X-27398819Y-30484724D02*
X-27398819Y-29865676D01*
X-27017867Y-30199010D01*
X-27017867Y-30056152D01*
X-26970248Y-29960914D01*
X-26922629Y-29913295D01*
X-26827390Y-29865676D01*
X-26589295Y-29865676D01*
X-26494057Y-29913295D01*
X-26446438Y-29960914D01*
X-26398819Y-30056152D01*
X-26398819Y-30341867D01*
X-26446438Y-30437105D01*
X-26494057Y-30484724D01*
X-27303581Y-29484724D02*
X-27351200Y-29437105D01*
X-27398819Y-29341867D01*
X-27398819Y-29103771D01*
X-27351200Y-29008533D01*
X-27303581Y-28960914D01*
X-27208343Y-28913295D01*
X-27113105Y-28913295D01*
X-26970248Y-28960914D01*
X-26398819Y-29532343D01*
X-26398819Y-28913295D01*
X-6707047Y-16581381D02*
X-7040381Y-16105190D01*
X-7278476Y-16581381D02*
X-7278476Y-15581381D01*
X-6897523Y-15581381D01*
X-6802285Y-15629000D01*
X-6754666Y-15676619D01*
X-6707047Y-15771857D01*
X-6707047Y-15914714D01*
X-6754666Y-16009952D01*
X-6802285Y-16057571D01*
X-6897523Y-16105190D01*
X-7278476Y-16105190D01*
X-6278476Y-16057571D02*
X-5945142Y-16057571D01*
X-5802285Y-16581381D02*
X-6278476Y-16581381D01*
X-6278476Y-15581381D01*
X-5802285Y-15581381D01*
X-4849904Y-15629000D02*
X-4945142Y-15581381D01*
X-5087999Y-15581381D01*
X-5230857Y-15629000D01*
X-5326095Y-15724238D01*
X-5373714Y-15819476D01*
X-5421333Y-16009952D01*
X-5421333Y-16152810D01*
X-5373714Y-16343286D01*
X-5326095Y-16438524D01*
X-5230857Y-16533762D01*
X-5087999Y-16581381D01*
X-4992761Y-16581381D01*
X-4849904Y-16533762D01*
X-4802285Y-16486143D01*
X-4802285Y-16152810D01*
X-4992761Y-16152810D01*
X-3849904Y-16581381D02*
X-4421333Y-16581381D01*
X-4135619Y-16581381D02*
X-4135619Y-15581381D01*
X-4230857Y-15724238D01*
X-4326095Y-15819476D01*
X-4421333Y-15867095D01*
X-6707047Y-44521381D02*
X-7040381Y-44045190D01*
X-7278476Y-44521381D02*
X-7278476Y-43521381D01*
X-6897523Y-43521381D01*
X-6802285Y-43569000D01*
X-6754666Y-43616619D01*
X-6707047Y-43711857D01*
X-6707047Y-43854714D01*
X-6754666Y-43949952D01*
X-6802285Y-43997571D01*
X-6897523Y-44045190D01*
X-7278476Y-44045190D01*
X-6278476Y-43997571D02*
X-5945142Y-43997571D01*
X-5802285Y-44521381D02*
X-6278476Y-44521381D01*
X-6278476Y-43521381D01*
X-5802285Y-43521381D01*
X-4849904Y-43569000D02*
X-4945142Y-43521381D01*
X-5087999Y-43521381D01*
X-5230857Y-43569000D01*
X-5326095Y-43664238D01*
X-5373714Y-43759476D01*
X-5421333Y-43949952D01*
X-5421333Y-44092810D01*
X-5373714Y-44283286D01*
X-5326095Y-44378524D01*
X-5230857Y-44473762D01*
X-5087999Y-44521381D01*
X-4992761Y-44521381D01*
X-4849904Y-44473762D01*
X-4802285Y-44426143D01*
X-4802285Y-44092810D01*
X-4992761Y-44092810D01*
X-4421333Y-43616619D02*
X-4373714Y-43569000D01*
X-4278476Y-43521381D01*
X-4040380Y-43521381D01*
X-3945142Y-43569000D01*
X-3897523Y-43616619D01*
X-3849904Y-43711857D01*
X-3849904Y-43807095D01*
X-3897523Y-43949952D01*
X-4468952Y-44521381D01*
X-3849904Y-44521381D01*
X-50410229Y-42872191D02*
X-50342885Y-43006878D01*
X-50174526Y-43175237D01*
X-50073511Y-43208909D01*
X-50006167Y-43208909D01*
X-49905152Y-43175237D01*
X-49837809Y-43107894D01*
X-49804137Y-43006879D01*
X-49804137Y-42939535D01*
X-49837808Y-42838519D01*
X-49938824Y-42670160D01*
X-49972496Y-42569145D01*
X-49972496Y-42501802D01*
X-49938824Y-42400786D01*
X-49871481Y-42333443D01*
X-49770465Y-42299771D01*
X-49703122Y-42299771D01*
X-49602107Y-42333443D01*
X-49433747Y-42501802D01*
X-49366404Y-42636489D01*
X-49366404Y-43242580D02*
X-49130701Y-43478283D01*
X-49400076Y-43949688D02*
X-49736794Y-43612970D01*
X-49029687Y-42905863D01*
X-48692969Y-43242581D01*
X-49097030Y-44252733D02*
X-48389924Y-43545626D01*
X-48692969Y-44656794D01*
X-47985862Y-43949688D01*
X-47985862Y-45363901D02*
X-48389924Y-44959840D01*
X-48187893Y-45161870D02*
X-47480786Y-44454763D01*
X-47649145Y-44488435D01*
X-47783832Y-44488435D01*
X-47884847Y-44454763D01*
X-8993238Y-59904095D02*
X-8945619Y-59761238D01*
X-8945619Y-59523142D01*
X-8993238Y-59427904D01*
X-9040857Y-59380285D01*
X-9136095Y-59332666D01*
X-9231333Y-59332666D01*
X-9326571Y-59380285D01*
X-9374190Y-59427904D01*
X-9421810Y-59523142D01*
X-9469429Y-59713619D01*
X-9517048Y-59808857D01*
X-9564667Y-59856476D01*
X-9659905Y-59904095D01*
X-9755143Y-59904095D01*
X-9850381Y-59856476D01*
X-9898000Y-59808857D01*
X-9945619Y-59713619D01*
X-9945619Y-59475523D01*
X-9898000Y-59332666D01*
X-9469429Y-58904095D02*
X-9469429Y-58570761D01*
X-8945619Y-58427904D02*
X-8945619Y-58904095D01*
X-9945619Y-58904095D01*
X-9945619Y-58427904D01*
X-8945619Y-57999333D02*
X-9945619Y-57999333D01*
X-8945619Y-57427904D01*
X-9945619Y-57427904D01*
X-9850381Y-56999333D02*
X-9898000Y-56951714D01*
X-9945619Y-56856476D01*
X-9945619Y-56618380D01*
X-9898000Y-56523142D01*
X-9850381Y-56475523D01*
X-9755143Y-56427904D01*
X-9659905Y-56427904D01*
X-9517048Y-56475523D01*
X-8945619Y-57046952D01*
X-8945619Y-56427904D01*
X-8993238Y547905D02*
X-8945619Y690762D01*
X-8945619Y928858D01*
X-8993238Y1024096D01*
X-9040857Y1071715D01*
X-9136095Y1119334D01*
X-9231333Y1119334D01*
X-9326571Y1071715D01*
X-9374190Y1024096D01*
X-9421810Y928858D01*
X-9469429Y738381D01*
X-9517048Y643143D01*
X-9564667Y595524D01*
X-9659905Y547905D01*
X-9755143Y547905D01*
X-9850381Y595524D01*
X-9898000Y643143D01*
X-9945619Y738381D01*
X-9945619Y976477D01*
X-9898000Y1119334D01*
X-9469429Y1547905D02*
X-9469429Y1881239D01*
X-8945619Y2024096D02*
X-8945619Y1547905D01*
X-9945619Y1547905D01*
X-9945619Y2024096D01*
X-8945619Y2452667D02*
X-9945619Y2452667D01*
X-8945619Y3024096D01*
X-9945619Y3024096D01*
X-9945619Y3405048D02*
X-9945619Y4024096D01*
X-9564667Y3690762D01*
X-9564667Y3833620D01*
X-9517048Y3928858D01*
X-9469429Y3976477D01*
X-9374190Y4024096D01*
X-9136095Y4024096D01*
X-9040857Y3976477D01*
X-8993238Y3928858D01*
X-8945619Y3833620D01*
X-8945619Y3547905D01*
X-8993238Y3452667D01*
X-9040857Y3405048D01*
X-47170809Y-16374229D02*
X-47036122Y-16306885D01*
X-46867763Y-16138526D01*
X-46834091Y-16037511D01*
X-46834091Y-15970167D01*
X-46867763Y-15869152D01*
X-46935106Y-15801809D01*
X-47036121Y-15768137D01*
X-47103465Y-15768137D01*
X-47204481Y-15801808D01*
X-47372840Y-15902824D01*
X-47473855Y-15936496D01*
X-47541198Y-15936496D01*
X-47642214Y-15902824D01*
X-47709557Y-15835481D01*
X-47743229Y-15734465D01*
X-47743229Y-15667122D01*
X-47709557Y-15566107D01*
X-47541198Y-15397747D01*
X-47406511Y-15330404D01*
X-46800420Y-15330404D02*
X-46564717Y-15094701D01*
X-46093312Y-15364076D02*
X-46430030Y-15700794D01*
X-47137137Y-14993687D01*
X-46800419Y-14656969D01*
X-45790267Y-15061030D02*
X-46497374Y-14353924D01*
X-45386206Y-14656969D01*
X-46093312Y-13949862D01*
X-45217847Y-13545801D02*
X-44746442Y-14017206D01*
X-45655580Y-13444786D02*
X-45318862Y-14118222D01*
X-44881129Y-13680488D01*
X35822095Y-47648762D02*
X35964952Y-47696381D01*
X36203048Y-47696381D01*
X36298286Y-47648762D01*
X36345905Y-47601143D01*
X36393524Y-47505905D01*
X36393524Y-47410667D01*
X36345905Y-47315429D01*
X36298286Y-47267810D01*
X36203048Y-47220190D01*
X36012571Y-47172571D01*
X35917333Y-47124952D01*
X35869714Y-47077333D01*
X35822095Y-46982095D01*
X35822095Y-46886857D01*
X35869714Y-46791619D01*
X35917333Y-46744000D01*
X36012571Y-46696381D01*
X36250667Y-46696381D01*
X36393524Y-46744000D01*
X36822095Y-47696381D02*
X36822095Y-46696381D01*
X37203048Y-46696381D01*
X37298286Y-46744000D01*
X37345905Y-46791619D01*
X37393524Y-46886857D01*
X37393524Y-47029714D01*
X37345905Y-47124952D01*
X37298286Y-47172571D01*
X37203048Y-47220190D01*
X36822095Y-47220190D01*
X38345905Y-47696381D02*
X37774476Y-47696381D01*
X38060190Y-47696381D02*
X38060190Y-46696381D01*
X37964952Y-46839238D01*
X37869714Y-46934476D01*
X37774476Y-46982095D01*
X-611238Y6794667D02*
X-563619Y6937524D01*
X-563619Y7175620D01*
X-611238Y7270858D01*
X-658857Y7318477D01*
X-754095Y7366096D01*
X-849333Y7366096D01*
X-944571Y7318477D01*
X-992190Y7270858D01*
X-1039810Y7175620D01*
X-1087429Y6985143D01*
X-1135048Y6889905D01*
X-1182667Y6842286D01*
X-1277905Y6794667D01*
X-1373143Y6794667D01*
X-1468381Y6842286D01*
X-1516000Y6889905D01*
X-1563619Y6985143D01*
X-1563619Y7223239D01*
X-1516000Y7366096D01*
X-1563619Y7699429D02*
X-563619Y7937524D01*
X-1277905Y8128001D01*
X-563619Y8318477D01*
X-1563619Y8556572D01*
X-563619Y9461334D02*
X-563619Y8889905D01*
X-563619Y9175619D02*
X-1563619Y9175619D01*
X-1420762Y9080381D01*
X-1325524Y8985143D01*
X-1277905Y8889905D01*
X-12236438Y-46646933D02*
X-12188819Y-46504076D01*
X-12188819Y-46265980D01*
X-12236438Y-46170742D01*
X-12284057Y-46123123D01*
X-12379295Y-46075504D01*
X-12474533Y-46075504D01*
X-12569771Y-46123123D01*
X-12617390Y-46170742D01*
X-12665010Y-46265980D01*
X-12712629Y-46456457D01*
X-12760248Y-46551695D01*
X-12807867Y-46599314D01*
X-12903105Y-46646933D01*
X-12998343Y-46646933D01*
X-13093581Y-46599314D01*
X-13141200Y-46551695D01*
X-13188819Y-46456457D01*
X-13188819Y-46218361D01*
X-13141200Y-46075504D01*
X-13188819Y-45742171D02*
X-12188819Y-45504076D01*
X-12903105Y-45313599D01*
X-12188819Y-45123123D01*
X-13188819Y-44885028D01*
X-13093581Y-44551695D02*
X-13141200Y-44504076D01*
X-13188819Y-44408838D01*
X-13188819Y-44170742D01*
X-13141200Y-44075504D01*
X-13093581Y-44027885D01*
X-12998343Y-43980266D01*
X-12903105Y-43980266D01*
X-12760248Y-44027885D01*
X-12188819Y-44599314D01*
X-12188819Y-43980266D01*
X35496667Y-39512762D02*
X35639524Y-39560381D01*
X35877620Y-39560381D01*
X35972858Y-39512762D01*
X36020477Y-39465143D01*
X36068096Y-39369905D01*
X36068096Y-39274667D01*
X36020477Y-39179429D01*
X35972858Y-39131810D01*
X35877620Y-39084190D01*
X35687143Y-39036571D01*
X35591905Y-38988952D01*
X35544286Y-38941333D01*
X35496667Y-38846095D01*
X35496667Y-38750857D01*
X35544286Y-38655619D01*
X35591905Y-38608000D01*
X35687143Y-38560381D01*
X35925239Y-38560381D01*
X36068096Y-38608000D01*
X36401429Y-38560381D02*
X36639524Y-39560381D01*
X36830001Y-38846095D01*
X37020477Y-39560381D01*
X37258572Y-38560381D01*
X37544286Y-38560381D02*
X38163334Y-38560381D01*
X37830000Y-38941333D01*
X37972858Y-38941333D01*
X38068096Y-38988952D01*
X38115715Y-39036571D01*
X38163334Y-39131810D01*
X38163334Y-39369905D01*
X38115715Y-39465143D01*
X38068096Y-39512762D01*
X37972858Y-39560381D01*
X37687143Y-39560381D01*
X37591905Y-39512762D01*
X37544286Y-39465143D01*
X-21031105Y-47602781D02*
X-21031105Y-48412305D01*
X-20983486Y-48507543D01*
X-20935867Y-48555162D01*
X-20840629Y-48602781D01*
X-20650152Y-48602781D01*
X-20554914Y-48555162D01*
X-20507295Y-48507543D01*
X-20459676Y-48412305D01*
X-20459676Y-47602781D01*
X-19459676Y-48602781D02*
X-20031105Y-48602781D01*
X-19745391Y-48602781D02*
X-19745391Y-47602781D01*
X-19840629Y-47745638D01*
X-19935867Y-47840876D01*
X-20031105Y-47888495D01*
X-19303905Y-35512381D02*
X-19303905Y-36321905D01*
X-19256286Y-36417143D01*
X-19208667Y-36464762D01*
X-19113429Y-36512381D01*
X-18922952Y-36512381D01*
X-18827714Y-36464762D01*
X-18780095Y-36417143D01*
X-18732476Y-36321905D01*
X-18732476Y-35512381D01*
X-18303905Y-35607619D02*
X-18256286Y-35560000D01*
X-18161048Y-35512381D01*
X-17922952Y-35512381D01*
X-17827714Y-35560000D01*
X-17780095Y-35607619D01*
X-17732476Y-35702857D01*
X-17732476Y-35798095D01*
X-17780095Y-35940952D01*
X-18351524Y-36512381D01*
X-17732476Y-36512381D01*
X16510095Y-32210381D02*
X16510095Y-33019905D01*
X16557714Y-33115143D01*
X16605333Y-33162762D01*
X16700571Y-33210381D01*
X16891048Y-33210381D01*
X16986286Y-33162762D01*
X17033905Y-33115143D01*
X17081524Y-33019905D01*
X17081524Y-32210381D01*
X17462476Y-32210381D02*
X18081524Y-32210381D01*
X17748190Y-32591333D01*
X17891048Y-32591333D01*
X17986286Y-32638952D01*
X18033905Y-32686571D01*
X18081524Y-32781810D01*
X18081524Y-33019905D01*
X18033905Y-33115143D01*
X17986286Y-33162762D01*
X17891048Y-33210381D01*
X17605333Y-33210381D01*
X17510095Y-33162762D01*
X17462476Y-33115143D01*
X43524381Y-57657905D02*
X44333905Y-57657905D01*
X44429143Y-57610286D01*
X44476762Y-57562667D01*
X44524381Y-57467429D01*
X44524381Y-57276952D01*
X44476762Y-57181714D01*
X44429143Y-57134095D01*
X44333905Y-57086476D01*
X43524381Y-57086476D01*
X43857714Y-56181714D02*
X44524381Y-56181714D01*
X43476762Y-56419810D02*
X44191048Y-56657905D01*
X44191048Y-56038857D01*
X43524381Y254095D02*
X44333905Y254095D01*
X44429143Y301714D01*
X44476762Y349333D01*
X44524381Y444571D01*
X44524381Y635048D01*
X44476762Y730286D01*
X44429143Y777905D01*
X44333905Y825524D01*
X43524381Y825524D01*
X43524381Y1777905D02*
X43524381Y1301714D01*
X44000571Y1254095D01*
X43952952Y1301714D01*
X43905333Y1396952D01*
X43905333Y1635048D01*
X43952952Y1730286D01*
X44000571Y1777905D01*
X44095810Y1825524D01*
X44333905Y1825524D01*
X44429143Y1777905D01*
X44476762Y1730286D01*
X44524381Y1635048D01*
X44524381Y1396952D01*
X44476762Y1301714D01*
X44429143Y1254095D01*
X1778095Y-21558381D02*
X1778095Y-22367905D01*
X1825714Y-22463143D01*
X1873333Y-22510762D01*
X1968571Y-22558381D01*
X2159048Y-22558381D01*
X2254286Y-22510762D01*
X2301905Y-22463143D01*
X2349524Y-22367905D01*
X2349524Y-21558381D01*
X3254286Y-21558381D02*
X3063809Y-21558381D01*
X2968571Y-21606000D01*
X2920952Y-21653619D01*
X2825714Y-21796476D01*
X2778095Y-21986952D01*
X2778095Y-22367905D01*
X2825714Y-22463143D01*
X2873333Y-22510762D01*
X2968571Y-22558381D01*
X3159048Y-22558381D01*
X3254286Y-22510762D01*
X3301905Y-22463143D01*
X3349524Y-22367905D01*
X3349524Y-22129810D01*
X3301905Y-22034571D01*
X3254286Y-21986952D01*
X3159048Y-21939333D01*
X2968571Y-21939333D01*
X2873333Y-21986952D01*
X2825714Y-22034571D01*
X2778095Y-22129810D01*
X43386381Y-28955905D02*
X44195905Y-28955905D01*
X44291143Y-28908286D01*
X44338762Y-28860667D01*
X44386381Y-28765429D01*
X44386381Y-28574952D01*
X44338762Y-28479714D01*
X44291143Y-28432095D01*
X44195905Y-28384476D01*
X43386381Y-28384476D01*
X43386381Y-28003524D02*
X43386381Y-27336857D01*
X44386381Y-27765429D01*
M02*
