M48
;DRILL file {KiCad 4.0.1-stable} date 2018年08月25日 土曜日 19:37:39
;FORMAT={-:-/ absolute / inch / decimal}
FMAT,2
INCH,TZ
T1C0.016
T2C0.020
T3C0.022
T4C0.026
T5C0.028
T6C0.039
T7C0.039
T8C0.040
T9C0.053
T10C0.079
%
G90
G05
M72
T1
X-2.11Y-1.235
X-2.09Y-1.3375
X-2.0607Y-1.0007
X-2.0475Y-0.5875
X-2.045Y-1.36
X-2.04Y-1.625
X-2.0325Y-1.06
X-2.025Y-0.835
X-1.9975Y-1.74
X-1.99Y-0.93
X-1.98Y-0.7975
X-1.9775Y-1.47
X-1.965Y-0.5575
X-1.9375Y-0.61
X-1.9375Y-0.8925
X-1.935Y-1.685
X-1.93Y-1.56
X-1.9285Y-1.6154
X-1.9275Y-0.39
X-1.9125Y-1.5025
X-1.9125Y-1.835
X-1.905Y-0.7375
X-1.9Y-1.225
X-1.8875Y-0.515
X-1.8725Y-0.9177
X-1.8725Y-1.1875
X-1.8725Y-1.6325
X-1.8725Y-1.9525
X-1.872Y-1.672
X-1.865Y-0.415
X-1.8525Y-1.42
X-1.8375Y-0.7025
X-1.83Y-1.27
X-1.825Y-1.2525
X-1.8225Y-0.9825
X-1.78Y-1.33
X-1.77Y-1.3575
X-1.7425Y-0.8825
X-1.735Y-1.2823
X-1.735Y-1.455
X-1.7275Y-1.0075
X-1.7Y-0.6423
X-1.7Y-1.5477
X-1.7Y-1.655
X-1.675Y-0.5325
X-1.6625Y-0.8823
X-1.6625Y-1.12
X-1.655Y-1.2475
X-1.645Y-1.275
X-1.615Y-1.21
X-1.6125Y-1.56
X-1.6125Y-1.615
X-1.61Y-0.7775
X-1.5875Y-1.31
X-1.575Y-1.5125
X-1.5675Y-1.0825
X-1.5625Y-1.2125
X-1.5575Y-0.68
X-1.5575Y-1.5725
X-1.5475Y-0.77
X-1.515Y-0.59
X-1.515Y-0.685
X-1.515Y-1.2325
X-1.515Y-1.325
X-1.515Y-1.325
X-1.515Y-1.515
X-1.515Y-2.255
X-1.5125Y-1.3875
X-1.4925Y-1.09
X-1.4825Y-0.7525
X-1.48Y-1.02
X-1.465Y-1.325
X-1.465Y-1.43
X-1.465Y-1.53
X-1.465Y-2.1925
X-1.4625Y-0.7025
X-1.4575Y-0.89
X-1.435Y-1.135
X-1.4275Y-0.645
X-1.4275Y-1.2725
X-1.425Y-1.595
X-1.415Y-0.885
X-1.4125Y-0.6725
X-1.41Y-1.3125
X-1.41Y-1.7825
X-1.4025Y-1.5375
X-1.39Y-0.51
X-1.3825Y-2.1175
X-1.3775Y-0.9559
X-1.3725Y-1.6875
X-1.3675Y-1.4775
X-1.365Y-0.65
X-1.36Y-0.8825
X-1.3475Y-1.3325
X-1.3475Y-1.54
X-1.3325Y-0.83
X-1.3225Y-0.935
X-1.3125Y-0.6425
X-1.31Y-1.4825
X-1.31Y-1.8275
X-1.3075Y-0.4425
X-1.3075Y-0.5275
X-1.3075Y-1.4275
X-1.2777Y-0.72
X-1.2777Y-0.81
X-1.2775Y-1.
X-1.27Y-0.788
X-1.268Y-0.876
X-1.2625Y-0.355
X-1.255Y-1.5375
X-1.2425Y0.125
X-1.2275Y-1.055
X-1.21Y-0.6225
X-1.2Y-1.195
X-1.185Y0.195
X-1.11Y-0.125
X-1.11Y-0.43
X-1.08Y0.1575
X-1.072Y-0.902
X-1.072Y-1.01
X-1.055Y-1.7175
X-1.046Y-0.814
X-1.046Y-0.986
X-1.0375Y0.3425
X-1.0375Y-1.1375
X-1.02Y-0.728
X-1.02Y-0.96
X-1.008Y-1.58
X-1.006Y-1.202
X-1.005Y-0.4825
X-0.99Y-0.75
X-0.975Y-1.3625
X-0.965Y-1.565
X-0.9625Y-0.721
X-0.962Y-0.919
X-0.94Y-0.44
X-0.94Y-0.62
X-0.93Y-0.235
X-0.93Y-0.43
X-0.9275Y-0.76
X-0.9125Y-0.9375
X-0.91Y-1.155
X-0.91Y-2.1825
X-0.904Y-0.678
X-0.894Y-0.874
X-0.886Y-0.912
X-0.884Y-1.254
X-0.878Y-1.29
X-0.872Y-1.814
X-0.868Y-1.376
X-0.868Y-1.71
X-0.865Y-0.755
X-0.8645Y-0.503
X-0.856Y-1.7577
X-0.85Y-1.1175
X-0.85Y-1.155
X-0.838Y-1.394
X-0.838Y-1.684
X-0.822Y-1.81
X-0.821Y-0.793
X-0.81Y-1.16
X-0.8085Y-0.6775
X-0.808Y-1.38
X-0.808Y-1.654
X-0.8Y-1.69
X-0.7985Y-0.4945
X-0.7975Y-0.945
X-0.796Y-1.7577
X-0.794Y-1.712
X-0.79Y-0.125
X-0.79Y-0.43
X-0.7865Y-0.451
X-0.78Y-1.466
X-0.776Y-1.376
X-0.773Y-1.836
X-0.772Y-1.798
X-0.7595Y-0.792
X-0.7525Y-2.345
X-0.74Y-1.664
X-0.7395Y-0.306
X-0.736Y-1.7577
X-0.734Y-1.71
X-0.723Y-0.7935
X-0.722Y-1.816
X-0.721Y-0.3375
X-0.7125Y-2.5225
X-0.6925Y0.155
X-0.68Y-0.3575
X-0.6725Y-1.455
X-0.665Y-1.5175
X-0.664Y-1.212
X-0.662Y-1.184
X-0.6475Y-1.4325
X-0.64Y-1.56
X-0.638Y-1.278
X-0.632Y-1.214
X-0.625Y-1.405
X-0.62Y-0.55
X-0.62Y-2.25
X-0.615Y-1.6175
X-0.615Y-2.135
X-0.61Y-0.235
X-0.61Y-0.43
X-0.604Y-1.176
X-0.604Y-1.376
X-0.6Y-0.46
X-0.598Y-1.236
X-0.598Y-1.788
X-0.595Y-2.41
X-0.584Y-1.64
X-0.584Y-1.686
X-0.5825Y-1.075
X-0.58Y-0.93
X-0.578Y-1.542
X-0.556Y-1.2
X-0.552Y-0.954
X-0.535Y-0.2905
X-0.535Y-0.92
X-0.53Y-0.36
X-0.53Y-1.9875
X-0.524Y-0.24
X-0.5075Y-0.1825
X-0.506Y-0.327
X-0.505Y-0.272
X-0.4985Y-0.892
X-0.498Y-1.278
X-0.4975Y-2.08
X-0.497Y-0.9245
X-0.49Y0.08
X-0.479Y-0.3465
X-0.4705Y-0.7335
X-0.4685Y-1.4355
X-0.45Y-0.5
X-0.44Y-0.39
X-0.43Y-0.49
X-0.43Y-0.57
X-0.43Y-0.93
X-0.426Y-1.258
X-0.426Y-1.33
X-0.426Y-1.59
X-0.4257Y-1.272
X-0.422Y-1.198
X-0.412Y-1.628
X-0.4Y-0.44
X-0.39Y-0.39
X-0.365Y-0.6735
X-0.3505Y-0.464
X-0.345Y-2.2525
X-0.338Y-0.985
X-0.335Y0.0075
X-0.3325Y-2.0925
X-0.3295Y-0.744
X-0.3205Y-1.711
X-0.31Y-0.52
X-0.31Y-1.655
X-0.3095Y-0.7075
X-0.296Y-0.8545
X-0.29Y-0.2
X-0.27Y-0.17
X-0.27Y-1.282
X-0.27Y-1.298
X-0.2615Y-0.7475
X-0.2595Y-0.5515
X-0.25Y0.33
X-0.246Y-1.334
X-0.2455Y-1.539
X-0.242Y-0.946
X-0.242Y-1.22
X-0.237Y-1.64
X-0.2305Y-0.6995
X-0.23Y-1.7635
X-0.23Y-1.861
X-0.225Y-1.765
X-0.22Y-0.36
X-0.22Y-0.51
X-0.22Y-1.655
X-0.2085Y-1.5665
X-0.2Y-0.18
X-0.1965Y-1.715
X-0.1935Y-1.7615
X-0.19Y0.08
X-0.181Y-0.33
X-0.1725Y-0.4885
X-0.15Y0.2
X-0.15Y0.12
X-0.1475Y-1.216
X-0.147Y-1.2492
X-0.1465Y-1.5865
X-0.146Y-1.5065
X-0.1455Y-0.981
X-0.145Y-0.95
X-0.138Y-0.696
X-0.134Y-0.887
X-0.132Y-1.633
X-0.13Y0.08
X-0.13Y-0.03
X-0.13Y-0.57
X-0.13Y-0.62
X-0.127Y-1.715
X-0.115Y-1.849
X-0.086Y-0.274
X-0.073Y-0.3685
X-0.0545Y-0.496
X-0.054Y-1.944
X-0.053Y-0.2465
X-0.048Y-2.366
X-0.0465Y0.328
X-0.045Y-0.1215
X-0.04Y-0.3475
X-0.036Y-2.162
X-0.029Y-0.923
X-0.017Y-1.5865
X0.0077Y-1.52
X0.042Y-1.34
X0.048Y-1.576
X0.06Y-0.31
X0.0615Y-1.6705
X0.0685Y-1.833
X0.07Y-0.04
X0.07Y-0.54
X0.09Y-0.18
X0.096Y-1.304
X0.108Y-0.562
X0.1775Y-2.08
X0.205Y-1.8825
X0.24Y-2.136
X0.2475Y-0.889
X0.253Y-1.2492
X0.255Y-0.95
X0.255Y-1.593
X0.281Y-1.305
X0.312Y-1.0025
X0.32Y-0.5065
X0.339Y-1.0415
X0.3435Y-0.5535
X0.365Y-1.4265
X0.38Y-0.9275
X0.419Y-1.056
X0.436Y-0.691
X0.45Y-1.48
X0.451Y-1.069
X0.452Y-1.189
X0.457Y-0.7325
X0.474Y-1.576
X0.481Y-1.455
X0.484Y-1.0935
X0.485Y-1.0535
X0.4865Y-1.164
X0.4925Y-0.6535
X0.507Y-0.955
X0.516Y-1.0025
X0.5166Y-0.9669
X0.52Y-1.124
X0.521Y-2.1185
X0.5255Y-1.072
X0.5461Y-1.2326
X0.552Y-0.6975
X0.553Y-1.122
X0.556Y-0.927
X0.59Y-0.726
X0.593Y-0.9255
X0.6052Y-1.2326
X0.6065Y-1.303
X0.6205Y-0.769
X0.63Y-0.754
X0.6365Y-0.955
X0.6495Y-0.5905
X0.659Y-1.157
X0.6643Y-1.2326
X0.6645Y-0.914
X0.6938Y-0.9669
X0.6945Y-0.5175
X0.6965Y-1.179
X0.704Y-0.6435
X0.7235Y-1.2575
X0.7275Y-2.156
X0.7295Y-0.9185
X0.735Y-0.68
X0.7425Y-0.5445
X0.7475Y-1.1885
X0.7565Y-1.2235
X0.7615Y-0.923
X0.78Y-1.3165
X0.787Y-1.249
X0.8075Y-1.011
X0.814Y-0.977
X0.8835Y-0.9285
X0.8945Y-1.3755
X0.979Y-1.041
X0.988Y-0.684
X0.992Y-0.4415
X1.014Y-1.0365
X1.035Y-1.247
X1.062Y-2.5635
X1.069Y-1.32
X1.076Y-1.5505
X1.0875Y-2.1735
X1.098Y-1.6515
X1.0985Y-1.5535
X1.1055Y-2.325
X1.115Y-0.7775
X1.1265Y-1.3935
X1.15Y-2.1295
X1.1577Y-1.47
X1.159Y-1.5455
X1.1655Y-2.233
X1.1745Y-1.556
X1.1805Y-1.6515
X1.208Y-0.967
X1.215Y-1.9075
X1.223Y-0.7555
X1.2475Y-2.43
X1.256Y-1.067
X1.2695Y-0.803
X1.2755Y-2.1315
X1.298Y0.1155
X1.323Y-0.8925
X1.3295Y-1.4245
X1.33Y-1.3377
X1.3375Y-1.288
X1.3485Y0.0165
X1.3485Y-0.802
X1.373Y-1.1
X1.386Y-1.6
X1.3925Y-0.0775
X1.4Y-1.468
X1.449Y-1.3995
X1.4565Y-2.5995
X1.4576Y-0.1604
X1.4576Y-2.4404
X1.4595Y-0.5815
X1.46Y-1.772
X1.4745Y-1.134
X1.5105Y-1.3695
X1.519Y-1.04
X1.5255Y-1.077
X1.533Y-0.8615
X1.539Y-0.6445
X1.5545Y-0.551
X1.5545Y-1.137
X1.5575Y-2.557
X1.5576Y-2.4404
X1.5735Y-1.511
X1.5895Y-1.4245
X1.59Y-1.46
X1.5939Y-1.2675
X1.6175Y-0.0595
X1.6215Y-0.529
X1.639Y-2.631
X1.6525Y-1.338
X1.6625Y-1.2095
X1.6675Y-1.791
X1.673Y-1.015
X1.675Y-0.46
X1.709Y-0.9415
X1.71Y-0.4555
X1.725Y-2.343
X1.7295Y-1.392
X1.74Y-0.1735
X1.747Y-1.483
T2
X-0.2633Y-0.1993
X-0.1806Y-0.1993
X1.5939Y-0.9545
X1.5939Y-1.0175
X1.5939Y-1.0785
X1.5939Y-1.1415
X1.5939Y-1.2045
X1.5939Y-1.2675
T3
X-1.9296Y-0.5885
X-1.9285Y-1.6154
X-1.873Y-0.532
X-1.872Y-1.672
X-1.8165Y-0.4754
X-1.8154Y-1.7285
X-0.445Y0.17
X-0.445Y0.09
X-0.445Y0.01
X-0.445Y-2.21
X-0.445Y-2.29
X-0.445Y-2.37
T4
X-0.873Y-1.836
X-0.823Y-1.836
X-0.773Y-1.836
X-0.723Y-1.836
T5
X-0.12Y0.42
X-0.12Y0.32
X-0.12Y0.22
T6
X1.4576Y0.2396
X1.4576Y0.1396
X1.4576Y0.0396
X1.4576Y-0.0604
X1.4576Y-0.1604
X1.4576Y-2.0404
X1.4576Y-2.1404
X1.4576Y-2.2404
X1.4576Y-2.3404
X1.4576Y-2.4404
X1.5576Y0.2396
X1.5576Y0.1396
X1.5576Y0.0396
X1.5576Y-0.0604
X1.5576Y-0.1604
X1.5576Y-2.0404
X1.5576Y-2.1404
X1.5576Y-2.2404
X1.5576Y-2.3404
X1.5576Y-2.4404
T7
X-2.0607Y-1.0007
X-2.0607Y-1.1993
X-1.99Y-0.93
X-1.99Y-1.27
X-0.6Y0.36
X-0.6Y0.26
X-0.6Y-2.46
X-0.6Y-2.56
T8
X-0.147Y-1.2492
X-0.145Y-0.95
X-0.047Y-1.2492
X-0.045Y-0.95
X0.053Y-1.2492
X0.055Y-0.95
X0.153Y-1.2492
X0.155Y-0.95
X0.253Y-1.2492
X0.255Y-0.95
T9
X-0.418Y-1.664
X-0.418Y-1.924
X1.33Y-1.46
X1.59Y-1.46
T10
X0.4545Y-0.2019
X0.4545Y-2.0029
X1.1238Y-0.2019
X1.1238Y-2.0029
T0
M30
