G04 #@! TF.FileFunction,Soldermask,Top*
%FSLAX46Y46*%
G04 Gerber Fmt 4.6, Leading zero omitted, Abs format (unit mm)*
G04 Created by KiCad (PCBNEW 4.0.1-stable) date 2018年08月25日 土曜日 19:37:46*
%MOMM*%
G01*
G04 APERTURE LIST*
%ADD10C,0.100000*%
%ADD11R,2.500000X0.600000*%
%ADD12R,2.600000X0.750000*%
%ADD13R,0.500000X0.150000*%
%ADD14R,0.700000X1.600000*%
%ADD15R,1.600000X0.700000*%
%ADD16R,0.750000X2.600000*%
%ADD17R,0.600000X2.500000*%
%ADD18R,0.150000X0.500000*%
%ADD19C,1.000000*%
%ADD20R,0.800000X0.800000*%
%ADD21R,2.000000X1.900000*%
%ADD22C,1.900000*%
%ADD23R,0.510000X0.600000*%
%ADD24R,0.802000X0.972000*%
%ADD25R,0.400000X0.600000*%
%ADD26R,0.600000X0.400000*%
%ADD27R,0.710000X1.750000*%
%ADD28R,1.000000X1.000000*%
%ADD29R,1.100000X0.700000*%
%ADD30C,1.800000*%
%ADD31R,0.300000X1.200000*%
%ADD32R,1.200000X0.300000*%
%ADD33R,0.220000X1.000000*%
%ADD34C,1.524000*%
%ADD35C,2.500000*%
G04 APERTURE END LIST*
D10*
D11*
X-28194000Y-3175000D03*
X-28194000Y-5969000D03*
X-23622000Y-3175000D03*
X-23622000Y-5969000D03*
D12*
X-23876000Y-11176000D03*
X-28321000Y-11176000D03*
D11*
X-20066000Y-3175000D03*
X-20066000Y-5969000D03*
X-15494000Y-3175000D03*
X-15494000Y-5969000D03*
D12*
X-15748000Y-11176000D03*
X-20193000Y-11176000D03*
D13*
X-10947400Y-24612600D03*
X-10947400Y-23850600D03*
X-21971000Y-19939000D03*
X-21971000Y-19177000D03*
D14*
X-41021000Y-14478000D03*
X-38481000Y-14478000D03*
X-41021000Y-30734000D03*
X-38481000Y-30734000D03*
D15*
X27686000Y-16383000D03*
X27686000Y-18923000D03*
D16*
X39217600Y-18237200D03*
X39217600Y-13792200D03*
D15*
X30734000Y-16383000D03*
X30734000Y-18923000D03*
X33782000Y-16383000D03*
X33782000Y-18923000D03*
D17*
X-1143000Y-47244000D03*
X1651000Y-47244000D03*
X-2921000Y-47244000D03*
X-5715000Y-47244000D03*
D18*
X-4953000Y-44831000D03*
X-5715000Y-44831000D03*
D19*
X-6688000Y-5062000D03*
X-4588000Y-5062000D03*
D20*
X-28448000Y-18288000D03*
X-30099000Y-18288000D03*
X-28448000Y-20574000D03*
X-30099000Y-20574000D03*
X-28448000Y-22860000D03*
X-30099000Y-22860000D03*
X-10922000Y-14478000D03*
X-10922000Y-12827000D03*
D21*
X-15240000Y6604000D03*
D22*
X-15240000Y9144000D03*
D21*
X-15240000Y-62484000D03*
D22*
X-15240000Y-65024000D03*
D10*
G36*
X-51924858Y-23586645D02*
X-50581355Y-22243142D01*
X-49167142Y-23657355D01*
X-50510645Y-25000858D01*
X-51924858Y-23586645D01*
X-51924858Y-23586645D01*
G37*
D22*
X-52342051Y-25418051D03*
D10*
G36*
X-50510645Y-30879142D02*
X-49167142Y-32222645D01*
X-50581355Y-33636858D01*
X-51924858Y-32293355D01*
X-50510645Y-30879142D01*
X-50510645Y-30879142D01*
G37*
D22*
X-52342051Y-30461949D03*
D20*
X1016000Y-40640000D03*
X-635000Y-40640000D03*
D23*
X-38481000Y-17399000D03*
X-37211000Y-17399000D03*
X-35941000Y-17399000D03*
X-34671000Y-17399000D03*
X-34671000Y-22225000D03*
X-35941000Y-22225000D03*
X-37211000Y-22225000D03*
X-38481000Y-22225000D03*
X-38481000Y-33655000D03*
X-37211000Y-33655000D03*
X-35941000Y-33655000D03*
X-34671000Y-33655000D03*
X-34671000Y-38481000D03*
X-35941000Y-38481000D03*
X-37211000Y-38481000D03*
X-38481000Y-38481000D03*
D24*
X0Y-5080000D03*
X2032000Y-5080000D03*
X1016000Y-7112000D03*
X27940000Y-42164000D03*
X29972000Y-42164000D03*
X28956000Y-44196000D03*
D25*
X-4514000Y2286000D03*
X-3614000Y2286000D03*
X-32454000Y-18288000D03*
X-31554000Y-18288000D03*
X-32454000Y-20574000D03*
X-31554000Y-20574000D03*
X-32454000Y-22860000D03*
X-31554000Y-22860000D03*
D26*
X-21742400Y-44646000D03*
X-21742400Y-43746000D03*
X-20218400Y-44646000D03*
X-20218400Y-43746000D03*
X-18694400Y-44646000D03*
X-18694400Y-43746000D03*
D25*
X-9964000Y-9652000D03*
X-10864000Y-9652000D03*
X-10813200Y-32308800D03*
X-9913200Y-32308800D03*
X-13926400Y-42265600D03*
X-14826400Y-42265600D03*
X-9913200Y-33934400D03*
X-10813200Y-33934400D03*
D26*
X-41148000Y-23310000D03*
X-41148000Y-22410000D03*
X-43180000Y-22410000D03*
X-43180000Y-23310000D03*
X-41148000Y-39312000D03*
X-41148000Y-38412000D03*
X-43180000Y-38412000D03*
X-43180000Y-39312000D03*
X-45212000Y-22410000D03*
X-45212000Y-23310000D03*
X-45212000Y-38412000D03*
X-45212000Y-39312000D03*
X-41148000Y-16314000D03*
X-41148000Y-17214000D03*
X-41148000Y-32570000D03*
X-41148000Y-33470000D03*
X-45212000Y-17214000D03*
X-45212000Y-16314000D03*
X-43180000Y-16314000D03*
X-43180000Y-17214000D03*
X-45212000Y-33470000D03*
X-45212000Y-32570000D03*
X-43180000Y-32570000D03*
X-43180000Y-33470000D03*
D25*
X28506000Y-39370000D03*
X29406000Y-39370000D03*
X28506000Y-37338000D03*
X29406000Y-37338000D03*
X-704000Y-38608000D03*
X196000Y-38608000D03*
D26*
X33782000Y-33978000D03*
X33782000Y-33078000D03*
X-28651200Y-29725200D03*
X-28651200Y-30625200D03*
D27*
X-3429000Y-14097000D03*
X-7874000Y-14097000D03*
X-5588000Y-14097000D03*
X-3429000Y-42037000D03*
X-7874000Y-42037000D03*
X-5588000Y-42037000D03*
D19*
X-46111121Y-43904803D03*
X-47547962Y-42467962D03*
D10*
G36*
X-49691910Y-41031121D02*
X-48984803Y-40324014D01*
X-48277696Y-41031121D01*
X-48984803Y-41738228D01*
X-49691910Y-41031121D01*
X-49691910Y-41031121D01*
G37*
D19*
X-11303000Y-56134000D03*
X-11303000Y-58166000D03*
D28*
X-11303000Y-60198000D03*
D19*
X-11303000Y4318000D03*
X-11303000Y2286000D03*
D28*
X-11303000Y254000D03*
D19*
X-46138197Y-12075121D03*
X-47575038Y-13511962D03*
D10*
G36*
X-49011879Y-15655910D02*
X-49718986Y-14948803D01*
X-49011879Y-14241696D01*
X-48304772Y-14948803D01*
X-49011879Y-15655910D01*
X-49011879Y-15655910D01*
G37*
D29*
X38735000Y-41656000D03*
X38735000Y-45212000D03*
X34925000Y-45212000D03*
D19*
X-3048000Y10668000D03*
X-3048000Y8128000D03*
X-3048000Y5588000D03*
D30*
X-10617200Y-48869600D03*
X-10617200Y-42265600D03*
X40386000Y-37084000D03*
X33782000Y-37084000D03*
D19*
X-18364200Y-46634400D03*
X-20904200Y-46634400D03*
X-22174200Y-46634400D03*
D28*
X-19634200Y-46634400D03*
D31*
X-14755000Y-22287000D03*
X-15263000Y-22287000D03*
X-15771000Y-22287000D03*
X-16279000Y-22287000D03*
X-16787000Y-22287000D03*
X-17295000Y-22287000D03*
X-17803000Y-22287000D03*
X-18311000Y-22287000D03*
X-18819000Y-22287000D03*
X-19327000Y-22287000D03*
X-19835000Y-22287000D03*
X-20343000Y-22287000D03*
X-20851000Y-22287000D03*
X-21359000Y-22287000D03*
X-21867000Y-22287000D03*
X-22375000Y-22287000D03*
D32*
X-24399500Y-24092500D03*
X-24399500Y-24600500D03*
X-24399500Y-25108500D03*
X-24399500Y-25616500D03*
X-24399500Y-26124500D03*
X-24399500Y-26632500D03*
X-24399500Y-27140500D03*
X-24399500Y-27648500D03*
X-24399500Y-28156500D03*
X-24399500Y-28664500D03*
X-24399500Y-29172500D03*
X-24399500Y-29680500D03*
X-24399500Y-30188500D03*
X-24399500Y-30696500D03*
X-24399500Y-31204500D03*
X-24399500Y-31712500D03*
X-12620500Y-24153500D03*
X-12620500Y-24661500D03*
X-12620500Y-25169500D03*
X-12620500Y-25677500D03*
X-12620500Y-26185500D03*
X-12620500Y-26693500D03*
X-12620500Y-27201500D03*
X-12620500Y-27709500D03*
X-12620500Y-28217500D03*
X-12620500Y-28725500D03*
X-12620500Y-29233500D03*
X-12620500Y-29741500D03*
X-12620500Y-30249500D03*
X-12620500Y-30757500D03*
X-12620500Y-31265500D03*
X-12620500Y-31773500D03*
D31*
X-16725000Y-33787000D03*
X-15201000Y-33787000D03*
X-14693000Y-33787000D03*
X-15709000Y-33787000D03*
X-16217000Y-33787000D03*
X-17233000Y-33787000D03*
X-17741000Y-33787000D03*
X-18249000Y-33787000D03*
X-18757000Y-33787000D03*
X-19265000Y-33787000D03*
X-19773000Y-33787000D03*
X-20281000Y-33787000D03*
X-20789000Y-33787000D03*
X-21297000Y-33787000D03*
X-21805000Y-33787000D03*
X-22313000Y-33787000D03*
D33*
X21372000Y-24558000D03*
X20622000Y-24558000D03*
X19872000Y-24558000D03*
X19122000Y-24558000D03*
X18372000Y-24558000D03*
X17622000Y-24558000D03*
X16872000Y-24558000D03*
X16122000Y-24558000D03*
X15372000Y-24558000D03*
X14622000Y-24558000D03*
X13872000Y-24558000D03*
X13122000Y-24558000D03*
X21372000Y-31308000D03*
X20622000Y-31308000D03*
X19872000Y-31308000D03*
X19122000Y-31308000D03*
X18372000Y-31308000D03*
X17622000Y-31308000D03*
X16872000Y-31308000D03*
X16122000Y-31308000D03*
X15372000Y-31308000D03*
X14622000Y-31308000D03*
X13872000Y-31308000D03*
X13122000Y-31308000D03*
D34*
X37022000Y-51826000D03*
X37022000Y-54366000D03*
X37022000Y-56906000D03*
X37022000Y-59446000D03*
X37022000Y-61986000D03*
X39562000Y-51826000D03*
X39562000Y-54366000D03*
X39562000Y-56906000D03*
X39562000Y-59446000D03*
X39562000Y-61986000D03*
X37022000Y6086000D03*
X37022000Y3546000D03*
X37022000Y1006000D03*
X37022000Y-1534000D03*
X37022000Y-4074000D03*
X39562000Y6086000D03*
X39562000Y3546000D03*
X39562000Y1006000D03*
X39562000Y-1534000D03*
X39562000Y-4074000D03*
X6427000Y-31730000D03*
X3887000Y-31730000D03*
X1347000Y-31730000D03*
X-1193000Y-31730000D03*
X-3733000Y-31730000D03*
X-3683000Y-24130000D03*
X-1143000Y-24130000D03*
X1397000Y-24130000D03*
X3937000Y-24130000D03*
X6477000Y-24130000D03*
D19*
X40484000Y-24244000D03*
X40484000Y-25844000D03*
X40484000Y-27394000D03*
X40484000Y-28994000D03*
X40484000Y-30594000D03*
X40484000Y-32194000D03*
D35*
X11545200Y-5127000D03*
X28545200Y-5127000D03*
X11545200Y-50872400D03*
X28545200Y-50872400D03*
M02*
